{
.appVersion = "3108";
.formatVersion = 3;
axes = (
{
name = Weight;
tag = wght;
}
);
customParameters = (
{
name = "Variable Font Origin";
value = m01;
}
);
date = "2022-02-21 08:08:28 +0000";
familyName = "QLD Beginners";
featurePrefixes = (
{
automatic = 1;
code = "languagesystem DFLT dflt;
";
name = Languagesystems;
}
);
features = (
{
automatic = 1;
code = "feature c2sc;
feature smcp;
feature smcp;
";
tag = aalt;
},
{
automatic = 1;
code = "sub A by a.sc;
sub B by b.sc;
sub C by c.sc;
sub D by d.sc;
sub E by e.sc;
sub F by f.sc;
sub G by g.sc;
sub H by h.sc;
sub I by i.sc;
sub J by j.sc;
sub K by k.sc;
sub L by l.sc;
sub M by m.sc;
sub N by n.sc;
sub O by o.sc;
sub P by p.sc;
sub Q by q.sc;
sub R by r.sc;
sub S by s.sc;
sub T by t.sc;
sub U by u.sc;
sub V by v.sc;
sub W by w.sc;
sub X by x.sc;
sub Y by y.sc;
sub Z by z.sc;
";
tag = c2sc;
},
{
automatic = 1;
code = "sub a by a.sc;
sub b by b.sc;
sub c by c.sc;
sub d by d.sc;
sub e by e.sc;
sub f by f.sc;
sub g by g.sc;
sub h by h.sc;
sub i by i.sc;
sub j by j.sc;
sub k by k.sc;
sub l by l.sc;
sub m by m.sc;
sub n by n.sc;
sub o by o.sc;
sub p by p.sc;
sub q by q.sc;
sub r by r.sc;
sub s by s.sc;
sub t by t.sc;
sub u by u.sc;
sub v by v.sc;
sub w by w.sc;
sub x by x.sc;
sub y by y.sc;
sub z by z.sc;
";
tag = smcp;
}
);
fontMaster = (
{
axesValues = (
300
);
guides = (
{
pos = (632,650);
},
{
pos = (416,175);
},
{
pos = (253,350);
},
{
pos = (127,568);
},
{
locked = 1;
pos = (523,396);
}
);
id = m01;
metricValues = (
{
over = 4;
pos = 700;
},
{
over = 4;
pos = 650;
},
{
over = 4;
pos = 350;
},
{
over = -4;
},
{
over = -4;
pos = -300;
},
{
over = -16;
pos = 10;
},
{
over = -4;
pos = 396;
}
);
name = "QLD Beginners Regular";
stemValues = (
45,
50
);
userData = {
GSCornerRadius = 15;
GSOffsetHorizontal = 8;
GSOffsetKeepCompatible = 1;
GSOffsetVertical = 7;
};
visible = 1;
},
{
axesValues = (
800
);
guides = (
{
pos = (632,650);
},
{
pos = (416,175);
},
{
pos = (278,350);
},
{
pos = (127,568);
}
);

glyphs = (
{
glyphname = A;
lastChange = "2022-03-01 14:50:55 +0000";
layers = (
{
layerId = m01;
name = "QBeginners Light";
shapes = (
{
closed = 1;
nodes = (
(383,625,l),
(387,638,o),
(379,650,o),
(360,650,cs),
(338,650,o),
(337,639,o),
(330,625,cs),
(21,32,ls),
(11,12,o),
(23,0,o),
(38,0,cs),
(58,0,o),
(63,7,o),
(72,25,cs),
(381,619,l)
);
},
{
closed = 1;
nodes = (
(388,305,l),
(383,350,l),
(214,350,l),
(192,305,l)
);
},
{
closed = 1;
nodes = (
(337,613,l),
(387,24,ls),
(388,14,o),
(391,0,o),
(413,0,c),
(431,0,o),
(437,11,o),
(436,26,cs),
(384,635,l)
);
}
);
visible = 1;
width = 508;
},
{
layerId = m002;
name = "QBeginners Light";
shapes = (
{
closed = 1;
nodes = (
(427,604,l),
(432,630,o),
(411,650,o),
(380,650,cs),
(346,650,o),
(338,636,o),
(329,616,c),
(39,60,ls),
(20,24,o),
(46,0,o),
(76,0,cs),
(103,0,o),
(118,8,o),
(131,33,cs),
(422,591,l)
);
},
{
closed = 1;
nodes = (
(429,270,l),
(421,350,l),
(223,350,l),
(180,270,l)
);
},
{
closed = 1;
nodes = (
(336,584,l),
(382,40,ls),
(384,16,o),
(400,0,o),
(431,0,cs),
(459,0,o),
(479,15,o),
(476,46,cs),
(427,619,l)
);
}
);
width = 553;
},
{
associatedMasterId = m002;
attr = {
axisRules = (
{
max = 800;
min = 600;
}
);
};
layerId = "1CEABEFF-FBAF-40E8-9AF7-7F734CF48D60";
name = "26 Feb 22, 19:34";
shapes = (
{
closed = 1;
nodes = (
(103,0,o),
(118,8,o),
(131,33,cs),
(412,591,l),
(426,602,l),
(433,629,o),
(413,650,o),
(380,650,cs),
(346,650,o),
(338,636,o),
(329,616,c),
(39,60,ls),
(20,24,o),
(46,0,o),
(76,0,cs)
);
},
{
closed = 1;
nodes = (
(429,270,l),
(421,350,l),
(223,350,l),
(180,270,l)
);
},
{
closed = 1;
nodes = (
(459,0,o),
(479,15,o),
(476,46,cs),
(427,620,l),
(346,584,l),
(382,40,ls),
(384,16,o),
(400,0,o),
(431,0,cs)
);
}
);
visible = 1;
width = 553;
},
{
associatedMasterId = m01;
attr = {
axisRules = (
{
max = 800;
min = 600;
}
);
};
layerId = "497F4732-A267-4EB1-B5D8-081D17C67FF2";
name = "26 Feb 22, 19:34";
shapes = (
{
closed = 1;
nodes = (
(58,0,o),
(63,7,o),
(72,25,cs),
(381,619,l),
(383,624,l),
(387,638,o),
(379,650,o),
(360,650,cs),
(338,650,o),
(337,639,o),
(330,625,cs),
(21,32,ls),
(11,12,o),
(23,0,o),
(38,0,cs)
);
},
{
closed = 1;
nodes = (
(388,305,l),
(383,350,l),
(214,350,l),
(192,305,l)
);
},
{
closed = 1;
nodes = (
(431,0,o),
(437,11,o),
(436,26,cs),
(384,631,l),
(337,613,l),
(387,24,ls),
(388,14,o),
(391,0,o),
(413,0,c)
);
}
);
visible = 1;
width = 508;
}
);
metricLeft = N;
metricRight = N;
unicode = 65;
},
{
glyphname = B;
lastChange = "2022-03-01 14:50:20 +0000";
layers = (
{
layerId = m01;
shapes = (
{
closed = 1;
nodes = (
(413,300,o),
(466,367,o),
(485,475,cs),
(506,593,o),
(378,650,o),
(153,650,c),
(144,605,l),
(330,605,o),
(451,565,o),
(435,477,cs),
(422,405,o),
(385,350,o),
(118,350,c),
(110,300,l)
);
},
{
closed = 1;
nodes = (
(330,0,o),
(407,31,o),
(427,144,cs),
(449,270,o),
(324,350,o),
(114,350,c),
(107,300,l),
(297,300,o),
(393,239,o),
(378,151,cs),
(363,66,o),
(256,45,o),
(46,45,c),
(39,0,l)
);
},
{
closed = 1;
nodes = (
(178,641,o),
(172,650,o),
(153,650,cs),
(136,650,o),
(128,643,o),
(124,623,cs),
(20,31,ls),
(17,14,o),
(27,0,o),
(44,0,cs),
(58,0,o),
(66,9,o),
(70,29,cs),
(174,619,ls)
);
}
);
width = 463;
},
{
layerId = m002;
shapes = (
{
closed = 1;
nodes = (
(462,282,o),
(523,344,o),
(544,462,cs),
(568,597,o),
(439,650,o),
(182,650,c),
(165,559,l),
(396,559,o),
(455,529,o),
(444,467,cs),
(435,413,o),
(419,358,o),
(175,358,c),
(162,282,l)
);
},
{
closed = 1;
nodes = (
(371,0,o),
(467,26,o),
(489,151,cs),
(514,292,o),
(357,358,o),
(170,358,c),
(156,282,l),
(333,282,o),
(403,241,o),
(390,168,cs),
(380,110,o),
(311,96,o),
(93,96,c),
(78,0,l)
);
},
{
closed = 1;
nodes = (
(241,643,o),
(208,650,o),
(184,650,cs),
(160,650,o),
(139,642,o),
(133,609,cs),
(35,53,ls),
(30,23,o),
(52,0,o),
(82,0,cs),
(105,0,o),
(129,11,o),
(135,44,cs),
(233,599,ls)
);
}
);
width = 543;
}
);
metricLeft = N;
metricRight = O;
unicode = 66;
},
{
glyphname = C;
lastChange = "2022-03-01 14:50:20 +0000";
layers = (
{
layerId = m01;
shapes = (
{
closed = 1;
nodes = (
(256,-4,o),
(332,46,o),
(414,169,cs),
(435,200,o),
(436,206,o),
(436,212,cs),
(436,224,o),
(426,232,o),
(414,232,cs),
(398,232,o),
(390,223,o),
(373,198,cs),
(295,87,o),
(237,46,o),
(175,46,cs),
(112,46,o),
(98,99,o),
(98,137,cs),
(98,210,o),
(118,310,o),
(125,349,cs),
(148,468,o),
(184,600,o),
(421,600,cs),
(484,600,o),
(490,601,o),
(500,607,cs),
(511,613,o),
(513,635,o),
(502,642,cs),
(493,648,o),
(484,650,o),
(422,650,cs),
(149,650,o),
(100,498,o),
(72,338,cs),
(68,318,o),
(48,203,o),
(48,138,cs),
(48,70,o),
(78,-4,o),
(176,-4,cs)
);
}
);
width = 475;
},
{
layerId = m002;
shapes = (
{
closed = 1;
nodes = (
(305,-4,o),
(399,47,o),
(479,166,cs),
(503,201,o),
(504,210,o),
(504,219,cs),
(504,243,o),
(482,259,o),
(458,259,cs),
(435,259,o),
(422,248,o),
(400,218,cs),
(329,115,o),
(275,85,o),
(225,85,cs),
(189,85,o),
(167,113,o),
(167,148,cs),
(167,214,o),
(185,308,o),
(191,343,cs),
(212,454,o),
(253,561,o),
(457,561,cs),
(512,561,o),
(538,563,o),
(552,571,cs),
(578,587,o),
(580,623,o),
(555,641,cs),
(542,650,o),
(514,650,o),
(458,650,cs),
(182,650,o),
(116,494,o),
(89,341,cs),
(85,321,o),
(67,212,o),
(67,149,cs),
(67,80,o),
(106,-4,o),
(219,-4,cs)
);
}
);
width = 549;
}
);
metricLeft = O;
metricRight = N;
unicode = 67;
},
{
glyphname = D;
lastChange = "2022-03-01 14:50:20 +0000";
layers = (
{
layerId = m01;
shapes = (
{
closed = 1;
nodes = (
(106,0,ls),
(298,0,o),
(424,128,o),
(463,351,cs),
(493,521,o),
(378,650,o),
(189,650,cs),
(153,650,l),
(148,600,l),
(193,600,ls),
(352,600,o),
(437,489,o),
(413,350,cs),
(379,155,o),
(268,50,o),
(106,50,cs),
(53,50,l),
(43,0,l)
);
},
{
closed = 1;
nodes = (
(177,637,o),
(175,650,o),
(154,650,cs),
(132,650,o),
(127,639,o),
(124,623,cs),
(19,27,ls),
(16,12,o),
(24,0,o),
(42,0,cs),
(64,0,o),
(68,15,o),
(70,25,cs),
(174,619,ls)
);
}
);
width = 463;
},
{
layerId = m002;
shapes = (
{
closed = 1;
nodes = (
(157,0,ls),
(350,0,o),
(485,129,o),
(524,351,cs),
(554,523,o),
(426,650,o),
(234,650,cs),
(184,650,l),
(176,562,l),
(239,562,ls),
(377,562,o),
(449,473,o),
(427,350,cs),
(396,177,o),
(300,89,o),
(157,89,cs),
(97,89,l),
(79,0,l)
);
},
{
closed = 1;
nodes = (
(240,641,o),
(213,650,o),
(185,650,cs),
(153,650,o),
(138,636,o),
(133,609,cs),
(34,49,ls),
(29,21,o),
(49,0,o),
(81,0,cs),
(108,0,o),
(129,15,o),
(134,41,cs),
(233,600,ls)
);
}
);
width = 543;
}
);
metricLeft = N;
metricRight = O;
unicode = 68;
},
{
glyphname = E;
lastChange = "2022-03-01 14:50:32 +0000";
layers = (
{
layerId = m01;
shapes = (
{
closed = 1;
nodes = (
(179,637,o),
(177,650,o),
(156,650,cs),
(134,650,o),
(129,639,o),
(126,623,c),
(21,27,l),
(18,12,o),
(26,0,o),
(44,0,cs),
(66,0,o),
(70,15,o),
(72,25,c),
(176,619,l)
);
},
{
closed = 1;
nodes = (
(379,0,ls),
(399,0,o),
(405,14,o),
(405,26,cs),
(405,38,o),
(399,50,o),
(379,50,cs),
(53,50,l),
(45,0,l)
);
},
{
closed = 1;
nodes = (
(405,305,ls),
(425,305,o),
(431,315,o),
(431,327,cs),
(431,339,o),
(425,350,o),
(405,350,cs),
(101,350,l),
(93,305,l)
);
},
{
closed = 1;
nodes = (
(487,600,ls),
(507,600,o),
(513,613,o),
(513,625,cs),
(513,637,o),
(507,650,o),
(487,650,cs),
(160,650,l),
(151,600,l)
);
}
);
width = 477;
},
{
layerId = m002;
shapes = (
{
closed = 1;
nodes = (
(242,638,o),
(216,650,o),
(188,650,cs),
(157,650,o),
(140,639,o),
(135,611,cs),
(36,50,ls),
(31,22,o),
(43,0,o),
(73,0,cs),
(105,0,o),
(133,18,o),
(137,40,cs),
(235,597,ls)
);
},
{
closed = 1;
nodes = (
(420,0,ls),
(450,0,o),
(470,16,o),
(470,42,cs),
(470,66,o),
(454,80,o),
(422,80,cs),
(94,80,l),
(80,0,l)
);
},
{
closed = 1;
nodes = (
(438,265,ls),
(470,265,o),
(492,284,o),
(492,308,cs),
(492,334,o),
(473,350,o),
(443,350,cs),
(142,350,l),
(126,265,l)
);
},
{
closed = 1;
nodes = (
(519,555,ls),
(549,555,o),
(570,580,o),
(570,606,cs),
(570,631,o),
(552,650,o),
(521,650,cs),
(195,650,l),
(179,555,l)
);
}
);
width = 545;
}
);
metricLeft = T;
metricRight = "=N-2";
unicode = 69;
},
{
glyphname = F;
lastChange = "2022-03-01 14:50:35 +0000";
layers = (
{
layerId = m01;
shapes = (
{
closed = 1;
nodes = (
(179,637,o),
(177,650,o),
(156,650,cs),
(134,650,o),
(129,639,o),
(126,623,cs),
(21,27,ls),
(18,12,o),
(26,0,o),
(44,0,cs),
(66,0,o),
(70,15,o),
(72,25,cs),
(176,619,ls)
);
},
{
closed = 1;
nodes = (
(404,305,ls),
(424,305,o),
(430,315,o),
(430,327,cs),
(430,339,o),
(424,350,o),
(404,350,cs),
(108,350,l),
(101,305,l)
);
},
{
closed = 1;
nodes = (
(487,600,ls),
(507,600,o),
(513,613,o),
(513,625,cs),
(513,637,o),
(507,650,o),
(487,650,cs),
(157,650,l),
(150,600,l)
);
}
);
width = 477;
},
{
layerId = m002;
shapes = (
{
closed = 1;
nodes = (
(240,638,o),
(214,650,o),
(186,650,cs),
(155,650,o),
(140,638,o),
(135,610,cs),
(37,54,ls),
(32,27,o),
(40,0,o),
(72,0,cs),
(110,0,o),
(132,21,o),
(137,51,cs),
(233,597,ls)
);
},
{
closed = 1;
nodes = (
(443,265,ls),
(475,265,o),
(492,284,o),
(492,308,cs),
(492,334,o),
(474,350,o),
(444,350,cs),
(138,350,l),
(123,265,l)
);
},
{
closed = 1;
nodes = (
(516,555,ls),
(546,555,o),
(570,575,o),
(570,604,cs),
(570,632,o),
(552,650,o),
(521,650,cs),
(189,650,l),
(170,555,l)
);
}
);
width = 545;
}
);
metricLeft = T;
metricRight = "=N-2";
unicode = 70;
},
{
glyphname = G;
lastChange = "2022-03-01 14:50:20 +0000";
layers = (
{
layerId = m01;
shapes = (
{
closed = 1;
nodes = (
(413,350,o),
(410,343,o),
(352,255,cs),
(315,199,o),
(212,46,o),
(143,46,cs),
(107,46,o),
(98,89,o),
(98,135,cs),
(98,200,o),
(116,310,o),
(127,364,cs),
(148,468,o),
(191,600,o),
(428,600,cs),
(484,600,ls),
(499,600,o),
(509,613,o),
(509,626,cs),
(509,638,o),
(500,650,o),
(488,650,cs),
(429,650,ls),
(156,650,o),
(100,498,o),
(72,338,cs),
(68,318,o),
(48,203,o),
(48,140,cs),
(48,70,o),
(73,-4,o),
(140,-4,cs),
(234,-4,o),
(333,134,o),
(425,275,c),
(437,350,l)
);
},
{
closed = 1;
nodes = (
(458,340,o),
(455,350,o),
(438,350,c),
(418,350,o),
(409,342,o),
(405,323,cs),
(353,27,ls),
(351,15,o),
(354,1,o),
(374,0,cs),
(397,-1,o),
(402,16,o),
(404,27,cs),
(456,323,ls)
);
}
);
width = 475;
},
{
layerId = m002;
shapes = (
{
closed = 1;
nodes = (
(424,370,o),
(418,361,o),
(360,271,cs),
(325,217,o),
(238,85,o),
(187,85,cs),
(171,85,o),
(165,114,o),
(165,155,cs),
(165,214,o),
(183,304,o),
(192,354,cs),
(209,450,o),
(248,561,o),
(452,561,cs),
(505,561,ls),
(532,561,o),
(553,582,o),
(553,607,cs),
(553,631,o),
(533,650,o),
(508,650,cs),
(453,650,ls),
(177,650,o),
(116,494,o),
(89,341,cs),
(85,321,o),
(67,212,o),
(67,151,cs),
(67,79,o),
(91,-4,o),
(175,-4,cs),
(282,-4,o),
(381,153,o),
(452,265,c),
(462,370,l)
);
},
{
closed = 1;
nodes = (
(508,351,o),
(492,370,o),
(461,370,cs),
(422,370,o),
(409,343,o),
(406,327,cs),
(357,49,ls),
(352,18,o),
(372,0,o),
(406,0,cs),
(441,0,o),
(450,18,o),
(454,42,cs),
(503,320,ls)
);
}
);
width = 530;
}
);
metricLeft = O;
metricRight = N;
unicode = 71;
},
{
glyphname = H;
lastChange = "2022-03-01 14:50:20 +0000";
layers = (
{
layerId = m01;
shapes = (
{
closed = 1;
nodes = (
(177,637,o),
(171,650,o),
(154,650,cs),
(135,650,o),
(127,639,o),
(124,623,cs),
(19,27,ls),
(16,12,o),
(24,0,o),
(42,0,cs),
(64,0,o),
(68,15,o),
(70,25,cs),
(174,619,ls)
);
},
{
closed = 1;
nodes = (
(412,305,l),
(420,350,l),
(118,350,l),
(110,305,l)
);
},
{
closed = 1;
nodes = (
(513,638,o),
(507,650,o),
(487,650,cs),
(469,650,o),
(462,638,o),
(460,628,cs),
(355,27,ls),
(353,15,o),
(355,0,o),
(378,0,cs),
(397,0,o),
(403,13,o),
(405,22,cs),
(510,621,ls)
);
}
);
width = 477;
},
{
layerId = m002;
shapes = (
{
closed = 1;
nodes = (
(238,632,o),
(220,650,o),
(191,650,cs),
(164,650,o),
(138,637,o),
(133,609,cs),
(35,49,ls),
(30,21,o),
(50,0,o),
(82,0,cs),
(116,0,o),
(132,20,o),
(135,40,cs),
(232,597,ls)
);
},
{
closed = 1;
nodes = (
(427,270,l),
(441,350,l),
(169,350,l),
(155,270,l)
);
},
{
closed = 1;
nodes = (
(573,631,o),
(552,650,o),
(521,650,cs),
(493,650,o),
(472,635,o),
(468,613,cs),
(370,49,ls),
(365,20,o),
(382,0,o),
(415,0,cs),
(444,0,o),
(465,17,o),
(469,37,cs),
(567,599,ls)
);
}
);
width = 545;
}
);
metricLeft = N;
metricRight = N;
unicode = 72;
},
{
glyphname = I;
lastChange = "2022-03-01 14:50:20 +0000";
layers = (
{
layerId = m01;
shapes = (
{
closed = 1;
nodes = (
(117,25,l),
(221,619,l),
(170,620,l),
(66,25,l)
);
},
{
closed = 1;
nodes = (
(154,0,o),
(160,11,o),
(160,23,cs),
(160,35,o),
(154,45,o),
(134,45,cs),
(45,45,ls),
(25,45,o),
(19,35,o),
(19,23,cs),
(19,11,o),
(25,0,o),
(45,0,cs),
(134,0,ls)
);
},
{
closed = 1;
nodes = (
(262,605,o),
(268,616,o),
(268,628,cs),
(268,640,o),
(262,650,o),
(242,650,cs),
(153,650,ls),
(133,650,o),
(127,640,o),
(127,628,cs),
(127,616,o),
(133,605,o),
(153,605,cs),
(242,605,ls)
);
}
);
width = 234;
},
{
layerId = m002;
shapes = (
{
closed = 1;
nodes = (
(171,21,l),
(276,622,l),
(178,624,l),
(73,21,l)
);
},
{
closed = 1;
nodes = (
(200,0,o),
(211,15,o),
(215,39,cs),
(219,63,o),
(206,78,o),
(181,78,cs),
(83,78,ls),
(51,78,o),
(36,63,o),
(32,39,cs),
(28,15,o),
(44,0,o),
(69,0,cs),
(167,0,ls)
);
},
{
closed = 1;
nodes = (
(299,570,o),
(313,588,o),
(317,612,cs),
(321,636,o),
(304,650,o),
(281,650,cs),
(183,650,ls),
(152,650,o),
(138,636,o),
(134,612,cs),
(130,588,o),
(146,570,o),
(169,570,cs),
(267,570,ls)
);
}
);
width = 292;
}
);
metricLeft = N;
metricRight = N;
unicode = 73;
},
{
glyphname = J;
lastChange = "2022-03-01 14:55:08 +0000";
layers = (
{
layerId = m01;
shapes = (
{
closed = 1;
nodes = (
(258,621,l),
(201,301,l),
(189,232,o),
(180,161,o),
(151,113,cs),
(133,82,o),
(107,63,o),
(66,58,cs),
(39,55,o),
(-54,51,o),
(-78,51,cs),
(-90,51,o),
(-103,39,o),
(-103,25,cs),
(-103,10,o),
(-90,0,o),
(-78,0,cs),
(-47,0,o),
(43,5,o),
(62,7,cs),
(132,16,o),
(169,46,o),
(194,86,cs),
(228,140,o),
(236,211,o),
(251,296,c),
(309,621,l)
);
},
{
closed = 1;
nodes = (
(436,600,o),
(442,613,o),
(442,625,cs),
(442,637,o),
(436,650,o),
(416,650,cs),
(152,650,ls),
(132,650,o),
(126,637,o),
(126,625,cs),
(126,613,o),
(132,600,o),
(152,600,cs),
(416,600,ls)
);
}
);
width = 404;
},
{
layerId = m002;
shapes = (
{
closed = 1;
nodes = (
(261,625,l),
(203,306,ls),
(191,241,o),
(184,178,o),
(159,137,cs),
(144,111,o),
(129,100,o),
(98,96,cs),
(74,93,o),
(-13,91,o),
(-34,91,cs),
(-58,91,o),
(-83,71,o),
(-83,45,cs),
(-83,18,o),
(-58,0,o),
(-34,0,cs),
(-4,0,o),
(82,2,o),
(100,4,cs),
(176,14,o),
(217,48,o),
(243,88,cs),
(277,145,o),
(286,215,o),
(300,294,cs),
(359,625,l)
);
},
{
closed = 1;
nodes = (
(462,555,o),
(480,576,o),
(480,602,cs),
(480,630,o),
(461,650,o),
(431,650,cs),
(183,650,ls),
(152,650,o),
(133,629,o),
(133,602,cs),
(133,574,o),
(152,555,o),
(182,555,cs),
(430,555,ls)
);
}
);
width = 454;
}
);
metricRight = "=N-4";
unicode = 74;
},
{
glyphname = K;
lastChange = "2022-03-01 14:50:20 +0000";
layers = (
{
layerId = m01;
shapes = (
{
closed = 1;
nodes = (
(493,599,ls),
(505,609,o),
(510,619,o),
(512,628,cs),
(513,640,o),
(505,650,o),
(492,650,cs),
(484,651,o),
(473,647,o),
(461,637,cs),
(124,360,l),
(124,348,l),
(182,343,l)
);
},
{
closed = 1;
nodes = (
(124,356,l),
(124,345,l),
(351,19,ls),
(358,9,o),
(368,0,o),
(381,0,cs),
(391,0,o),
(401,6,o),
(404,17,cs),
(406,24,o),
(405,32,o),
(398,42,cs),
(182,354,l)
);
},
{
closed = 1;
nodes = (
(178,637,o),
(174,650,o),
(155,650,cs),
(135,650,o),
(128,639,o),
(125,623,cs),
(20,32,ls),
(17,17,o),
(25,0,o),
(43,0,cs),
(64,0,o),
(69,18,o),
(71,31,cs),
(175,619,ls)
);
}
);
width = 477;
},
{
layerId = m002;
shapes = (
{
closed = 1;
nodes = (
(542,560,ls),
(556,572,o),
(566,587,o),
(568,602,cs),
(571,625,o),
(553,650,o),
(524,650,cs),
(508,650,o),
(488,644,o),
(472,631,cs),
(151,368,l),
(151,326,l),
(246,318,l)
);
},
{
closed = 1;
nodes = (
(151,382,l),
(151,338,l),
(369,25,ls),
(380,9,o),
(398,0,o),
(417,0,cs),
(437,0,o),
(460,10,o),
(464,31,cs),
(467,44,o),
(466,60,o),
(456,74,cs),
(251,368,l)
);
},
{
closed = 1;
nodes = (
(240,636,o),
(213,650,o),
(189,650,cs),
(163,650,o),
(139,637,o),
(134,609,cs),
(35,54,ls),
(30,24,o),
(51,0,o),
(83,0,cs),
(114,0,o),
(130,19,o),
(135,45,cs),
(233,597,ls)
);
}
);
width = 545;
}
);
metricLeft = N;
metricRight = N;
unicode = 75;
},
{
glyphname = L;
lastChange = "2022-03-01 14:50:20 +0000";
layers = (
{
layerId = m01;
shapes = (
{
closed = 1;
nodes = (
(177,637,o),
(174,650,o),
(154,650,cs),
(134,650,o),
(127,639,o),
(124,623,cs),
(19,27,ls),
(16,12,o),
(24,0,o),
(42,0,cs),
(64,0,o),
(67,15,o),
(69,25,cs),
(174,619,ls)
);
},
{
closed = 1;
nodes = (
(379,0,ls),
(397,0,o),
(405,14,o),
(405,26,cs),
(405,38,o),
(397,50,o),
(379,50,cs),
(47,50,l),
(47,0,l)
);
}
);
width = 477;
},
{
layerId = m002;
shapes = (
{
closed = 1;
nodes = (
(237,639,o),
(213,650,o),
(188,650,cs),
(159,650,o),
(138,637,o),
(133,609,cs),
(34,49,ls),
(29,21,o),
(44,0,o),
(74,0,cs),
(108,0,o),
(127,18,o),
(131,39,cs),
(230,597,ls)
);
},
{
closed = 1;
nodes = (
(420,0,ls),
(450,0,o),
(470,22,o),
(470,46,cs),
(470,70,o),
(450,91,o),
(420,91,cs),
(91,91,l),
(75,0,l)
);
}
);
width = 545;
}
);
metricLeft = N;
metricRight = N;
unicode = 76;
},
{
glyphname = M;
lastChange = "2022-03-01 14:50:20 +0000";
layers = (
{
layerId = m01;
shapes = (
{
closed = 1;
nodes = (
(360,650,l),
(342,650,o),
(336,639,o),
(329,625,cs),
(23,38,ls),
(17,26,o),
(17,16,o),
(21,10,cs),
(25,4,o),
(32,0,o),
(40,0,cs),
(51,0,o),
(63,7,o),
(73,25,cs),
(369,593,l)
);
},
{
closed = 1;
nodes = (
(385,631,ls),
(384,639,o),
(377,650,o),
(359,650,c),
(339,584,l),
(384,24,ls),
(385,14,o),
(389,0,o),
(413,0,c),
(434,26,l)
);
},
{
closed = 1;
nodes = (
(431,0,o),
(439,17,o),
(443,24,cs),
(736,586,l),
(726,650,l),
(711,650,o),
(705,635,o),
(699,624,cs),
(406,61,l),
(411,0,l)
);
},
{
closed = 1;
nodes = (
(757,638,o),
(754,650,o),
(725,650,c),
(709,608,l),
(757,24,ls),
(758,14,o),
(763,0,o),
(784,0,c),
(800,0,o),
(808,11,o),
(807,26,cs),
(758,622,ls)
);
}
);
width = 879;
},
{
layerId = m002;
shapes = (
{
closed = 1;
nodes = (
(376,650,l),
(348,650,o),
(339,638,o),
(328,617,cs),
(39,64,ls),
(30,47,o),
(31,34,o),
(38,21,cs),
(45,8,o),
(63,0,o),
(78,0,cs),
(96,0,o),
(123,9,o),
(136,33,cs),
(408,555,l)
);
},
{
closed = 1;
nodes = (
(428,606,ls),
(426,635,o),
(416,650,o),
(375,650,c),
(333,559,l),
(377,40,ls),
(379,18,o),
(396,0,o),
(427,0,c),
(474,46,l)
);
},
{
closed = 1;
nodes = (
(466,0,o),
(474,19,o),
(480,31,cs),
(760,568,l),
(736,650,l),
(705,650,o),
(688,638,o),
(676,616,cs),
(397,86,l),
(426,0,l)
);
},
{
closed = 1;
nodes = (
(776,635,o),
(770,650,o),
(734,650,c),
(681,562,l),
(724,40,ls),
(726,19,o),
(747,0,o),
(778,0,cs),
(807,0,o),
(826,20,o),
(824,46,cs),
(778,606,ls)
);
}
);
width = 900;
}
);
metricLeft = N;
metricRight = N;
unicode = 77;
},
{
glyphname = N;
lastChange = "2022-03-01 14:47:01 +0000";
layers = (
{
layerId = m01;
shapes = (
{
closed = 1;
nodes = (
(184,630,ls),
(181,639,o),
(171,650,o),
(153,650,c),
(146,589,l),
(354,18,ls),
(358,8,o),
(367,0,o),
(381,0,c),
(387,67,l)
);
},
{
closed = 1;
nodes = (
(154,650,l),
(132,650,o),
(127,639,o),
(124,623,cs),
(19,27,ls),
(16,12,o),
(24,0,o),
(42,0,cs),
(64,0,o),
(68,16,o),
(70,28,cs),
(173,612,l)
);
},
{
closed = 1;
nodes = (
(402,0,o),
(404,15,o),
(406,25,cs),
(510,619,ls),
(513,637,o),
(510,650,o),
(491,650,cs),
(471,650,o),
(464,639,o),
(461,623,cs),
(359,48,l),
(380,0,l)
);
}
);
width = 477;
},
{
layerId = m002;
shapes = (
{
closed = 1;
nodes = (
(227,620,ls),
(219,641,o),
(200,650,o),
(174,650,c),
(144,569,l),
(364,28,ls),
(371,10,o),
(387,0,o),
(413,0,c),
(425,132,l)
);
},
{
closed = 1;
nodes = (
(187,650,l),
(155,650,o),
(138,636,o),
(133,609,cs),
(35,49,ls),
(30,21,o),
(49,0,o),
(78,0,cs),
(111,0,o),
(131,19,o),
(135,42,cs),
(232,592,l)
);
},
{
closed = 1;
nodes = (
(446,0,o),
(455,19,o),
(459,40,cs),
(557,597,ls),
(563,629,o),
(547,653,o),
(514,653,cs),
(486,653,o),
(463,637,o),
(458,609,cs),
(369,105,l),
(412,0,l)
);
}
);
width = 535;
}
);
unicode = 78;
},
{
glyphname = O;
lastChange = "2022-02-28 22:30:51 +0000";
layers = (
{
layerId = m01;
shapes = (
{
closed = 1;
nodes = (
(302,-4,o),
(444,256,o),
(476,438,cs),
(496,551,o),
(460,650,o),
(318,650,cs),
(195,650,o),
(130,557,o),
(88,409,cs),
(77,369,o),
(68,322,o),
(64,278,cs),
(52,143,o),
(64,-4,o),
(157,-4,cs)
);
},
{
closed = 1;
nodes = (
(103,47,o),
(106,178,o),
(113,268,cs),
(117,310,o),
(127,355,o),
(136,388,cs),
(174,526,o),
(216,600,o),
(313,600,cs),
(446,600,o),
(437,495,o),
(426,432,cs),
(398,270,o),
(245,47,o),
(156,47,cs)
);
}
);
width = 461;
},
{
layerId = m002;
shapes = (
{
closed = 1;
nodes = (
(347,-4,o),
(511,251,o),
(542,429,cs),
(563,548,o),
(498,652,o),
(353,652,cs),
(215,652,o),
(147,555,o),
(105,410,cs),
(94,370,o),
(85,325,o),
(82,283,cs),
(70,150,o),
(75,-4,o),
(195,-4,cs)
);
},
{
closed = 1;
nodes = (
(164,86,o),
(174,187,o),
(181,269,cs),
(184,308,o),
(192,348,o),
(200,378,cs),
(235,505,o),
(261,562,o),
(348,562,cs),
(449,562,o),
(451,484,o),
(441,427,cs),
(415,281,o),
(270,86,o),
(201,86,cs)
);
}
);
width = 547;
}
);
unicode = 79;
},
{
glyphname = P;
lastChange = "2022-03-01 14:50:20 +0000";
layers = (
{
layerId = m01;
shapes = (
{
closed = 1;
nodes = (
(306,324,o),
(458,321,o),
(485,476,cs),
(506,597,o),
(372,650,o),
(158,650,c),
(158,600,l),
(362,600,o),
(448,557,o),
(435,481,cs),
(415,367,o),
(277,374,o),
(123,374,c),
(116,324,l)
);
},
{
closed = 1;
nodes = (
(177,637,o),
(175,650,o),
(154,650,cs),
(132,650,o),
(127,639,o),
(124,623,cs),
(19,27,ls),
(16,12,o),
(24,-4,o),
(42,-4,cs),
(64,-4,o),
(68,15,o),
(70,25,cs),
(174,619,ls)
);
}
);
width = 463;
},
{
layerId = m002;
shapes = (
{
closed = 1;
nodes = (
(326,303,o),
(512,289,o),
(544,467,cs),
(568,602,o),
(431,656,o),
(182,652,c),
(182,561,l),
(402,564,o),
(458,535,o),
(447,472,cs),
(431,382,o),
(297,394,o),
(135,393,c),
(123,302,l)
);
},
{
closed = 1;
nodes = (
(237,639,o),
(211,652,o),
(186,652,cs),
(156,652,o),
(138,637,o),
(133,609,cs),
(34,48,ls),
(29,21,o),
(48,-6,o),
(81,-6,cs),
(115,-6,o),
(128,17,o),
(132,39,cs),
(230,597,ls)
);
}
);
width = 543;
}
);
metricLeft = N;
metricRight = O;
unicode = 80;
},
{
glyphname = Q;
lastChange = "2022-02-28 22:36:03 +0000";
layers = (
{
layerId = m01;
shapes = (
{
closed = 1;
nodes = (
(227,165,o),
(209,172,o),
(195,160,cs),
(183,151,o),
(185,139,o),
(196,123,cs),
(300,-29,ls),
(310,-44,o),
(326,-52,o),
(339,-45,cs),
(353,-37,o),
(353,-18,o),
(345,-6,cs),
(237,151,ls)
);
},
{
closed = 1;
nodes = (
(302,-4,o),
(444,256,o),
(476,438,cs),
(496,551,o),
(460,650,o),
(318,650,cs),
(195,650,o),
(130,557,o),
(88,409,cs),
(77,369,o),
(68,322,o),
(64,278,cs),
(52,143,o),
(64,-4,o),
(157,-4,cs)
);
},
{
closed = 1;
nodes = (
(103,47,o),
(106,178,o),
(113,268,cs),
(117,310,o),
(127,355,o),
(136,388,cs),
(174,526,o),
(216,600,o),
(313,600,cs),
(446,600,o),
(437,495,o),
(426,432,cs),
(398,270,o),
(245,47,o),
(156,47,cs)
);
}
);
width = 461;
},
{
layerId = m002;
shapes = (
{
closed = 1;
nodes = (
(283,199,o),
(248,204,o),
(230,189,cs),
(211,174,o),
(205,149,o),
(223,122,cs),
(321,-21,ls),
(339,-47,o),
(371,-55,o),
(392,-42,cs),
(418,-28,o),
(420,1,o),
(404,25,cs),
(304,172,l)
);
},
{
closed = 1;
nodes = (
(347,-4,o),
(511,251,o),
(542,429,cs),
(563,548,o),
(498,652,o),
(353,652,cs),
(215,652,o),
(147,555,o),
(105,410,cs),
(94,370,o),
(85,325,o),
(82,283,cs),
(70,150,o),
(75,-4,o),
(195,-4,cs)
);
},
{
closed = 1;
nodes = (
(164,86,o),
(174,187,o),
(181,269,cs),
(184,308,o),
(192,348,o),
(200,378,cs),
(235,505,o),
(261,562,o),
(348,562,cs),
(449,562,o),
(451,484,o),
(441,427,cs),
(415,281,o),
(270,86,o),
(201,86,cs)
);
}
);
width = 547;
}
);
metricLeft = O;
metricRight = O;
unicode = 81;
},
{
glyphname = R;
lastChange = "2022-03-01 14:50:20 +0000";
layers = (
{
layerId = m01;
shapes = (
{
closed = 1;
nodes = (
(295,303,o),
(458,321,o),
(485,476,cs),
(506,597,o),
(375,650,o),
(158,650,c),
(158,600,l),
(351,600,o),
(449,560,o),
(435,481,cs),
(415,368,o),
(271,354,o),
(112,354,c),
(105,303,l)
);
},
{
closed = 1;
nodes = (
(90,341,l),
(354,18,ls),
(364,5,o),
(372,0,o),
(380,0,cs),
(390,0,o),
(400,7,o),
(403,15,cs),
(406,23,o),
(406,34,o),
(400,42,cs),
(158,334,l)
);
},
{
closed = 1;
nodes = (
(177,637,o),
(175,650,o),
(154,650,cs),
(132,650,o),
(127,639,o),
(124,623,cs),
(20,33,ls),
(17,16,o),
(24,0,o),
(42,0,cs),
(64,0,o),
(68,16,o),
(71,31,cs),
(174,619,ls)
);
}
);
width = 477;
},
{
layerId = m002;
shapes = (
{
closed = 1;
nodes = (
(323,273,o),
(512,289,o),
(544,467,cs),
(568,602,o),
(431,650,o),
(184,650,c),
(184,559,l),
(400,562,o),
(458,533,o),
(447,470,cs),
(432,382,o),
(299,358,o),
(137,358,c),
(133,273,l)
);
},
{
closed = 1;
nodes = (
(129,318,l),
(377,23,ls),
(394,3,o),
(409,0,o),
(422,0,cs),
(441,0,o),
(462,11,o),
(467,29,cs),
(471,42,o),
(473,57,o),
(463,69,cs),
(248,318,l)
);
},
{
closed = 1;
nodes = (
(239,638,o),
(216,650,o),
(188,650,cs),
(157,650,o),
(138,637,o),
(133,609,cs),
(35,54,ls),
(30,24,o),
(42,0,o),
(74,0,cs),
(105,0,o),
(131,23,o),
(136,53,cs),
(232,597,ls)
);
}
);
width = 545;
}
);
metricLeft = N;
metricRight = N;
unicode = 82;
},
{
glyphname = S;
lastChange = "2022-03-01 14:16:35 +0000";
layers = (
{
background = {
shapes = (
{
closed = 1;
nodes = (
(302,-4,o),
(444,256,o),
(476,438,cs),
(496,551,o),
(460,650,o),
(318,650,cs),
(195,650,o),
(130,557,o),
(88,409,cs),
(77,369,o),
(68,322,o),
(64,278,cs),
(52,143,o),
(64,-4,o),
(157,-4,cs)
);
},
{
closed = 1;
nodes = (
(103,47,o),
(106,178,o),
(113,268,cs),
(117,310,o),
(127,355,o),
(136,388,cs),
(174,526,o),
(216,600,o),
(313,600,cs),
(446,600,o),
(437,495,o),
(426,432,cs),
(398,270,o),
(245,47,o),
(156,47,cs)
);
}
);
};
layerId = m01;
shapes = (
{
closed = 1;
nodes = (
(259,0,o),
(428,50,o),
(428,184,cs),
(428,269,o),
(363,318,o),
(345,330,cs),
(218,419,o),
(153,452,o),
(153,497,cs),
(153,555,o),
(261,600,o),
(338,600,cs),
(488,600,ls),
(501,600,o),
(511,613,o),
(511,626,cs),
(511,650,o),
(491,650,o),
(487,650,cs),
(339,650,ls),
(210,650,o),
(102,576,o),
(102,493,cs),
(102,422,o),
(180,385,o),
(304,296,cs),
(330,278,o),
(378,241,o),
(378,183,cs),
(378,83,o),
(226,50,o),
(161,50,cs),
(41,50,ls),
(28,50,o),
(17,37,o),
(17,24,cs),
(17,0,o),
(39,0,o),
(41,0,cs),
(161,0,ls)
);
}
);
width = 463;
},
{
layerId = m002;
shapes = (
{
closed = 1;
nodes = (
(297,0,o),
(479,50,o),
(479,192,cs),
(479,283,o),
(404,335,o),
(385,348,cs),
(266,431,o),
(218,457,o),
(218,487,cs),
(218,527,o),
(298,559,o),
(365,559,cs),
(508,559,ls),
(534,559,o),
(555,580,o),
(555,605,cs),
(555,641,o),
(525,650,o),
(507,650,cs),
(366,650,ls),
(232,650,o),
(118,575,o),
(118,483,cs),
(118,403,o),
(202,363,o),
(319,280,cs),
(341,264,o),
(379,235,o),
(379,192,cs),
(379,115,o),
(256,91,o),
(198,91,cs),
(86,91,ls),
(60,91,o),
(38,69,o),
(38,44,cs),
(38,8,o),
(72,0,o),
(86,0,cs),
(198,0,ls)
);
}
);
width = 530;
}
);
metricLeft = O;
metricRight = O;
unicode = 83;
},
{
glyphname = T;
lastChange = "2022-03-01 14:50:25 +0000";
layers = (
{
layerId = m01;
shapes = (
{
closed = 1;
nodes = (
(289,623,l),
(184,27,l),
(181,12,o),
(189,0,o),
(207,0,cs),
(229,0,o),
(232,15,o),
(234,25,c),
(338,619,l)
);
},
{
closed = 1;
nodes = (
(497,600,o),
(503,613,o),
(503,625,cs),
(503,637,o),
(497,650,o),
(477,650,cs),
(153,650,ls),
(133,650,o),
(127,637,o),
(127,625,cs),
(127,613,o),
(133,600,o),
(153,600,cs),
(477,600,ls)
);
}
);
width = 468;
},
{
layerId = m002;
shapes = (
{
closed = 1;
nodes = (
(288,608,l),
(189,49,ls),
(184,21,o),
(204,-2,o),
(235,-2,cs),
(268,-2,o),
(282,18,o),
(286,39,cs),
(384,598,l)
);
},
{
closed = 1;
nodes = (
(521,563,o),
(539,583,o),
(539,607,cs),
(539,633,o),
(519,653,o),
(489,653,cs),
(185,653,ls),
(155,653,o),
(135,633,o),
(135,607,cs),
(135,583,o),
(153,563,o),
(185,563,cs),
(489,563,ls)
);
}
);
width = 515;
}
);
metricLeft = "=N+2";
metricRight = "=N-1";
unicode = 84;
},
{
glyphname = U;
lastChange = "2022-03-01 14:50:20 +0000";
layers = (
{
layerId = m01;
shapes = (
{
closed = 1;
nodes = (
(476,520,l),
(448,520,l),
(445,509,l),
(423,415,o),
(380,350,o),
(362,320,cs),
(299,217,o),
(199,45,o),
(121,45,cs),
(74,45,o),
(84,116,o),
(96,180,cs),
(176,622,ls),
(179,636,o),
(170,649,o),
(155,650,cs),
(139,650,o),
(128,636,o),
(125,620,cs),
(46,183,ls),
(22,52,o),
(54,-4,o),
(113,-4,cs),
(228,-4,o),
(328,160,o),
(418,321,c),
(449,381,l)
);
},
{
closed = 1;
nodes = (
(514,639,o),
(507,650,o),
(487,650,cs),
(469,650,o),
(462,638,o),
(460,626,cs),
(355,27,ls),
(352,8,o),
(364,-1,o),
(378,-1,cs),
(390,-1,o),
(402,7,o),
(405,22,cs),
(511,624,ls)
);
}
);
width = 477;
},
{
layerId = m002;
shapes = (
{
closed = 1;
nodes = (
(540,543,l),
(462,543,l),
(454,510,ls),
(433,423,o),
(401,369,o),
(384,342,cs),
(340,270,o),
(235,86,o),
(166,86,cs),
(147,86,o),
(149,125,o),
(160,185,cs),
(234,600,ls),
(239,629,o),
(218,650,o),
(189,650,cs),
(157,651,o),
(137,624,o),
(134,606,cs),
(60,195,ls),
(35,57,o),
(77,-4,o),
(150,-4,cs),
(268,-4,o),
(347,108,o),
(433,247,c),
(506,385,l)
);
},
{
closed = 1;
nodes = (
(573,630,o),
(555,650,o),
(521,650,cs),
(493,650,o),
(472,635,o),
(468,612,cs),
(370,49,ls),
(364,16,o),
(388,0,o),
(416,0,cs),
(439,0,o),
(465,12,o),
(469,37,cs),
(568,602,ls)
);
}
);
width = 545;
}
);
metricLeft = N;
metricRight = N;
unicode = 85;
},
{
glyphname = V;
lastChange = "2022-03-01 14:50:20 +0000";
layers = (
{
layerId = m01;
shapes = (
{
closed = 1;
nodes = (
(204,0,o),
(208,11,o),
(215,25,cs),
(508,618,ls),
(518,638,o),
(506,650,o),
(491,650,cs),
(472,650,o),
(465,642,o),
(456,625,cs),
(166,39,l),
(185,0,l)
);
},
{
closed = 1;
nodes = (
(175,626,ls),
(174,636,o),
(170,650,o),
(148,650,c),
(130,650,o),
(124,639,o),
(125,624,cs),
(158,28,ls),
(159,15,o),
(167,0,o),
(186,0,c),
(207,37,l)
);
}
);
width = 477;
},
{
layerId = m002;
shapes = (
{
closed = 1;
nodes = (
(244,-2,o),
(256,15,o),
(266,34,cs),
(542,591,ls),
(559,625,o),
(537,650,o),
(505,650,cs),
(476,650,o),
(457,638,o),
(447,618,cs),
(171,59,l),
(215,-2,l)
);
},
{
closed = 1;
nodes = (
(230,610,ls),
(229,633,o),
(211,650,o),
(179,650,cs),
(150,650,o),
(131,634,o),
(133,604,cs),
(165,44,ls),
(166,19,o),
(186,-1,o),
(216,-2,c),
(260,64,l)
);
}
);
width = 523;
}
);
metricLeft = N;
metricRight = N;
unicode = 86;
},
{
glyphname = W;
lastChange = "2022-03-01 14:50:20 +0000";
layers = (
{
background = {
shapes = (
{
closed = 1;
nodes = (
(546,0,o),
(550,11,o),
(557,25,cs),
(850,618,ls),
(860,638,o),
(848,650,o),
(833,650,cs),
(814,650,o),
(806,642,o),
(797,625,cs),
(508,39,l),
(527,0,l)
);
},
{
closed = 1;
nodes = (
(517,626,ls),
(516,636,o),
(512,650,o),
(490,650,c),
(472,650,o),
(466,639,o),
(467,624,cs),
(500,28,ls),
(501,15,o),
(509,0,o),
(528,0,c),
(549,37,l)
);
}
);
};
layerId = m01;
shapes = (
{
closed = 1;
nodes = (
(545,0,o),
(550,11,o),
(557,25,cs),
(849,618,ls),
(854,627,o),
(855,635,o),
(852,640,cs),
(848,647,o),
(840,650,o),
(833,650,cs),
(825,650,o),
(819,649,o),
(815,646,cs),
(805,640,o),
(801,632,o),
(797,625,cs),
(504,31,l),
(527,0,l)
);
},
{
closed = 1;
nodes = (
(175,626,ls),
(174,636,o),
(170,650,o),
(148,650,c),
(130,650,o),
(124,639,o),
(125,624,cs),
(158,28,ls),
(159,12,o),
(170,0,o),
(191,0,c),
(207,37,l)
);
},
{
closed = 1;
nodes = (
(204,0,o),
(211,15,o),
(217,26,cs),
(508,619,l),
(486,650,l),
(470,650,o),
(460,633,o),
(456,626,cs),
(168,40,l),
(190,0,l)
);
},
{
closed = 1;
nodes = (
(516,626,ls),
(515,636,o),
(510,650,o),
(485,650,c),
(467,617,l),
(501,19,ls),
(502,6,o),
(510,0,o),
(528,0,c),
(551,30,l)
);
}
);
width = 818;
},
{
layerId = m002;
shapes = (
{
closed = 1;
nodes = (
(607,0,o),
(618,12,o),
(629,33,cs),
(921,591,ls),
(928,604,o),
(927,616,o),
(921,628,cs),
(915,644,o),
(897,650,o),
(882,650,cs),
(868,650,o),
(855,646,o),
(847,640,cs),
(837,633,o),
(830,625,o),
(825,615,cs),
(542,74,l),
(579,0,l)
);
},
{
closed = 1;
nodes = (
(230,610,ls),
(228,633,o),
(212,650,o),
(180,650,cs),
(151,650,o),
(131,634,o),
(133,604,cs),
(179,44,ls),
(181,15,o),
(200,0,o),
(234,0,c),
(273,75,l)
);
},
{
closed = 1;
nodes = (
(264,0,o),
(271,14,o),
(281,34,cs),
(566,578,l),
(527,650,l),
(493,650,o),
(484,631,o),
(478,619,cs),
(195,75,l),
(233,0,l)
);
},
{
closed = 1;
nodes = (
(580,610,ls),
(578,635,o),
(561,650,o),
(526,650,c),
(485,582,l),
(530,32,ls),
(531,15,o),
(559,0,o),
(578,0,c),
(624,74,l)
);
}
);
width = 902;
}
);
metricLeft = N;
metricRight = N;
unicode = 87;
},
{
glyphname = X;
lastChange = "2022-03-01 14:50:20 +0000";
layers = (
{
layerId = m01;
shapes = (
{
closed = 1;
nodes = (
(512,624,o),
(510,638,o),
(501,645,cs),
(491,653,o),
(472,652,o),
(461,637,cs),
(24,38,ls),
(15,26,o),
(17,13,o),
(26,6,cs),
(37,-3,o),
(56,-4,o),
(67,11,cs),
(501,609,ls)
);
},
{
closed = 1;
nodes = (
(171,650,o),
(152,654,o),
(140,649,cs),
(128,645,o),
(123,631,o),
(130,613,cs),
(352,19,ls),
(359,0,o),
(379,-3,o),
(392,3,cs),
(402,8,o),
(408,20,o),
(402,35,cs),
(178,631,ls)
);
}
);
width = 477;
},
{
layerId = m002;
shapes = (
{
closed = 1;
nodes = (
(544,602,o),
(540,623,o),
(522,639,cs),
(504,655,o),
(468,656,o),
(450,631,cs),
(45,69,ls),
(30,48,o),
(30,29,o),
(48,13,cs),
(67,-3,o),
(107,-8,o),
(124,16,cs),
(527,578,ls)
);
},
{
closed = 1;
nodes = (
(217,651,o),
(185,654,o),
(162,647,cs),
(136,637,o),
(127,617,o),
(139,586,cs),
(347,28,ls),
(358,-1,o),
(396,-6,o),
(419,6,cs),
(440,17,o),
(450,36,o),
(440,61,cs),
(228,623,ls)
);
}
);
width = 520;
}
);
metricLeft = N;
metricRight = N;
unicode = 88;
},
{
glyphname = Y;
lastChange = "2022-03-01 14:50:25 +0000";
layers = (
{
layerId = m01;
shapes = (
{
closed = 1;
nodes = (
(506,609,ls),
(511,616,o),
(514,623,o),
(514,629,cs),
(514,635,o),
(511,641,o),
(505,645,cs),
(498,650,o),
(491,651,o),
(485,650,cs),
(478,648,o),
(470,643,o),
(465,637,cs),
(241,333,l),
(272,291,l)
);
},
{
closed = 1;
nodes = (
(249,350,l),
(192,27,ls),
(189,12,o),
(197,0,o),
(215,0,cs),
(237,0,o),
(241,15,o),
(243,25,cs),
(300,350,l)
);
},
{
closed = 1;
nodes = (
(285,349,l),
(179,630,ls),
(176,638,o),
(169,645,o),
(162,648,cs),
(157,651,o),
(150,651,o),
(142,648,cs),
(134,645,o),
(129,640,o),
(128,634,cs),
(127,628,o),
(129,621,o),
(132,613,cs),
(248,307,l)
);
}
);
width = 478;
},
{
layerId = m002;
shapes = (
{
closed = 1;
nodes = (
(540,578,ls),
(548,589,o),
(552,599,o),
(552,611,cs),
(552,623,o),
(546,634,o),
(535,642,cs),
(523,653,o),
(505,653,o),
(495,653,c),
(484,650,o),
(469,642,o),
(462,632,cs),
(254,350,l),
(298,254,l)
);
},
{
closed = 1;
nodes = (
(253,371,l),
(197,49,ls),
(192,21,o),
(213,-2,o),
(245,-2,cs),
(279,-2,o),
(293,19,o),
(297,40,cs),
(354,371,l)
);
},
{
closed = 1;
nodes = (
(339,340,l),
(231,621,ls),
(227,632,o),
(218,642,o),
(205,648,cs),
(196,653,o),
(178,654,o),
(165,649,cs),
(150,643,o),
(139,632,o),
(136,619,cs),
(134,609,o),
(138,599,o),
(142,588,cs),
(269,266,l)
);
}
);
width = 527;
}
);
metricLeft = T;
metricRight = T;
unicode = 89;
},
{
glyphname = Z;
lastChange = "2022-03-01 14:50:20 +0000";
layers = (
{
layerId = m01;
shapes = (
{
closed = 1;
nodes = (
(512,619,o),
(513,630,o),
(509,638,cs),
(504,645,o),
(493,650,o),
(482,650,cs),
(475,650,o),
(467,644,o),
(462,638,c),
(24,39,ls),
(19,32,o),
(16,22,o),
(21,13,cs),
(25,6,o),
(35,0,o),
(52,0,cs),
(58,0,o),
(66,7,o),
(69,11,cs),
(504,608,ls)
);
},
{
closed = 1;
nodes = (
(378,0,ls),
(398,0,o),
(404,13,o),
(404,25,cs),
(404,37,o),
(398,50,o),
(378,50,cs),
(45,50,l),
(45,0,l)
);
},
{
closed = 1;
nodes = (
(486,650,l),
(151,650,ls),
(131,650,o),
(125,637,o),
(125,625,cs),
(125,613,o),
(131,600,o),
(151,600,cs),
(486,600,l)
);
}
);
width = 477;
},
{
layerId = m002;
shapes = (
{
closed = 1;
nodes = (
(552,595,o),
(555,614,o),
(547,629,cs),
(539,644,o),
(522,653,o),
(498,653,cs),
(484,653,o),
(468,644,o),
(460,633,cs),
(44,70,ls),
(34,57,o),
(29,39,o),
(37,23,cs),
(43,11,o),
(61,0,o),
(90,0,cs),
(106,0,o),
(121,10,o),
(126,17,cs),
(538,577,ls)
);
},
{
closed = 1;
nodes = (
(400,0,ls),
(432,0,o),
(450,19,o),
(450,43,cs),
(450,69,o),
(430,90,o),
(400,90,cs),
(87,90,l),
(87,0,l)
);
},
{
closed = 1;
nodes = (
(500,653,l),
(184,653,ls),
(154,653,o),
(134,633,o),
(134,607,cs),
(134,583,o),
(152,563,o),
(184,563,cs),
(500,563,l)
);
}
);
width = 527;
}
);
metricLeft = N;
metricRight = N;
unicode = 90;
},
{
glyphname = a;
lastChange = "2022-03-01 15:07:12 +0000";
layers = (
{
layerId = m01;
shapes = (
{
closed = 1;
nodes = (
(315,301,l),
(287,254,o),
(254,205,o),
(213,153,cs),
(152,77,o),
(115,47,o),
(96,47,cs),
(82,47,o),
(82,62,o),
(82,78,cs),
(82,116,o),
(100,206,o),
(126,245,cs),
(156,290,o),
(207,300,o),
(241,300,cs),
(248,300,o),
(316,300,o),
(335,300,c),
(335,350,l),
(323,350,o),
(261,350,o),
(241,350,cs),
(184,350,o),
(125,333,o),
(87,276,cs),
(55,228,o),
(32,131,o),
(32,73,cs),
(32,22,o),
(52,-4,o),
(85,-4,cs),
(143,-4,o),
(195,50,o),
(255,126,cs),
(285,163,o),
(341,236,o),
(357,291,cs),
(360,301,l)
);
},
{
closed = 1;
nodes = (
(378,329,o),
(378,337,o),
(375,342,cs),
(372,347,o),
(368,350,o),
(361,350,cs),
(315,350,l),
(315,261,l),
(273,23,ls),
(272,15,o),
(273,0,o),
(295,0,cs),
(321,0,o),
(323,18,o),
(324,23,cs),
(376,316,ls)
);
}
);
width = 395;
},
{
layerId = m002;
shapes = (
{
closed = 1;
nodes = (
(318,308,l),
(292,262,o),
(265,215,o),
(227,167,cs),
(174,101,o),
(148,84,o),
(143,84,cs),
(138,84,o),
(137,97,o),
(137,102,cs),
(137,134,o),
(152,194,o),
(171,224,cs),
(193,257,o),
(226,263,o),
(252,263,cs),
(262,263,o),
(299,263,o),
(338,263,c),
(338,350,l),
(307,350,o),
(269,350,o),
(252,350,cs),
(196,350,o),
(134,333,o),
(95,276,cs),
(64,228,o),
(43,139,o),
(43,85,cs),
(43,22,o),
(61,-4,o),
(100,-4,cs),
(164,-4,o),
(230,51,o),
(284,118,cs),
(311,152,o),
(372,257,o),
(378,272,c),
(386,308,l)
);
},
{
closed = 1;
nodes = (
(398,310,o),
(397,320,o),
(394,329,cs),
(388,342,o),
(373,350,o),
(357,350,cs),
(292,350,l),
(292,252,l),
(255,44,ls),
(251,21,o),
(267,0,o),
(299,0,cs),
(335,0,o),
(347,22,o),
(350,37,cs),
(395,295,ls)
);
}
);
width = 428;
}
);
metricLeft = n;
metricRight = n;
unicode = 97;
},
{
glyphname = b;
lastChange = "2022-03-01 15:07:17 +0000";
layers = (
{
layerId = m01;
shapes = (
{
closed = 1;
nodes = (
(72,0,o),
(134,0,o),
(154,0,cs),
(211,0,o),
(270,17,o),
(308,74,cs),
(340,122,o),
(363,219,o),
(363,277,cs),
(363,328,o),
(343,354,o),
(310,354,cs),
(252,354,o),
(198,300,o),
(161,253,cs),
(122,204,o),
(85,152,o),
(60,106,c),
(60,49,l),
(80,49,l),
(108,96,o),
(141,145,o),
(196,214,cs),
(243,273,o),
(280,303,o),
(295,303,cs),
(313,303,o),
(314,289,o),
(314,273,cs),
(314,243,o),
(295,144,o),
(269,105,cs),
(239,60,o),
(193,50,o),
(154,50,cs),
(147,50,o),
(79,50,o),
(71,50,c),
(60,50,l),
(60,0,l)
);
},
{
closed = 1;
nodes = (
(80,89,l),
(174,621,ls),
(177,640,o),
(167,650,o),
(155,650,cs),
(142,650,o),
(128,641,o),
(124,621,cs),
(18,22,ls),
(16,10,o),
(22,0,o),
(34,0,c),
(80,0,l)
);
}
);
width = 392;
},
{
layerId = m002;
shapes = (
{
closed = 1;
nodes = (
(122,0,o),
(176,0,o),
(194,0,cs),
(249,0,o),
(313,16,o),
(350,74,cs),
(381,122,o),
(403,211,o),
(403,265,cs),
(403,331,o),
(375,354,o),
(334,354,cs),
(273,354,o),
(211,291,o),
(180,254,cs),
(142,208,o),
(108,153,o),
(86,112,c),
(86,42,l),
(127,42,l),
(153,88,o),
(189,148,o),
(236,203,cs),
(276,250,o),
(296,266,o),
(303,266,cs),
(308,266,o),
(309,255,o),
(309,246,cs),
(309,222,o),
(296,155,o),
(274,125,cs),
(251,94,o),
(225,87,o),
(194,87,cs),
(188,87,o),
(128,87,o),
(121,87,cs),
(86,87,l),
(86,0,l)
);
},
{
closed = 1;
nodes = (
(142,101,l),
(230,599,ls),
(236,632,o),
(211,650,o),
(184,650,cs),
(164,650,o),
(136,640,o),
(130,607,cs),
(31,44,ls),
(26,18,o),
(44,0,o),
(71,0,cs),
(139,0,l)
);
}
);
width = 432;
}
);
metricLeft = n;
metricRight = o;
unicode = 98;
},
{
glyphname = c;
lastChange = "2022-02-27 11:45:11 +0000";
layers = (
{
layerId = m01;
shapes = (
{
closed = 1;
nodes = (
(120,-4,o),
(173,32,o),
(216,84,cs),
(228,99,o),
(242,117,o),
(253,132,cs),
(259,141,o),
(261,149,o),
(261,155,cs),
(261,168,o),
(249,175,o),
(240,175,cs),
(231,175,o),
(221,171,o),
(213,161,cs),
(204,150,o),
(192,134,o),
(182,121,cs),
(147,77,o),
(114,47,o),
(94,47,cs),
(83,47,o),
(77,59,o),
(77,78,cs),
(77,116,o),
(95,206,o),
(121,245,cs),
(151,290,o),
(202,300,o),
(271,300,cs),
(284,300,o),
(293,314,o),
(293,326,cs),
(293,337,o),
(284,350,o),
(271,350,cs),
(179,350,o),
(120,333,o),
(82,276,cs),
(50,228,o),
(27,131,o),
(27,73,cs),
(27,22,o),
(50,-4,o),
(82,-4,cs)
);
}
);
width = 309;
},
{
layerId = m002;
shapes = (
{
closed = 1;
nodes = (
(150,-4,o),
(203,32,o),
(243,81,cs),
(256,96,o),
(269,114,o),
(278,126,cs),
(285,137,o),
(289,148,o),
(289,157,cs),
(289,182,o),
(266,197,o),
(245,197,cs),
(232,197,o),
(216,189,o),
(204,173,cs),
(195,162,o),
(186,150,o),
(178,139,cs),
(149,102,o),
(137,85,o),
(127,85,cs),
(119,85,o),
(119,99,o),
(119,104,cs),
(119,136,o),
(136,197,o),
(156,227,cs),
(177,260,o),
(215,265,o),
(273,265,cs),
(298,265,o),
(317,285,o),
(317,308,cs),
(317,329,o),
(298,350,o),
(273,350,cs),
(187,350,o),
(124,334,o),
(85,276,cs),
(54,228,o),
(33,139,o),
(33,85,cs),
(33,23,o),
(68,-4,o),
(106,-4,cs)
);
}
);
width = 335;
}
);
metricLeft = o;
metricRight = o;
unicode = 99;
},
{
glyphname = d;
lastChange = "2022-02-27 09:54:49 +0000";
layers = (
{
layerId = m01;
shapes = (
{
closed = 1;
nodes = (
(365,59,o),
(357,48,o),
(350,48,cs),
(330,48,o),
(338,124,o),
(339,132,cs),
(426,623,ls),
(429,642,o),
(419,650,o),
(406,650,cs),
(393,650,o),
(378,640,o),
(375,623,cs),
(290,146,ls),
(277,78,o),
(281,0,o),
(351,0,cs),
(384,0,o),
(397,17,o),
(418,50,cs),
(437,79,o),
(440,86,o),
(440,94,cs),
(440,109,o),
(428,116,o),
(417,116,cs),
(405,116,o),
(397,108,o),
(394,104,cs),
(379,81,ls)
);
},
{
closed = 1;
nodes = (
(310,300,l),
(281,253,o),
(248,204,o),
(210,156,cs),
(148,76,o),
(110,46,o),
(91,46,cs),
(77,46,o),
(77,61,o),
(77,77,cs),
(77,115,o),
(95,205,o),
(121,244,cs),
(151,289,o),
(202,299,o),
(236,299,cs),
(243,299,o),
(311,299,o),
(319,299,c),
(330,299,l),
(330,349,l),
(318,349,o),
(256,349,o),
(236,349,cs),
(179,349,o),
(120,332,o),
(82,275,cs),
(50,227,o),
(27,130,o),
(27,72,cs),
(27,21,o),
(47,-4,o),
(80,-4,cs),
(138,-4,o),
(190,49,o),
(238,109,cs),
(280,162,o),
(331,235,o),
(351,289,cs),
(355,300,l)
);
}
);
width = 465;
},
{
layerId = m002;
shapes = (
{
closed = 1;
nodes = (
(395,104,o),
(388,99,o),
(380,99,cs),
(372,99,o),
(370,113,o),
(376,146,cs),
(457,602,ls),
(463,635,o),
(441,650,o),
(413,650,cs),
(390,650,o),
(361,637,o),
(356,606,cs),
(291,238,ls),
(287,217,o),
(252,0,o),
(371,0,cs),
(411,0,o),
(437,21,o),
(467,57,cs),
(487,81,o),
(488,100,o),
(488,113,cs),
(488,140,o),
(468,153,o),
(446,153,cs),
(434,153,o),
(422,142,o),
(413,129,cs),
(398,108,ls)
);
},
{
closed = 1;
nodes = (
(308,307,l),
(280,261,o),
(248,205,o),
(213,162,cs),
(170,109,o),
(141,84,o),
(133,84,cs),
(127,84,o),
(127,101,o),
(127,106,cs),
(127,132,o),
(142,197,o),
(162,226,cs),
(184,258,o),
(218,263,o),
(250,263,cs),
(256,263,o),
(316,263,o),
(323,263,cs),
(357,263,l),
(358,350,l),
(335,350,o),
(270,350,o),
(251,350,cs),
(186,350,o),
(125,334,o),
(86,277,cs),
(55,229,o),
(32,138,o),
(32,84,cs),
(32,21,o),
(57,-4,o),
(96,-4,cs),
(159,-4,o),
(218,49,o),
(268,110,cs),
(306,156,o),
(367,239,o),
(376,269,cs),
(387,307,l)
);
}
);
width = 521;
}
);
metricLeft = o;
metricRight = v;
unicode = 100;
},
{
glyphname = e;
lastChange = "2022-02-27 11:47:47 +0000";
layers = (
{
layerId = m01;
shapes = (
{
closed = 1;
nodes = (
(73,115,o),
(135,147,o),
(173,168,cs),
(213,191,o),
(277,230,o),
(288,291,cs),
(295,332,o),
(253,354,o),
(202,354,cs),
(183,354,o),
(134,350,o),
(90,284,cs),
(61,240,o),
(34,167,o),
(30,107,cs),
(23,19,o),
(69,-4,o),
(117,-4,cs),
(190,-4,o),
(228,50,o),
(239,64,cs),
(261,93,o),
(256,106,o),
(246,113,cs),
(235,121,o),
(220,122,o),
(201,97,cs),
(190,84,o),
(164,45,o),
(118,45,cs),
(86,45,o),
(79,64,o),
(81,98,cs),
(84,142,o),
(102,216,o),
(131,259,cs),
(155,294,o),
(183,303,o),
(208,303,cs),
(226,303,o),
(239,296,o),
(237,288,cs),
(233,267,o),
(194,239,o),
(145,210,cs),
(120,196,o),
(92,181,o),
(70,169,c),
(58,108,l)
);
}
);
width = 311;
},
{
layerId = m002;
shapes = (
{
closed = 1;
nodes = (
(138,104,o),
(194,132,o),
(226,151,cs),
(262,171,o),
(321,216,o),
(331,271,cs),
(340,321,o),
(290,354,o),
(228,354,cs),
(203,354,o),
(134,354,o),
(88,286,cs),
(61,243,o),
(39,173,o),
(35,117,cs),
(28,23,o),
(98,-5,o),
(150,-5,cs),
(228,-5,o),
(277,47,o),
(285,58,cs),
(310,90,o),
(298,117,o),
(284,128,cs),
(264,142,o),
(238,135,o),
(217,110,cs),
(205,96,o),
(182,80,o),
(157,80,cs),
(136,80,o),
(134,102,o),
(134,118,cs),
(134,155,o),
(142,205,o),
(164,239,cs),
(181,265,o),
(192,274,o),
(203,280,cs),
(213,285,o),
(235,291,o),
(241,276,cs),
(247,261,o),
(224,240,o),
(183,216,cs),
(156,200,o),
(110,175,o),
(92,166,c),
(79,77,l)
);
}
);
width = 355;
}
);
metricLeft = o;
metricRight = o;
unicode = 101;
},
{
glyphname = f;
lastChange = "2022-02-27 09:38:10 +0000";
layers = (
{
layerId = m01;
shapes = (
{
closed = 1;
nodes = (
(214,558,o),
(243,600,o),
(276,600,cs),
(370,600,ls),
(387,600,o),
(395,614,o),
(395,625,cs),
(395,635,o),
(387,650,o),
(370,650,cs),
(276,650,ls),
(226,650,o),
(174,616,o),
(158,527,cs),
(70,28,ls),
(68,16,o),
(77,0,o),
(95,0,cs),
(112,0,o),
(119,15,o),
(121,27,cs),
(207,518,ls)
);
},
{
closed = 1;
nodes = (
(267,305,o),
(273,316,o),
(273,328,cs),
(273,340,o),
(267,350,o),
(247,350,cs),
(53,350,ls),
(33,350,o),
(27,340,o),
(27,328,cs),
(27,316,o),
(33,305,o),
(53,305,cs),
(247,305,ls)
);
}
);
width = 292;
},
{
layerId = m002;
shapes = (
{
closed = 1;
nodes = (
(254,534,o),
(270,560,o),
(287,560,cs),
(375,560,ls),
(404,560,o),
(424,584,o),
(424,607,cs),
(424,629,o),
(404,650,o),
(375,650,cs),
(287,650,ls),
(229,650,o),
(167,614,o),
(150,519,cs),
(67,49,ls),
(63,26,o),
(83,-2,o),
(117,-2,cs),
(144,-2,o),
(163,18,o),
(167,42,cs),
(248,502,ls)
);
},
{
closed = 1;
nodes = (
(287,265,o),
(306,281,o),
(306,307,cs),
(306,331,o),
(289,350,o),
(257,350,cs),
(74,350,ls),
(43,350,o),
(25,331,o),
(25,307,cs),
(25,283,o),
(43,265,o),
(74,265,cs),
(257,265,ls)
);
}
);
width = 323;
}
);
unicode = 102;
},
{
glyphname = g;
lastChange = "2022-03-01 15:07:17 +0000";
layers = (
{
layerId = m01;
shapes = (
{
closed = 1;
nodes = (
(376,343,o),
(365,350,o),
(348,350,c),
(323,350,l),
(299,198,l),
(264,1,ls),
(252,-67,o),
(245,-138,o),
(216,-185,cs),
(198,-215,o),
(171,-236,o),
(125,-241,cs),
(102,-244,o),
(10,-250,o),
(-5,-250,cs),
(-26,-250,o),
(-39,-262,o),
(-39,-276,cs),
(-39,-291,o),
(-26,-300,o),
(-1,-300,cs),
(17,-300,o),
(106,-295,o),
(139,-290,cs),
(193,-282,o),
(233,-254,o),
(258,-212,cs),
(291,-159,o),
(300,-83,o),
(315,1,cs),
(373,326,ls)
);
},
{
closed = 1;
nodes = (
(310,301,l),
(281,254,o),
(248,205,o),
(210,157,cs),
(148,77,o),
(110,47,o),
(91,47,cs),
(77,47,o),
(77,62,o),
(77,78,cs),
(77,116,o),
(95,206,o),
(121,245,cs),
(151,290,o),
(202,300,o),
(236,300,cs),
(243,300,o),
(311,300,o),
(319,300,c),
(330,300,l),
(330,302,o),
(330,347,o),
(330,350,c),
(318,350,o),
(256,350,o),
(236,350,cs),
(179,350,o),
(120,333,o),
(82,276,cs),
(50,228,o),
(27,131,o),
(27,73,cs),
(27,22,o),
(47,-4,o),
(80,-4,cs),
(142,-4,o),
(190,50,o),
(224,93,cs),
(280,163,o),
(328,240,o),
(351,292,cs),
(355,301,l)
);
}
);
width = 390;
},
{
layerId = m002;
shapes = (
{
closed = 1;
nodes = (
(415,335,o),
(389,350,o),
(362,350,cs),
(317,350,l),
(291,192,l),
(258,6,ls),
(247,-58,o),
(241,-122,o),
(217,-161,cs),
(201,-187,o),
(185,-199,o),
(150,-203,cs),
(128,-206,o),
(39,-209,o),
(26,-209,cs),
(-6,-209,o),
(-31,-229,o),
(-31,-255,cs),
(-31,-279,o),
(-10,-300,o),
(30,-300,cs),
(48,-300,o),
(138,-294,o),
(170,-289,cs),
(228,-281,o),
(273,-253,o),
(299,-210,cs),
(333,-154,o),
(342,-80,o),
(356,-2,cs),
(411,305,l)
);
},
{
closed = 1;
nodes = (
(311,308,l),
(283,262,o),
(257,217,o),
(223,173,cs),
(187,127,o),
(144,84,o),
(134,84,cs),
(129,84,o),
(128,99,o),
(128,108,cs),
(128,123,o),
(143,197,o),
(165,228,cs),
(187,260,o),
(219,263,o),
(256,263,cs),
(262,263,o),
(322,263,o),
(329,263,cs),
(363,263,l),
(363,288,o),
(363,328,o),
(363,350,c),
(340,350,o),
(275,350,o),
(256,350,cs),
(200,350,o),
(128,336,o),
(89,279,cs),
(58,231,o),
(34,151,o),
(34,85,cs),
(34,22,o),
(67,-4,o),
(106,-4,cs),
(174,-4,o),
(226,54,o),
(256,92,cs),
(307,156,o),
(345,228,o),
(372,271,cs),
(395,308,l)
);
}
);
width = 442;
}
);
metricLeft = o;
metricRight = n;
unicode = 103;
},
{
glyphname = h;
lastChange = "2022-03-01 15:07:17 +0000";
layers = (
{
layerId = m01;
shapes = (
{
closed = 1;
nodes = (
(178,641,o),
(167,650,o),
(154,650,cs),
(141,650,o),
(127,641,o),
(124,623,cs),
(18,23,ls),
(15,8,o),
(26,0,o),
(39,0,cs),
(52,0,o),
(66,7,o),
(69,23,cs),
(175,623,ls)
);
},
{
closed = 1;
nodes = (
(374,291,o),
(363,354,o),
(306,354,cs),
(212,354,o),
(116,185,o),
(58,98,c),
(66,14,l),
(135,129,o),
(247,305,o),
(298,305,cs),
(323,305,o),
(317,261,o),
(312,234,cs),
(273,23,ls),
(272,15,o),
(273,0,o),
(295,0,c),
(321,0,o),
(323,18,o),
(324,23,cs),
(363,234,ls)
);
}
);
width = 397;
},
{
layerId = m002;
shapes = (
{
closed = 1;
nodes = (
(237,633,o),
(212,653,o),
(185,653,cs),
(161,653,o),
(136,637,o),
(131,609,cs),
(32,45,ls),
(27,17,o),
(49,-2,o),
(76,-2,cs),
(100,-2,o),
(127,11,o),
(132,37,cs),
(231,601,ls)
);
},
{
closed = 1;
nodes = (
(421,287,o),
(397,355,o),
(329,355,cs),
(225,355,o),
(155,243,o),
(106,171,c),
(131,33,l),
(187,141,o),
(284,271,o),
(306,271,cs),
(318,271,o),
(314,256,o),
(309,231,cs),
(275,45,ls),
(271,21,o),
(287,-1,o),
(319,-1,cs),
(355,-1,o),
(372,22,o),
(375,37,cs),
(409,223,ls)
);
}
);
width = 455;
}
);
metricLeft = n;
metricRight = n;
unicode = 104;
},
{
glyphname = i;
lastChange = "2022-03-01 15:07:12 +0000";
layers = (
{
layerId = m01;
shapes = (
{
closed = 1;
nodes = (
(128,340,o),
(116,350,o),
(104,350,cs),
(91,350,o),
(76,341,o),
(73,323,cs),
(21,28,ls),
(18,9,o),
(29,0,o),
(42,0,cs),
(54,0,o),
(69,10,o),
(72,28,cs),
(124,320,ls)
);
},
{
closed = 1;
nodes = (
(139,441,o),
(152,454,o),
(152,468,cs),
(152,483,o),
(138,494,o),
(124,494,cs),
(108,494,o),
(97,481,o),
(97,468,cs),
(97,454,o),
(109,441,o),
(124,441,cs)
);
}
);
width = 145;
},
{
layerId = m002;
shapes = (
{
closed = 1;
nodes = (
(183,327,o),
(156,350,o),
(131,350,cs),
(107,350,o),
(82,332,o),
(77,305,cs),
(32,49,ls),
(27,19,o),
(50,0,o),
(76,0,cs),
(98,0,o),
(127,10,o),
(132,37,cs),
(177,294,ls)
);
},
{
closed = 1;
nodes = (
(186,417,o),
(209,439,o),
(209,466,cs),
(209,495,o),
(185,515,o),
(159,515,cs),
(132,515,o),
(111,493,o),
(111,466,cs),
(111,439,o),
(133,417,o),
(159,417,cs)
);
}
);
width = 212;
}
);
metricLeft = n;
metricRight = n;
unicode = 105;
},
{
glyphname = j;
lastChange = "2022-03-01 15:06:46 +0000";
layers = (
{
layerId = m01;
shapes = (
{
closed = 1;
nodes = (
(126,338,o),
(113,350,o),
(99,350,cs),
(87,350,o),
(73,341,o),
(69,320,cs),
(14,-3,ls),
(2,-71,o),
(-6,-142,o),
(-34,-189,cs),
(-52,-219,o),
(-79,-240,o),
(-127,-246,cs),
(-148,-248,o),
(-231,-250,o),
(-250,-250,cs),
(-276,-250,o),
(-289,-263,o),
(-289,-277,cs),
(-289,-292,o),
(-275,-300,o),
(-251,-300,cs),
(-232,-300,o),
(-144,-299,o),
(-111,-294,cs),
(-57,-286,o),
(-18,-257,o),
(7,-217,cs),
(41,-163,o),
(50,-87,o),
(65,-3,cs),
(122,317,ls)
);
},
{
closed = 1;
nodes = (
(137,440,o),
(150,453,o),
(150,468,cs),
(150,484,o),
(137,495,o),
(122,495,cs),
(107,495,o),
(95,484,o),
(95,468,cs),
(95,453,o),
(107,440,o),
(122,440,cs)
);
}
);
width = 143;
},
{
layerId = m002;
shapes = (
{
closed = 1;
nodes = (
(183,330,o),
(157,350,o),
(130,350,cs),
(108,350,o),
(82,337,o),
(77,306,cs),
(25,3,ls),
(14,-62,o),
(7,-126,o),
(-16,-165,cs),
(-32,-190,o),
(-48,-203,o),
(-85,-208,cs),
(-104,-210,o),
(-181,-209,o),
(-198,-209,cs),
(-235,-209,o),
(-260,-231,o),
(-260,-257,cs),
(-260,-282,o),
(-238,-300,o),
(-199,-300,cs),
(-180,-300,o),
(-95,-300,o),
(-63,-295,cs),
(-5,-285,o),
(39,-256,o),
(65,-215,cs),
(100,-158,o),
(109,-83,o),
(123,-5,cs),
(177,295,ls)
);
},
{
closed = 1;
nodes = (
(176,417,o),
(200,439,o),
(200,467,cs),
(200,496,o),
(176,516,o),
(150,516,cs),
(124,516,o),
(101,496,o),
(101,467,cs),
(101,439,o),
(124,417,o),
(150,417,cs)
);
}
);
width = 210;
}
);
metricRight = n;
unicode = 106;
},
{
glyphname = k;
lastChange = "2022-03-01 15:07:17 +0000";
layers = (
{
layerId = m01;
shapes = (
{
closed = 1;
nodes = (
(179,642,o),
(167,650,o),
(151,650,cs),
(136,650,o),
(127,639,o),
(124,622,cs),
(19,26,ls),
(16,10,o),
(26,0,o),
(39,0,cs),
(55,0,o),
(67,7,o),
(70,26,cs),
(175,621,ls)
);
},
{
closed = 1;
nodes = (
(152,174,l),
(261,18,ls),
(268,8,o),
(278,-1,o),
(291,-1,cs),
(301,-1,o),
(311,5,o),
(314,16,cs),
(316,23,o),
(315,31,o),
(308,41,cs),
(216,174,l)
);
},
{
closed = 1;
nodes = (
(82,122,o),
(120,170,o),
(149,210,cs),
(166,234,o),
(190,258,o),
(208,273,cs),
(228,289,o),
(255,304,o),
(268,304,cs),
(284,304,o),
(281,279,o),
(279,271,cs),
(274,245,o),
(256,236,o),
(230,219,cs),
(210,205,o),
(181,189,o),
(152,174,c),
(209,146,l),
(228,158,o),
(246,169,o),
(263,181,cs),
(296,205,o),
(321,228,o),
(329,272,cs),
(335,310,o),
(327,354,o),
(278,354,cs),
(247,354,o),
(210,337,o),
(178,312,cs),
(151,291,o),
(96,225,o),
(79,201,c),
(51,39,l)
);
}
);
width = 381;
},
{
layerId = m002;
shapes = (
{
closed = 1;
nodes = (
(234,633,o),
(211,653,o),
(181,653,cs),
(158,653,o),
(135,638,o),
(130,608,cs),
(32,48,ls),
(27,19,o),
(48,-2,o),
(75,-2,cs),
(102,-2,o),
(125,11,o),
(130,40,cs),
(228,599,ls)
);
},
{
closed = 1;
nodes = (
(182,181,l),
(289,25,ls),
(300,9,o),
(318,-2,o),
(336,-2,cs),
(356,-2,o),
(376,11,o),
(380,31,c),
(384,43,o),
(382,55,o),
(372,69,cs),
(296,181,l)
);
},
{
closed = 1;
nodes = (
(140,120,o),
(165,185,o),
(192,218,cs),
(209,238,o),
(227,257,o),
(241,268,cs),
(258,283,o),
(277,288,o),
(290,284,cs),
(297,282,o),
(300,272,o),
(299,266,cs),
(297,256,o),
(282,240,o),
(257,224,cs),
(240,213,o),
(217,198,o),
(182,181,c),
(310,152,l),
(313,154,o),
(299,160,o),
(303,163,cs),
(332,185,o),
(379,221,o),
(388,267,cs),
(396,316,o),
(359,354,o),
(297,354,cs),
(254,354,o),
(213,347,o),
(183,324,cs),
(152,300,o),
(110,249,o),
(99,238,c),
(130,98,l)
);
}
);
width = 416;
}
);
metricLeft = n;
unicode = 107;
},
{
glyphname = l;
lastChange = "2022-03-01 15:07:17 +0000";
layers = (
{
layerId = m01;
shapes = (
{
closed = 1;
nodes = (
(177,640,o),
(164,650,o),
(150,650,cs),
(139,650,o),
(128,644,o),
(125,629,cs),
(19,27,ls),
(16,9,o),
(29,0,o),
(43,0,cs),
(54,0,o),
(65,7,o),
(68,22,cs),
(174,624,ls)
);
}
);
width = 139;
},
{
layerId = m002;
shapes = (
{
closed = 1;
nodes = (
(235,631,o),
(208,650,o),
(180,650,cs),
(158,650,o),
(136,640,o),
(131,612,cs),
(32,50,ls),
(26,15,o),
(55,0,o),
(78,0,cs),
(100,0,o),
(126,15,o),
(131,44,cs),
(229,599,ls)
);
}
);
width = 208;
}
);
metricLeft = n;
metricRight = n;
unicode = 108;
},
{
glyphname = m;
lastChange = "2022-03-01 15:07:17 +0000";
layers = (
{
layerId = m01;
shapes = (
{
closed = 1;
nodes = (
(600,291,o),
(592,354,o),
(531,354,cs),
(440,354,o),
(370,211,o),
(312,124,c),
(305,11,l),
(374,126,o),
(473,305,o),
(524,305,cs),
(549,305,o),
(543,261,o),
(538,234,cs),
(499,23,ls),
(498,15,o),
(499,0,o),
(521,0,c),
(547,0,o),
(549,18,o),
(550,23,cs),
(589,234,ls)
);
},
{
closed = 1;
nodes = (
(125,340,o),
(121,350,o),
(104,350,c),
(85,350,o),
(74,342,o),
(71,323,cs),
(18,23,ls),
(17,15,o),
(18,0,o),
(40,0,cs),
(66,0,o),
(68,18,o),
(69,23,cs),
(122,323,ls)
);
},
{
closed = 1;
nodes = (
(359,290,o),
(351,353,o),
(290,353,cs),
(198,353,o),
(129,208,o),
(71,121,c),
(64,10,l),
(133,125,o),
(232,304,o),
(283,304,cs),
(308,304,o),
(302,260,o),
(297,233,cs),
(258,22,ls),
(257,14,o),
(258,0,o),
(280,0,c),
(306,0,o),
(308,17,o),
(309,22,cs),
(348,233,ls)
);
}
);
width = 623;
},
{
layerId = m002;
shapes = (
{
closed = 1;
nodes = (
(649,289,o),
(637,354,o),
(565,354,cs),
(464,354,o),
(411,270,o),
(361,197,c),
(357,30,l),
(391,77,o),
(508,276,o),
(533,276,cs),
(544,276,o),
(541,256,o),
(537,231,cs),
(504,45,ls),
(500,21,o),
(517,0,o),
(549,0,cs),
(585,0,o),
(601,22,o),
(604,37,cs),
(637,223,ls)
);
},
{
closed = 1;
nodes = (
(183,331,o),
(166,350,o),
(137,350,cs),
(108,350,o),
(86,337,o),
(78,309,c),
(31,43,ls),
(26,15,o),
(44,0,o),
(73,0,cs),
(110,0,o),
(128,23,o),
(131,37,cs),
(178,302,ls)
);
},
{
closed = 1;
nodes = (
(407,288,o),
(385,354,o),
(313,354,cs),
(211,354,o),
(166,256,o),
(116,196,c),
(123,30,l),
(148,74,o),
(260,276,o),
(299,276,cs),
(307,276,o),
(305,255,o),
(300,230,cs),
(266,45,ls),
(261,20,o),
(278,0,o),
(310,0,cs),
(346,0,o),
(358,21,o),
(361,37,cs),
(395,222,ls)
);
}
);
width = 683;
}
);
metricLeft = n;
metricRight = n;
unicode = 109;
},
{
glyphname = n;
lastChange = "2022-03-01 15:01:41 +0000";
layers = (
{
layerId = m01;
shapes = (
{
closed = 1;
nodes = (
(374,291,o),
(366,354,o),
(306,354,cs),
(214,354,o),
(129,206,o),
(71,119,c),
(64,11,l),
(133,126,o),
(247,305,o),
(298,305,cs),
(323,305,o),
(317,261,o),
(312,234,cs),
(273,23,ls),
(272,15,o),
(273,0,o),
(295,0,c),
(321,0,o),
(323,18,o),
(324,23,cs),
(363,234,ls)
);
},
{
closed = 1;
nodes = (
(124,340,o),
(121,350,o),
(104,350,c),
(84,350,o),
(75,341,o),
(71,323,cs),
(18,23,ls),
(17,15,o),
(18,0,o),
(40,0,cs),
(66,0,o),
(68,18,o),
(69,23,cs),
(122,323,ls)
);
}
);
width = 397;
},
{
layerId = m002;
shapes = (
{
closed = 1;
nodes = (
(407,288,o),
(385,354,o),
(314,354,cs),
(213,354,o),
(174,268,o),
(116,196,c),
(123,30,l),
(158,91,o),
(261,276,o),
(299,276,cs),
(307,276,o),
(305,256,o),
(300,231,cs),
(266,44,ls),
(262,20,o),
(277,0,o),
(310,0,cs),
(347,0,o),
(358,20,o),
(362,42,cs),
(395,222,ls)
);
},
{
closed = 1;
nodes = (
(183,332,o),
(167,350,o),
(135,350,cs),
(93,350,o),
(80,320,o),
(78,308,cs),
(31,44,ls),
(27,20,o),
(38,0,o),
(72,0,cs),
(109,0,o),
(128,22,o),
(131,37,cs),
(178,302,ls)
);
}
);
width = 441;
}
);
unicode = 110;
},
{
glyphname = o;
lastChange = "2022-02-27 11:44:57 +0000";
layers = (
{
layerId = m01;
shapes = (
{
closed = 1;
nodes = (
(199,-4,o),
(284,142,o),
(305,260,cs),
(315,319,o),
(270,351,o),
(200,351,cs),
(141,351,o),
(102,314,o),
(78,271,cs),
(60,237,o),
(31,170,o),
(31,95,cs),
(31,20,o),
(56,-4,o),
(96,-4,cs)
);
},
{
closed = 1;
nodes = (
(81,46,o),
(81,77,o),
(81,105,cs),
(81,152,o),
(100,203,o),
(124,251,cs),
(145,287,o),
(167,301,o),
(197,301,cs),
(237,301,o),
(262,287,o),
(255,247,cs),
(244,187,o),
(165,46,o),
(108,46,cs)
);
}
);
width = 332;
},
{
layerId = m002;
shapes = (
{
closed = 1;
nodes = (
(241,-4,o),
(334,152,o),
(351,250,cs),
(362,314,o),
(300,352,o),
(224,352,cs),
(159,352,o),
(108,312,o),
(85,270,cs),
(68,238,o),
(35,174,o),
(35,104,cs),
(35,24,o),
(83,-4,o),
(133,-4,cs)
);
},
{
closed = 1;
nodes = (
(137,83,o),
(134,94,o),
(134,113,cs),
(134,151,o),
(155,189,o),
(176,230,cs),
(192,257,o),
(206,264,o),
(222,264,cs),
(242,264,o),
(254,255,o),
(251,236,cs),
(242,185,o),
(179,83,o),
(143,83,cs)
);
}
);
width = 379;
}
);
unicode = 111;
},
{
glyphname = p;
lastChange = "2022-03-01 15:07:17 +0000";
layers = (
{
layerId = m01;
shapes = (
{
closed = 1;
nodes = (
(126,342,o),
(114,350,o),
(101,350,cs),
(89,350,o),
(75,342,o),
(72,327,cs),
(-35,-276,ls),
(-38,-292,o),
(-26,-300,o),
(-13,-300,cs),
(-1,-300,o),
(13,-292,o),
(16,-277,cs),
(123,327,ls)
);
},
{
closed = 1;
nodes = (
(81,49,l),
(109,96,o),
(142,145,o),
(197,214,cs),
(244,273,o),
(281,303,o),
(296,303,cs),
(314,303,o),
(314,288,o),
(314,272,cs),
(314,235,o),
(296,144,o),
(270,105,cs),
(240,60,o),
(189,50,o),
(155,50,cs),
(148,50,o),
(80,50,o),
(72,50,c),
(61,50,l),
(61,48,o),
(61,3,o),
(61,0,c),
(73,0,o),
(135,0,o),
(155,0,cs),
(212,0,o),
(271,17,o),
(309,74,cs),
(341,122,o),
(364,219,o),
(364,277,cs),
(364,328,o),
(344,354,o),
(311,354,cs),
(253,354,o),
(201,300,o),
(164,253,cs),
(111,187,o),
(60,114,o),
(40,60,cs),
(36,49,l)
);
}
);
width = 393;
},
{
layerId = m002;
shapes = (
{
closed = 1;
nodes = (
(183,327,o),
(160,350,o),
(133,350,cs),
(110,350,o),
(82,335,o),
(78,310,cs),
(-21,-254,ls),
(-26,-283,o),
(-1,-303,o),
(26,-303,cs),
(49,-303,o),
(75,-288,o),
(79,-263,cs),
(178,299,ls)
);
},
{
closed = 1;
nodes = (
(124,42,l),
(156,96,o),
(185,147,o),
(229,201,cs),
(268,249,o),
(295,266,o),
(299,266,cs),
(304,266,o),
(305,256,o),
(305,251,cs),
(305,220,o),
(292,158,o),
(273,129,cs),
(250,95,o),
(220,87,o),
(196,87,cs),
(190,87,o),
(130,87,o),
(123,87,cs),
(89,87,l),
(89,62,o),
(89,22,o),
(89,0,c),
(112,0,o),
(177,0,o),
(196,0,cs),
(243,0,o),
(308,16,o),
(347,73,cs),
(378,121,o),
(400,211,o),
(400,265,cs),
(400,332,o),
(379,354,o),
(336,354,cs),
(277,354,o),
(203,290,o),
(168,243,cs),
(118,176,o),
(73,114,o),
(64,80,cs),
(54,42,l)
);
}
);
width = 429;
}
);
metricLeft = n;
metricRight = o;
unicode = 112;
},
{
glyphname = q;
lastChange = "2022-02-27 12:58:43 +0000";
layers = (
{
layerId = m01;
shapes = (
{
closed = 1;
nodes = (
(310,301,l),
(282,254,o),
(249,205,o),
(208,153,cs),
(147,77,o),
(110,47,o),
(91,47,cs),
(77,47,o),
(77,62,o),
(77,78,cs),
(77,116,o),
(95,206,o),
(121,245,cs),
(151,290,o),
(202,300,o),
(236,300,cs),
(243,300,o),
(311,300,o),
(319,300,c),
(330,300,l),
(330,302,o),
(330,347,o),
(330,350,c),
(318,350,o),
(256,350,o),
(236,350,cs),
(179,350,o),
(120,333,o),
(82,276,cs),
(50,228,o),
(27,131,o),
(27,73,cs),
(27,22,o),
(47,-4,o),
(80,-4,cs),
(138,-4,o),
(190,50,o),
(231,101,cs),
(280,163,o),
(328,240,o),
(351,292,cs),
(355,301,l)
);
},
{
closed = 1;
nodes = (
(252,-294,l),
(360,-205,ls),
(372,-195,o),
(377,-185,o),
(379,-176,cs),
(380,-164,o),
(372,-154,o),
(359,-154,cs),
(351,-153,o),
(340,-157,o),
(328,-167,cs),
(246,-235,l)
);
},
{
closed = 1;
nodes = (
(374,335,o),
(373,350,o),
(351,350,cs),
(326,350,l),
(215,-273,ls),
(212,-291,o),
(222,-300,o),
(234,-300,cs),
(247,-300,o),
(262,-291,o),
(265,-273,cs),
(373,327,ls)
);
}
);
width = 391;
},
{
layerId = m002;
shapes = (
{
closed = 1;
nodes = (
(307,306,l),
(281,261,o),
(255,215,o),
(217,167,cs),
(164,101,o),
(138,87,o),
(133,87,cs),
(128,87,o),
(127,100,o),
(127,105,cs),
(127,137,o),
(141,194,o),
(161,224,cs),
(182,256,o),
(213,263,o),
(241,263,cs),
(247,263,o),
(307,263,o),
(314,263,cs),
(349,263,l),
(349,288,o),
(349,328,o),
(349,350,c),
(326,350,o),
(261,350,o),
(241,350,cs),
(186,350,o),
(123,332,o),
(85,275,cs),
(53,228,o),
(33,139,o),
(33,85,cs),
(33,22,o),
(51,-4,o),
(90,-4,cs),
(153,-4,o),
(220,51,o),
(274,118,cs),
(320,176,o),
(352,223,o),
(365,269,cs),
(376,307,l)
);
},
{
closed = 1;
nodes = (
(288,-284,l),
(382,-205,ls),
(397,-193,o),
(408,-179,o),
(410,-166,cs),
(414,-141,o),
(394,-122,o),
(369,-121,cs),
(356,-120,o),
(340,-125,o),
(324,-138,cs),
(242,-205,l)
);
},
{
closed = 1;
nodes = (
(406,328,o),
(390,350,o),
(357,350,cs),
(312,350,l),
(206,-248,ls),
(200,-280,o),
(221,-300,o),
(248,-300,cs),
(271,-300,o),
(298,-284,o),
(303,-256,cs),
(402,306,ls)
);
}
);
width = 419;
}
);
metricLeft = o;
unicode = 113;
},
{
glyphname = r;
lastChange = "2022-03-01 15:07:17 +0000";
layers = (
{
layerId = m01;
shapes = (
{
closed = 1;
nodes = (
(121,163,o),
(143,194,o),
(172,228,cs),
(190,249,o),
(214,275,o),
(235,289,cs),
(248,298,o),
(255,301,o),
(261,301,cs),
(272,301,o),
(280,271,o),
(281,268,cs),
(286,249,o),
(294,241,o),
(309,241,cs),
(328,241,o),
(332,253,o),
(331,265,cs),
(330,281,o),
(319,329,o),
(303,341,cs),
(298,345,o),
(287,350,o),
(266,350,cs),
(253,350,o),
(233,348,o),
(211,334,cs),
(194,323,o),
(168,300,o),
(141,271,cs),
(125,254,o),
(107,233,o),
(98,216,c),
(76,91,l)
);
},
{
closed = 1;
nodes = (
(124,340,o),
(113,350,o),
(100,350,cs),
(88,350,o),
(74,341,o),
(71,323,cs),
(19,27,ls),
(16,9,o),
(27,0,o),
(40,0,cs),
(53,0,o),
(67,9,o),
(70,27,cs),
(121,320,ls)
);
}
);
width = 336;
},
{
layerId = m002;
shapes = (
{
closed = 1;
nodes = (
(144,109,o),
(190,180,o),
(203,196,cs),
(216,212,o),
(231,228,o),
(242,239,cs),
(251,248,o),
(262,258,o),
(265,258,cs),
(270,258,o),
(273,250,o),
(275,244,cs),
(281,224,o),
(298,211,o),
(321,211,cs),
(345,211,o),
(359,228,o),
(359,256,cs),
(359,274,o),
(349,318,o),
(327,337,cs),
(321,343,o),
(305,351,o),
(277,351,cs),
(264,351,o),
(239,348,o),
(215,333,cs),
(198,322,o),
(172,300,o),
(149,274,cs),
(132,257,o),
(112,233,o),
(105,217,c),
(105,46,l)
);
},
{
closed = 1;
nodes = (
(183,329,o),
(157,351,o),
(131,351,cs),
(109,351,o),
(83,336,o),
(78,309,cs),
(32,48,ls),
(27,18,o),
(52,-1,o),
(78,-1,cs),
(101,-1,o),
(127,14,o),
(132,41,cs),
(177,297,ls)
);
}
);
width = 369;
}
);
metricLeft = n;
unicode = 114;
},
{
glyphname = s;
lastChange = "2022-02-27 11:45:11 +0000";
layers = (
{
layerId = m01;
shapes = (
{
closed = 1;
nodes = (
(181,0,o),
(243,16,o),
(253,80,cs),
(259,117,o),
(245,144,o),
(226,159,cs),
(207,174,o),
(167,200,o),
(135,226,cs),
(120,238,o),
(106,251,o),
(106,263,cs),
(106,281,o),
(141,300,o),
(173,300,cs),
(268,300,ls),
(281,300,o),
(296,308,o),
(296,325,cs),
(296,349,o),
(281,350,o),
(253,350,cs),
(173,350,ls),
(113,350,o),
(58,316,o),
(56,262,cs),
(55,224,o),
(81,202,o),
(109,182,cs),
(136,163,o),
(169,143,o),
(183,132,cs),
(196,121,o),
(206,107,o),
(203,88,cs),
(198,55,o),
(162,50,o),
(121,50,cs),
(46,50,ls),
(30,50,o),
(15,45,o),
(15,25,cs),
(15,6,o),
(30,0,o),
(45,0,cs),
(121,0,ls)
);
}
);
width = 312;
},
{
layerId = m002;
shapes = (
{
closed = 1;
nodes = (
(201,0,o),
(271,18,o),
(283,87,cs),
(290,127,o),
(273,160,o),
(250,178,cs),
(234,191,o),
(199,214,o),
(169,237,cs),
(159,246,o),
(154,250,o),
(154,254,cs),
(154,258,o),
(167,263,o),
(188,263,cs),
(273,263,ls),
(297,263,o),
(322,279,o),
(322,307,cs),
(322,340,o),
(299,351,o),
(259,351,cs),
(188,351,ls),
(124,351,o),
(63,314,o),
(60,253,cs),
(59,208,o),
(90,183,o),
(117,163,cs),
(139,147,o),
(167,132,o),
(180,121,cs),
(189,114,o),
(193,110,o),
(191,101,cs),
(189,88,o),
(176,87,o),
(142,87,cs),
(74,87,ls),
(45,87,o),
(22,72,o),
(22,43,cs),
(22,15,o),
(44,0,o),
(73,0,cs),
(142,0,ls)
);
}
);
width = 340;
}
);
metricLeft = o;
metricRight = o;
unicode = 115;
},
{
glyphname = t;
lastChange = "2022-03-01 15:07:17 +0000";
layers = (
{
layerId = m01;
shapes = (
{
closed = 1;
nodes = (
(270,558,o),
(256,568,o),
(242,568,cs),
(231,568,o),
(221,561,o),
(218,547,cs),
(125,24,ls),
(122,8,o),
(135,0,o),
(148,0,cs),
(161,0,o),
(174,7,o),
(177,23,cs),
(267,540,ls)
);
},
{
closed = 1;
nodes = (
(342,305,o),
(348,316,o),
(348,328,cs),
(348,340,o),
(342,350,o),
(322,350,cs),
(98,350,ls),
(78,350,o),
(72,340,o),
(72,328,cs),
(72,316,o),
(78,305,o),
(98,305,cs),
(322,305,ls)
);
}
);
width = 366;
},
{
layerId = m002;
shapes = (
{
closed = 1;
nodes = (
(323,557,o),
(294,568,o),
(267,568,cs),
(245,568,o),
(222,555,o),
(218,532,cs),
(132,44,ls),
(126,12,o),
(153,0,o),
(179,0,cs),
(204,0,o),
(226,9,o),
(231,35,cs),
(317,523,ls)
);
},
{
closed = 1;
nodes = (
(370,265,o),
(388,283,o),
(388,307,cs),
(388,332,o),
(370,350,o),
(338,350,cs),
(128,350,ls),
(96,350,o),
(78,332,o),
(78,307,cs),
(78,283,o),
(96,265,o),
(128,265,cs),
(338,265,ls)
);
}
);
width = 419;
}
);
metricLeft = n;
metricRight = n;
unicode = 116;
},
{
glyphname = u;
lastChange = "2022-03-01 15:07:17 +0000";
layers = (
{
layerId = m01;
shapes = (
{
closed = 1;
nodes = (
(265,222,o),
(151,45,o),
(100,45,cs),
(75,45,o),
(81,89,o),
(86,116,cs),
(122,321,ls),
(125,340,o),
(114,350,o),
(102,350,cs),
(89,350,o),
(74,341,o),
(71,322,cs),
(35,116,ls),
(25,59,o),
(32,-4,o),
(90,-4,cs),
(179,-4,o),
(285,163,o),
(340,251,c),
(334,337,l)
);
},
{
closed = 1;
nodes = (
(381,340,o),
(377,350,o),
(360,350,c),
(341,350,o),
(330,342,o),
(327,323,cs),
(275,31,ls),
(272,12,o),
(283,-1,o),
(297,-1,cs),
(308,-1,o),
(322,7,o),
(326,31,cs),
(378,323,ls)
);
}
);
width = 396;
},
{
layerId = m002;
shapes = (
{
closed = 1;
nodes = (
(268,231,o),
(177,74,o),
(142,74,cs),
(134,74,o),
(137,94,o),
(141,119,cs),
(173,299,ls),
(179,333,o),
(163,350,o),
(131,350,cs),
(106,350,o),
(84,340,o),
(78,308,cs),
(46,127,ls),
(34,58,o),
(58,-4,o),
(125,-4,cs),
(225,-4,o),
(259,72,o),
(325,153,c),
(315,314,l)
);
},
{
closed = 1;
nodes = (
(414,336,o),
(395,350,o),
(370,350,cs),
(343,350,o),
(313,336,o),
(308,309,cs),
(263,52,ls),
(256,14,o),
(277,0,o),
(307,0,cs),
(329,0,o),
(357,11,o),
(363,44,cs),
(409,305,ls)
);
}
);
width = 440;
}
);
metricLeft = n;
metricRight = n;
unicode = 117;
},
{
glyphname = v;
lastChange = "2022-03-01 15:07:17 +0000";
layers = (
{
layerId = m01;
shapes = (
{
closed = 1;
nodes = (
(126,340,o),
(114,350,o),
(101,350,cs),
(89,350,o),
(74,341,o),
(71,323,cs),
(32,102,ls),
(27,76,o),
(26,49,o),
(33,28,cs),
(40,9,o),
(54,-4,o),
(80,-4,cs),
(104,-4,o),
(130,7,o),
(155,25,cs),
(193,53,o),
(233,100,o),
(259,138,cs),
(293,186,o),
(339,269,o),
(349,288,cs),
(372,333,o),
(362,350,o),
(342,350,cs),
(324,350,o),
(318,337,o),
(306,315,cs),
(288,280,o),
(259,229,o),
(228,183,cs),
(195,133,o),
(160,89,o),
(126,63,cs),
(112,52,o),
(103,47,o),
(94,47,cs),
(86,47,o),
(79,51,o),
(78,60,cs),
(76,69,o),
(80,86,o),
(83,102,cs),
(122,320,ls)
);
},
{
closed = 1;
nodes = (
(330,294,l),
(374,230,ls),
(381,220,o),
(391,211,o),
(404,211,cs),
(414,211,o),
(424,217,o),
(427,228,cs),
(429,235,o),
(428,243,o),
(421,253,cs),
(358,344,l)
);
}
);
width = 428;
},
{
layerId = m002;
shapes = (
{
closed = 1;
nodes = (
(183,331,o),
(160,351,o),
(133,351,cs),
(111,351,o),
(82,335,o),
(77,308,cs),
(43,115,ls),
(39,90,o),
(41,62,o),
(48,39,cs),
(59,12,o),
(80,-4,o),
(113,-4,cs),
(141,-4,o),
(180,4,o),
(214,27,cs),
(254,54,o),
(290,97,o),
(312,129,cs),
(344,173,o),
(392,248,o),
(399,264,c),
(437,336,o),
(393,351,o),
(371,351,cs),
(344,351,o),
(331,338,o),
(315,308,cs),
(307,293,o),
(289,262,o),
(263,223,cs),
(234,179,o),
(226,168,o),
(208,143,cs),
(195,126,o),
(179,106,o),
(169,96,cs),
(161,88,o),
(149,78,o),
(145,78,cs),
(139,78,o),
(142,107,o),
(151,157,cs),
(177,298,ls)
);
},
{
closed = 1;
nodes = (
(333,278,l),
(378,212,ls),
(389,196,o),
(405,184,o),
(426,184,cs),
(445,184,o),
(464,196,o),
(470,214,cs),
(474,229,o),
(471,241,o),
(461,256,cs),
(408,334,l)
);
}
);
width = 483;
}
);
metricLeft = n;
unicode = 118;
},
{
glyphname = w;
lastChange = "2022-03-01 15:07:17 +0000";
layers = (
{
layerId = m01;
shapes = (
{
closed = 1;
nodes = (
(368,340,o),
(356,350,o),
(343,350,c),
(305,270,l),
(274,102,ls),
(269,76,o),
(268,49,o),
(275,28,cs),
(282,9,o),
(296,-4,o),
(322,-4,cs),
(346,-4,o),
(372,7,o),
(397,25,cs),
(435,53,o),
(475,100,o),
(501,138,cs),
(535,186,o),
(581,269,o),
(591,288,cs),
(614,333,o),
(604,350,o),
(584,350,cs),
(566,350,o),
(560,337,o),
(548,315,cs),
(530,280,o),
(501,229,o),
(470,183,cs),
(437,133,o),
(402,89,o),
(368,63,cs),
(354,52,o),
(345,47,o),
(336,47,cs),
(328,47,o),
(321,51,o),
(320,60,cs),
(318,69,o),
(322,86,o),
(325,102,cs),
(364,320,ls)
);
},
{
closed = 1;
nodes = (
(325,350,o),
(318,337,o),
(306,315,cs),
(288,280,o),
(259,229,o),
(228,183,cs),
(195,133,o),
(160,89,o),
(126,63,cs),
(112,52,o),
(103,47,o),
(94,47,cs),
(86,47,o),
(79,51,o),
(78,60,cs),
(76,69,o),
(80,86,o),
(83,102,cs),
(122,320,ls),
(126,340,o),
(114,350,o),
(101,350,cs),
(89,350,o),
(74,341,o),
(71,323,cs),
(32,102,ls),
(27,76,o),
(26,49,o),
(33,28,cs),
(40,9,o),
(54,-4,o),
(80,-4,cs),
(104,-4,o),
(130,7,o),
(155,25,cs),
(193,53,o),
(233,100,o),
(259,138,cs),
(294,189,o),
(322,248,o),
(332,267,c),
(343,350,l)
);
},
{
closed = 1;
nodes = (
(572,294,l),
(616,230,ls),
(623,220,o),
(633,211,o),
(646,211,cs),
(656,211,o),
(666,217,o),
(669,228,cs),
(671,235,o),
(670,243,o),
(663,253,cs),
(600,344,l)
);
}
);
width = 670;
},
{
layerId = m002;
shapes = (
{
closed = 1;
nodes = (
(422,335,o),
(393,350,o),
(371,350,c),
(312,264,l),
(282,115,ls),
(277,90,o),
(279,62,o),
(286,39,cs),
(295,12,o),
(319,-5,o),
(351,-5,cs),
(384,-5,o),
(422,6,o),
(448,24,cs),
(486,50,o),
(520,86,o),
(542,118,cs),
(574,162,o),
(629,244,o),
(637,260,cs),
(673,331,o),
(634,350,o),
(612,350,cs),
(584,350,o),
(572,343,o),
(557,314,cs),
(544,289,o),
(528,263,o),
(502,224,cs),
(473,180,o),
(460,161,o),
(450,147,cs),
(441,135,o),
(418,106,o),
(412,100,cs),
(403,91,o),
(389,77,o),
(383,77,cs),
(378,77,o),
(380,102,o),
(383,117,cs),
(415,298,ls)
);
},
{
closed = 1;
nodes = (
(347,350,o),
(335,344,o),
(314,307,cs),
(304,289,o),
(292,267,o),
(268,230,cs),
(248,199,o),
(232,177,o),
(219,158,cs),
(210,145,o),
(195,126,o),
(177,105,cs),
(164,90,o),
(149,78,o),
(145,78,cs),
(140,78,o),
(143,109,o),
(146,125,cs),
(177,298,ls),
(183,332,o),
(160,350,o),
(134,350,cs),
(107,350,o),
(83,336,o),
(77,304,cs),
(43,113,ls),
(39,88,o),
(41,60,o),
(49,37,cs),
(58,10,o),
(85,-4,o),
(115,-4,cs),
(143,-4,o),
(184,7,o),
(209,24,cs),
(254,54,o),
(289,97,o),
(312,129,cs),
(348,183,o),
(380,243,o),
(384,250,c),
(378,350,l)
);
},
{
closed = 1;
nodes = (
(570,277,l),
(617,210,ls),
(628,194,o),
(646,183,o),
(664,183,cs),
(684,183,o),
(705,196,o),
(710,217,cs),
(712,229,o),
(709,240,o),
(699,255,cs),
(646,333,l)
);
}
);
width = 723;
}
);
metricLeft = n;
metricRight = v;
unicode = 119;
},
{
glyphname = x;
lastChange = "2022-03-01 15:07:17 +0000";
layers = (
{
layerId = m01;
shapes = (
{
closed = 1;
nodes = (
(375,313,o),
(379,317,o),
(379,327,cs),
(379,333,o),
(377,339,o),
(372,344,cs),
(367,349,o),
(360,350,o),
(353,350,cs),
(346,349,o),
(339,346,o),
(334,341,c),
(27,44,l),
(20,36,o),
(18,28,o),
(19,21,cs),
(20,16,o),
(23,11,o),
(27,6,cs),
(31,2,o),
(36,0,o),
(43,0,cs),
(51,0,o),
(59,5,o),
(64,10,c),
(370,308,l)
);
},
{
closed = 1;
nodes = (
(113,345,o),
(107,350,o),
(99,350,cs),
(92,350,o),
(86,347,o),
(81,343,cs),
(76,339,o),
(73,333,o),
(72,327,cs),
(72,321,o),
(75,314,o),
(78,309,c),
(282,10,l),
(286,4,o),
(292,1,o),
(297,0,cs),
(304,-1,o),
(312,3,o),
(317,8,cs),
(322,13,o),
(326,20,o),
(326,27,cs),
(326,33,o),
(324,39,o),
(320,44,c),
(118,338,l)
);
}
);
width = 397;
},
{
layerId = m002;
shapes = (
{
closed = 1;
nodes = (
(392,285,o),
(398,294,o),
(398,309,cs),
(398,321,o),
(394,331,o),
(385,340,cs),
(377,348,o),
(362,350,o),
(349,350,cs),
(338,350,o),
(324,344,o),
(316,337,cs),
(46,76,ls),
(34,64,o),
(30,52,o),
(32,38,cs),
(33,29,o),
(37,21,o),
(44,12,cs),
(51,4,o),
(65,0,o),
(78,0,cs),
(92,0,o),
(106,7,o),
(116,16,cs),
(383,277,ls)
);
},
{
closed = 1;
nodes = (
(154,345,o),
(141,350,o),
(127,350,cs),
(115,350,o),
(104,347,o),
(94,339,cs),
(85,332,o),
(79,321,o),
(78,310,cs),
(78,299,o),
(83,288,o),
(88,281,cs),
(267,18,ls),
(278,2,o),
(298,0,o),
(308,0,cs),
(320,0,o),
(331,7,o),
(338,14,cs),
(345,22,o),
(352,33,o),
(352,45,cs),
(352,54,o),
(348,62,o),
(342,71,cs),
(164,331,ls)
);
}
);
width = 429;
}
);
metricLeft = n;
metricRight = n;
unicode = 120;
},
{
glyphname = y;
lastChange = "2022-03-01 15:07:17 +0000";
layers = (
{
layerId = m01;
shapes = (
{
closed = 1;
nodes = (
(381,338,o),
(368,350,o),
(354,350,cs),
(342,350,o),
(328,341,o),
(324,320,cs),
(269,-3,ls),
(257,-71,o),
(249,-142,o),
(221,-189,cs),
(203,-219,o),
(176,-240,o),
(128,-246,cs),
(107,-248,o),
(24,-250,o),
(5,-250,cs),
(-21,-250,o),
(-34,-263,o),
(-34,-277,cs),
(-34,-292,o),
(-20,-300,o),
(4,-300,cs),
(23,-300,o),
(111,-299,o),
(144,-294,cs),
(198,-286,o),
(237,-257,o),
(262,-217,cs),
(296,-163,o),
(305,-87,o),
(320,-3,cs),
(377,317,ls)
);
},
{
closed = 1;
nodes = (
(265,225,o),
(152,45,o),
(101,45,cs),
(76,45,o),
(82,89,o),
(87,116,cs),
(123,321,ls),
(126,340,o),
(115,350,o),
(103,350,cs),
(90,350,o),
(75,341,o),
(72,322,cs),
(36,116,ls),
(26,59,o),
(33,-4,o),
(91,-4,cs),
(180,-4,o),
(285,166,o),
(340,254,c),
(334,340,l)
);
}
);
width = 396;
},
{
layerId = m002;
shapes = (
{
closed = 1;
nodes = (
(413,331,o),
(405,350,o),
(367,350,cs),
(334,350,o),
(312,333,o),
(307,302,cs),
(254,3,ls),
(242,-62,o),
(238,-126,o),
(215,-165,cs),
(199,-190,o),
(183,-203,o),
(146,-208,cs),
(127,-210,o),
(44,-209,o),
(27,-209,cs),
(-10,-209,o),
(-21,-231,o),
(-21,-257,cs),
(-21,-282,o),
(-13,-300,o),
(26,-300,cs),
(45,-300,o),
(136,-298,o),
(168,-293,cs),
(226,-283,o),
(270,-256,o),
(296,-215,cs),
(331,-158,o),
(340,-83,o),
(354,-5,cs),
(407,295,ls)
);
},
{
closed = 1;
nodes = (
(279,252,o),
(180,74,o),
(142,74,cs),
(134,74,o),
(137,94,o),
(141,119,cs),
(173,300,ls),
(178,330,o),
(166,350,o),
(131,350,cs),
(100,350,o),
(83,335,o),
(78,307,cs),
(46,127,ls),
(34,58,o),
(48,-4,o),
(115,-4,cs),
(235,-4,o),
(279,108,o),
(325,153,c),
(316,326,l)
);
}
);
width = 440;
}
);
metricLeft = n;
metricRight = n;
unicode = 121;
},
{
glyphname = z;
lastChange = "2022-03-01 15:07:17 +0000";
layers = (
{
layerId = m01;
shapes = (
{
closed = 1;
nodes = (
(375,313,o),
(379,317,o),
(379,327,cs),
(379,333,o),
(377,339,o),
(372,344,cs),
(367,349,o),
(360,350,o),
(353,350,cs),
(346,349,o),
(339,346,o),
(334,341,c),
(27,44,ls),
(19,37,o),
(18,28,o),
(19,21,cs),
(20,16,o),
(23,11,o),
(27,6,cs),
(31,2,o),
(36,0,o),
(43,0,cs),
(51,0,o),
(59,5,o),
(64,10,c),
(370,308,l)
);
},
{
closed = 1;
nodes = (
(300,0,ls),
(320,0,o),
(326,13,o),
(326,25,cs),
(326,37,o),
(320,50,o),
(300,50,cs),
(63,50,l),
(41,0,l)
);
},
{
closed = 1;
nodes = (
(355,350,l),
(98,350,ls),
(78,350,o),
(72,337,o),
(72,325,cs),
(72,313,o),
(78,300,o),
(98,300,cs),
(331,300,l)
);
}
);
width = 397;
},
{
layerId = m002;
shapes = (
{
closed = 1;
nodes = (
(392,285,o),
(398,294,o),
(398,309,cs),
(398,321,o),
(393,331,o),
(385,340,cs),
(376,348,o),
(362,350,o),
(349,350,cs),
(337,350,o),
(324,344,o),
(316,337,cs),
(46,75,ls),
(35,65,o),
(30,52,o),
(32,38,cs),
(33,29,o),
(37,21,o),
(44,12,cs),
(51,4,o),
(65,0,o),
(78,0,cs),
(92,0,o),
(106,7,o),
(116,16,cs),
(383,277,ls)
);
},
{
closed = 1;
nodes = (
(304,0,ls),
(334,0,o),
(352,19,o),
(352,43,cs),
(352,67,o),
(334,85,o),
(304,85,cs),
(115,85,l),
(77,0,l)
);
},
{
closed = 1;
nodes = (
(350,350,l),
(126,350,ls),
(96,350,o),
(78,329,o),
(78,305,cs),
(78,281,o),
(96,260,o),
(126,260,cs),
(308,260,l)
);
}
);
width = 430;
}
);
metricLeft = n;
metricRight = n;
unicode = 122;
},
{
glyphname = a.sc;
lastChange = "2022-03-01 14:51:30 +0000";
layers = (
{
guides = (
{
pos = (221,396);
}
);
layerId = m01;
name = "QBeginners Light";
shapes = (
{
closed = 1;
nodes = (
(245,365,l),
(249,381,o),
(239,396,o),
(221,396,cs),
(206,396,o),
(201,387,o),
(196,377,cs),
(18,35,ls),
(9,18,o),
(21,0,o),
(38,0,cs),
(53,0,o),
(59,6,o),
(67,21,cs),
(243,359,l)
);
},
{
closed = 1;
nodes = (
(243,175,l),
(239,216,l),
(125,216,l),
(102,175,l)
);
},
{
closed = 1;
nodes = (
(197,358,l),
(226,25,ls),
(227,13,o),
(233,0,o),
(252,0,cs),
(267,0,o),
(278,10,o),
(276,28,cs),
(246,378,l)
);
}
);
width = 352;
},
{
guides = (
{
pos = (244,396);
}
);
layerId = m002;
name = "QBeginners Light";
shapes = (
{
closed = 1;
nodes = (
(277,348,l),
(286,380,o),
(268,396,o),
(237,396,cs),
(213,396,o),
(201,383,o),
(193,367,cs),
(36,65,ls),
(20,34,o),
(30,0,o),
(63,0,cs),
(85,0,o),
(100,9,o),
(111,31,cs),
(260,317,l)
);
},
{
closed = 1;
nodes = (
(285,151,l),
(278,221,l),
(138,221,l),
(95,151,l)
);
},
{
closed = 1;
nodes = (
(212,326,l),
(229,45,ls),
(231,18,o),
(243,0,o),
(271,0,cs),
(298,0,o),
(314,21,o),
(311,50,cs),
(279,371,l)
);
}
);
width = 392;
},
{
associatedMasterId = m002;
attr = {
axisRules = (
{
max = 800;
min = 600;
}
);
};
guides = (
{
pos = (244,396);
}
);
layerId = "755706CE-7041-47DB-A0A1-6F5627D14654";
name = "{650}";
shapes = (
{
closed = 1;
nodes = (
(277,348,l),
(286,380,o),
(268,396,o),
(237,396,cs),
(213,396,o),
(201,383,o),
(193,367,cs),
(36,65,ls),
(20,34,o),
(30,0,o),
(63,0,cs),
(85,0,o),
(101,9,o),
(111,31,cs),
(249,319,l)
);
},
{
closed = 1;
nodes = (
(285,120,l),
(278,190,l),
(138,190,l),
(95,120,l)
);
},
{
closed = 1;
nodes = (
(216,325,l),
(229,45,ls),
(230,18,o),
(243,0,o),
(271,0,cs),
(298,0,o),
(314,21,o),
(311,50,cs),
(279,371,l)
);
}
);
visible = 1;
width = 392;
},
{
associatedMasterId = m01;
attr = {
axisRules = (
{
max = 800;
min = 600;
}
);
};
guides = (
{
pos = (221,396);
}
);
layerId = "2F08D9ED-CD58-44F7-9314-96851F4DB5DC";
name = "{650}";
shapes = (
{
closed = 1;
nodes = (
(245,365,l),
(249,381,o),
(239,396,o),
(221,396,cs),
(206,396,o),
(201,387,o),
(196,377,cs),
(18,35,ls),
(9,18,o),
(21,0,o),
(38,0,cs),
(53,0,o),
(59,6,o),
(67,21,cs),
(243,359,l)
);
},
{
closed = 1;
nodes = (
(243,155,l),
(239,200,l),
(125,200,l),
(102,155,l)
);
},
{
closed = 1;
nodes = (
(197,358,l),
(226,25,ls),
(227,13,o),
(233,0,o),
(252,0,cs),
(267,0,o),
(278,10,o),
(276,28,cs),
(246,378,l)
);
}
);
visible = 1;
width = 352;
}
);
metricLeft = A;
metricRight = A;
},
{
glyphname = b.sc;
lastChange = "2022-03-01 14:51:12 +0000";
layers = (
{
layerId = m01;
shapes = (
{
closed = 1;
nodes = (
(197,-1,o),
(235,18,o),
(249,92,cs),
(263,175,o),
(174,224,o),
(80,224,c),
(72,171,l),
(154,171,o),
(207,144,o),
(200,100,cs),
(192,59,o),
(157,49,o),
(47,50,c),
(39,0,l)
);
},
{
closed = 1;
nodes = (
(129,384,o),
(118,396,o),
(103,396,cs),
(88,396,o),
(78,387,o),
(75,369,cs),
(16,32,ls),
(13,15,o),
(24,0,o),
(40,0,cs),
(52,0,o),
(63,8,o),
(66,27,cs),
(125,363,ls)
);
},
{
closed = 1;
nodes = (
(235,171,o),
(270,212,o),
(282,281,cs),
(296,360,o),
(221,396,o),
(102,396,c),
(92,345,l),
(195,346,o),
(240,329,o),
(232,286,cs),
(226,247,o),
(207,224,o),
(84,224,c),
(75,171,l)
);
}
);
width = 299;
},
{
layerId = m002;
shapes = (
{
closed = 1;
nodes = (
(184,374,o),
(162,396,o),
(133,396,cs),
(108,396,o),
(89,380,o),
(84,352,cs),
(31,54,ls),
(26,25,o),
(48,0,o),
(78,0,cs),
(100,0,o),
(121,16,o),
(126,43,cs),
(178,340,ls)
);
},
{
closed = 1;
nodes = (
(221,0,o),
(271,17,o),
(288,100,cs),
(304,199,o),
(192,226,o),
(91,226,c),
(77,153,l),
(164,153,o),
(203,141,o),
(199,115,cs),
(195,91,o),
(175,80,o),
(91,80,c),
(77,0,l)
);
},
{
closed = 1;
nodes = (
(262,153,o),
(303,194,o),
(317,267,cs),
(333,361,o),
(238,396,o),
(130,396,c),
(113,317,l),
(208,317,o),
(232,302,o),
(228,280,cs),
(222,248,o),
(213,226,o),
(94,226,c),
(80,153,l)
);
}
);
width = 355;
}
);
metricLeft = B;
metricRight = B;
},
{
glyphname = c.sc;
lastChange = "2022-03-01 14:51:12 +0000";
layers = (
{
layerId = m01;
shapes = (
{
closed = 1;
nodes = (
(161,0,o),
(202,31,o),
(251,103,cs),
(265,125,o),
(265,130,o),
(265,135,cs),
(265,148,o),
(256,158,o),
(244,158,cs),
(230,158,o),
(224,152,o),
(211,134,cs),
(168,72,o),
(142,50,o),
(110,50,cs),
(85,50,o),
(82,71,o),
(82,92,cs),
(82,122,o),
(90,180,o),
(96,209,cs),
(110,278,o),
(125,346,o),
(251,346,cs),
(282,346,o),
(288,345,o),
(296,349,cs),
(309,356,o),
(311,381,o),
(298,390,cs),
(291,394,o),
(283,396,o),
(251,396,cs),
(87,396,o),
(61,301,o),
(45,209,cs),
(43,197,o),
(32,131,o),
(32,93,cs),
(32,51,o),
(46,0,o),
(111,0,cs)
);
}
);
width = 322;
},
{
layerId = m002;
shapes = (
{
closed = 1;
nodes = (
(207,0,o),
(244,34,o),
(291,101,cs),
(304,122,o),
(308,142,o),
(304,157,cs),
(300,175,o),
(286,186,o),
(264,186,cs),
(242,186,o),
(231,177,o),
(214,154,cs),
(177,101,o),
(163,90,o),
(151,90,cs),
(145,90,o),
(145,99,o),
(145,113,cs),
(145,139,o),
(153,178,o),
(157,203,cs),
(168,265,o),
(179,306,o),
(270,306,cs),
(284,306,o),
(310,305,o),
(322,312,cs),
(350,327,o),
(353,369,o),
(325,387,cs),
(316,392,o),
(291,396,o),
(270,396,cs),
(104,396,o),
(77,294,o),
(62,211,cs),
(61,203,o),
(51,148,o),
(51,111,cs),
(51,61,o),
(60,0,o),
(146,0,cs)
);
}
);
width = 370;
}
);
metricLeft = C;
metricRight = C;
},
{
glyphname = d.sc;
lastChange = "2022-03-01 14:51:12 +0000";
layers = (
{
layerId = m01;
shapes = (
{
closed = 1;
nodes = (
(76,0,ls),
(177,0,o),
(271,78,o),
(294,210,cs),
(312,315,o),
(229,396,o),
(123,396,cs),
(102,396,l),
(97,342,l),
(126,342,ls),
(203,342,o),
(257,287,o),
(244,214,cs),
(226,107,o),
(151,50,o),
(76,50,cs),
(50,50,l),
(39,0,l)
);
},
{
closed = 1;
nodes = (
(127,377,o),
(121,396,o),
(103,396,cs),
(86,396,o),
(78,388,o),
(75,369,cs),
(15,29,ls),
(12,14,o),
(22,0,o),
(40,0,cs),
(58,0,o),
(63,12,o),
(65,22,cs),
(124,359,ls)
);
}
);
width = 323;
},
{
layerId = m002;
shapes = (
{
closed = 1;
nodes = (
(109,0,ls),
(210,0,o),
(304,78,o),
(327,205,cs),
(345,313,o),
(258,396,o),
(150,396,cs),
(132,396,l),
(122,316,l),
(153,316,ls),
(210,316,o),
(242,270,o),
(232,216,cs),
(219,129,o),
(166,74,o),
(109,74,cs),
(97,74,l),
(76,0,l)
);
},
{
closed = 1;
nodes = (
(181,367,o),
(165,396,o),
(133,396,cs),
(110,396,o),
(89,385,o),
(83,353,cs),
(30,52,ls),
(25,24,o),
(46,0,o),
(77,0,cs),
(104,0,o),
(119,17,o),
(124,38,c),
(176,336,ls)
);
}
);
width = 376;
}
);
metricLeft = D;
metricRight = D;
},
{
glyphname = e.sc;
lastChange = "2022-03-01 14:51:12 +0000";
layers = (
{
layerId = m01;
shapes = (
{
closed = 1;
nodes = (
(129,378,o),
(124,396,o),
(105,396,cs),
(87,396,o),
(80,388,o),
(77,369,cs),
(17,29,ls),
(15,15,o),
(24,0,o),
(41,0,cs),
(60,0,o),
(65,14,o),
(67,24,cs),
(126,360,ls)
);
},
{
closed = 1;
nodes = (
(228,0,ls),
(245,0,o),
(254,14,o),
(254,27,cs),
(254,40,o),
(245,53,o),
(228,53,cs),
(49,53,l),
(40,0,l)
);
},
{
closed = 1;
nodes = (
(243,174,ls),
(260,174,o),
(269,186,o),
(269,198,cs),
(269,211,o),
(260,224,o),
(243,224,cs),
(79,224,l),
(71,174,l)
);
},
{
closed = 1;
nodes = (
(290,343,ls),
(306,343,o),
(315,354,o),
(315,369,cs),
(315,384,o),
(306,396,o),
(290,396,cs),
(104,396,l),
(95,343,l)
);
}
);
width = 328;
},
{
layerId = m002;
shapes = (
{
closed = 1;
nodes = (
(184,367,o),
(169,396,o),
(135,396,cs),
(110,396,o),
(90,384,o),
(85,353,cs),
(32,52,ls),
(27,25,o),
(48,0,o),
(78,0,cs),
(106,0,o),
(122,18,o),
(126,41,cs),
(179,338,ls)
);
},
{
closed = 1;
nodes = (
(244,0,ls),
(273,0,o),
(292,18,o),
(292,42,cs),
(292,66,o),
(272,77,o),
(244,77,cs),
(92,77,l),
(76,0,l)
);
},
{
closed = 1;
nodes = (
(257,151,ls),
(285,151,o),
(305,164,o),
(305,188,cs),
(305,213,o),
(285,225,o),
(257,225,cs),
(105,225,l),
(91,151,l)
);
},
{
closed = 1;
nodes = (
(299,303,ls),
(326,303,o),
(346,323,o),
(346,349,cs),
(346,376,o),
(326,396,o),
(299,396,cs),
(132,396,l),
(116,303,l)
);
}
);
width = 370;
}
);
metricLeft = E;
metricRight = E;
},
{
glyphname = f.sc;
lastChange = "2022-03-01 14:51:12 +0000";
layers = (
{
layerId = m01;
shapes = (
{
closed = 1;
nodes = (
(130,377,o),
(124,396,o),
(105,396,cs),
(87,396,o),
(80,388,o),
(77,369,cs),
(17,29,ls),
(15,15,o),
(24,0,o),
(41,0,cs),
(60,0,o),
(66,14,o),
(68,24,cs),
(127,359,ls)
);
},
{
closed = 1;
nodes = (
(242,175,ls),
(260,175,o),
(268,187,o),
(268,199,cs),
(268,214,o),
(259,225,o),
(242,225,cs),
(79,225,l),
(71,175,l)
);
},
{
closed = 1;
nodes = (
(290,343,ls),
(306,343,o),
(315,354,o),
(315,369,cs),
(315,384,o),
(306,396,o),
(290,396,cs),
(104,396,l),
(96,343,l)
);
}
);
width = 308;
},
{
layerId = m002;
shapes = (
{
closed = 1;
nodes = (
(184,366,o),
(169,396,o),
(135,396,cs),
(110,396,o),
(90,384,o),
(85,353,cs),
(32,52,ls),
(27,25,o),
(48,0,o),
(78,0,cs),
(106,0,o),
(123,19,o),
(127,40,cs),
(179,336,ls)
);
},
{
closed = 1;
nodes = (
(256,151,ls),
(285,151,o),
(304,168,o),
(304,192,cs),
(304,218,o),
(284,225,o),
(256,225,cs),
(130,225,l),
(116,151,l)
);
},
{
closed = 1;
nodes = (
(299,303,ls),
(326,303,o),
(346,323,o),
(346,349,cs),
(346,376,o),
(326,396,o),
(299,396,cs),
(134,396,l),
(120,303,l)
);
}
);
width = 350;
}
);
metricLeft = F;
metricRight = "=F-20";
},
{
glyphname = g.sc;
lastChange = "2022-03-01 14:51:12 +0000";
layers = (
{
layerId = m01;
shapes = (
{
closed = 1;
nodes = (
(251,224,o),
(250,230,o),
(207,164,cs),
(186,132,o),
(130,48,o),
(97,48,cs),
(85,48,o),
(81,64,o),
(81,89,cs),
(81,125,o),
(92,187,o),
(99,217,cs),
(110,276,o),
(132,343,o),
(259,343,cs),
(291,343,ls),
(306,343,o),
(316,356,o),
(316,370,cs),
(316,383,o),
(306,396,o),
(293,396,cs),
(260,396,ls),
(96,396,o),
(61,300,o),
(45,207,cs),
(43,195,o),
(31,129,o),
(31,92,cs),
(31,49,o),
(48,-2,o),
(95,-2,cs),
(143,-2,o),
(190,52,o),
(235,115,c),
(266,224,l)
);
},
{
closed = 1;
nodes = (
(289,213,o),
(280,224,o),
(265,224,cs),
(248,224,o),
(238,214,o),
(235,198,cs),
(205,29,ls),
(203,17,o),
(210,0,o),
(227,0,cs),
(247,0,o),
(254,14,o),
(256,25,cs),
(286,194,ls)
);
}
);
width = 332;
},
{
layerId = m002;
shapes = (
{
closed = 1;
nodes = (
(268,244,o),
(253,218,o),
(219,165,cs),
(180,105,o),
(155,86,o),
(148,86,cs),
(143,86,o),
(142,105,o),
(146,130,cs),
(152,164,o),
(156,188,o),
(161,218,cs),
(165,240,o),
(169,303,o),
(298,303,cs),
(314,303,ls),
(348,303,o),
(361,328,o),
(362,350,cs),
(363,374,o),
(343,396,o),
(314,396,cs),
(298,396,ls),
(134,396,o),
(80,311,o),
(64,218,cs),
(62,206,o),
(50,139,o),
(50,102,cs),
(50,59,o),
(78,-2,o),
(133,-2,cs),
(181,-2,o),
(228,52,o),
(273,115,c),
(304,244,l)
);
},
{
closed = 1;
nodes = (
(342,212,o),
(330,244,o),
(303,244,cs),
(301,244,o),
(267,237,o),
(263,221,cs),
(218,45,ls),
(214,28,o),
(227,0,o),
(265,0,cs),
(289,0,o),
(309,22,o),
(311,36,cs),
(339,196,ls)
);
}
);
width = 392;
}
);
metricLeft = G;
metricRight = G;
},
{
glyphname = h.sc;
lastChange = "2022-03-01 14:51:12 +0000";
layers = (
{
layerId = m01;
shapes = (
{
closed = 1;
nodes = (
(358,381,o),
(349,395,o),
(331,395,cs),
(316,395,o),
(307,384,o),
(305,371,cs),
(245,30,ls),
(243,17,o),
(249,0,o),
(269,0,cs),
(283,0,o),
(293,10,o),
(295,23,cs),
(355,364,ls)
);
},
{
closed = 1;
nodes = (
(128,381,o),
(119,395,o),
(103,395,cs),
(88,395,o),
(78,385,o),
(75,369,cs),
(15,29,ls),
(13,15,o),
(22,0,o),
(39,0,cs),
(56,0,o),
(63,13,o),
(65,24,cs),
(124,359,ls)
);
},
{
closed = 1;
nodes = (
(285,174,l),
(293,224,l),
(87,224,l),
(79,174,l)
);
}
);
width = 371;
},
{
layerId = m002;
shapes = (
{
closed = 1;
nodes = (
(386,371,o),
(365,395,o),
(334,395,cs),
(309,395,o),
(291,378,o),
(287,355,cs),
(234,53,ls),
(230,28,o),
(246,0,o),
(279,0,cs),
(304,0,o),
(324,17,o),
(328,40,cs),
(381,342,ls)
);
},
{
closed = 1;
nodes = (
(183,373,o),
(161,395,o),
(132,395,cs),
(107,395,o),
(87,378,o),
(83,353,cs),
(30,52,ls),
(25,25,o),
(46,0,o),
(76,0,cs),
(101,0,o),
(120,17,o),
(124,40,cs),
(176,336,ls)
);
},
{
closed = 1;
nodes = (
(271,151,l),
(285,225,l),
(133,225,l),
(119,151,l)
);
}
);
width = 408;
}
);
metricLeft = H;
metricRight = H;
},
{
glyphname = i.sc;
lastChange = "2022-03-01 14:51:12 +0000";
layers = (
{
layerId = m01;
shapes = (
{
closed = 1;
nodes = (
(100,42,l),
(155,358,l),
(104,358,l),
(49,42,l)
);
},
{
closed = 1;
nodes = (
(118,0,o),
(127,12,o),
(127,25,cs),
(127,38,o),
(118,50,o),
(101,50,cs),
(45,50,ls),
(28,50,o),
(19,38,o),
(19,25,cs),
(19,12,o),
(28,0,o),
(45,0,cs),
(101,0,ls)
);
},
{
closed = 1;
nodes = (
(175,345,o),
(183,357,o),
(183,370,cs),
(183,383,o),
(175,396,o),
(157,396,cs),
(102,396,ls),
(84,396,o),
(76,383,o),
(76,370,cs),
(76,357,o),
(84,345,o),
(102,345,cs),
(157,345,ls)
);
}
);
width = 203;
},
{
layerId = m002;
shapes = (
{
closed = 1;
nodes = (
(155,61,l),
(204,334,l),
(109,334,l),
(60,61,l)
);
},
{
closed = 1;
nodes = (
(160,0,o),
(180,13,o),
(180,38,cs),
(180,62,o),
(160,75,o),
(132,75,cs),
(82,75,ls),
(54,75,o),
(34,62,o),
(34,38,cs),
(34,13,o),
(54,0,o),
(82,0,cs),
(132,0,ls)
);
},
{
closed = 1;
nodes = (
(211,320,o),
(230,333,o),
(230,357,cs),
(230,382,o),
(211,396,o),
(182,396,cs),
(133,396,ls),
(104,396,o),
(85,382,o),
(85,357,cs),
(85,333,o),
(104,320,o),
(133,320,cs),
(182,320,ls)
);
}
);
width = 261;
}
);
metricLeft = I;
metricRight = I;
},
{
glyphname = j.sc;
lastChange = "2022-03-01 14:51:12 +0000";
layers = (
{
layerId = m01;
shapes = (
{
closed = 1;
nodes = (
(96,354,l),
(66,184,ls),
(59,144,o),
(52,108,o),
(39,82,cs),
(32,68,o),
(20,60,o),
(-1,57,cs),
(-16,55,o),
(-68,53,o),
(-82,53,cs),
(-94,53,o),
(-107,40,o),
(-107,26,cs),
(-107,12,o),
(-94,0,o),
(-82,0,cs),
(-64,0,o),
(-12,3,o),
(-1,4,cs),
(43,10,o),
(67,29,o),
(82,55,cs),
(98,78,o),
(113,159,o),
(117,184,cs),
(147,354,l)
);
},
{
closed = 1;
nodes = (
(217,343,o),
(226,356,o),
(226,369,cs),
(226,382,o),
(217,396,o),
(200,396,cs),
(50,396,ls),
(33,396,o),
(24,384,o),
(24,369,cs),
(24,354,o),
(33,343,o),
(50,343,cs),
(200,343,ls)
);
}
);
width = 237;
},
{
layerId = m002;
shapes = (
{
closed = 1;
nodes = (
(106,331,l),
(81,190,ls),
(75,154,o),
(70,131,o),
(62,109,cs),
(58,99,o),
(40,95,o),
(31,94,cs),
(20,93,o),
(-28,93,o),
(-40,93,cs),
(-65,93,o),
(-87,70,o),
(-87,46,cs),
(-87,20,o),
(-64,0,o),
(-40,0,cs),
(-34,0,o),
(-9,0,o),
(2,0,cs),
(79,0,o),
(120,23,o),
(144,60,cs),
(157,80,o),
(172,160,o),
(176,182,cs),
(201,331,l)
);
},
{
closed = 1;
nodes = (
(252,318,o),
(272,333,o),
(272,357,cs),
(272,381,o),
(253,396,o),
(224,396,cs),
(92,396,ls),
(63,396,o),
(44,384,o),
(44,357,cs),
(44,331,o),
(63,318,o),
(92,318,cs),
(224,318,ls)
);
}
);
width = 293;
}
);
metricLeft = J;
metricRight = J;
},
{
glyphname = k.sc;
lastChange = "2022-03-01 14:51:12 +0000";
layers = (
{
layerId = m01;
shapes = (
{
closed = 1;
nodes = (
(129,382,o),
(121,396,o),
(104,396,cs),
(89,396,o),
(79,385,o),
(76,369,cs),
(16,32,ls),
(13,16,o),
(24,0,o),
(40,0,cs),
(58,0,o),
(64,15,o),
(66,28,cs),
(126,363,ls)
);
},
{
closed = 1;
nodes = (
(79,210,l),
(79,179,l),
(192,16,ls),
(199,6,o),
(208,0,o),
(218,0,cs),
(230,0,o),
(239,8,o),
(241,18,c),
(244,25,o),
(242,32,o),
(235,42,cs),
(118,210,l)
);
},
{
closed = 1;
nodes = (
(114,202,l),
(288,346,ls),
(297,353,o),
(302,362,o),
(304,369,cs),
(306,383,o),
(296,396,o),
(282,396,cs),
(275,396,o),
(265,393,o),
(256,385,cs),
(79,238,l),
(79,202,l)
);
}
);
width = 319;
},
{
layerId = m002;
shapes = (
{
closed = 1;
nodes = (
(183,372,o),
(163,396,o),
(133,396,cs),
(108,396,o),
(88,378,o),
(84,353,cs),
(31,55,ls),
(25,27,o),
(47,0,o),
(77,0,cs),
(105,0,o),
(121,20,o),
(125,44,cs),
(178,340,ls)
);
},
{
closed = 1;
nodes = (
(86,232,l),
(86,174,l),
(190,24,ls),
(201,8,o),
(218,0,o),
(234,0,cs),
(256,0,o),
(275,14,o),
(279,34,c),
(283,46,o),
(280,59,o),
(270,73,cs),
(160,232,l)
);
},
{
closed = 1;
nodes = (
(152,179,l),
(313,312,ls),
(325,321,o),
(333,334,o),
(335,345,cs),
(339,373,o),
(318,396,o),
(291,396,cs),
(279,396,o),
(263,391,o),
(250,379,cs),
(86,243,l),
(86,179,l)
);
}
);
width = 361;
}
);
metricLeft = K;
metricRight = K;
},
{
glyphname = l.sc;
lastChange = "2022-03-01 14:51:12 +0000";
layers = (
{
layerId = m01;
shapes = (
{
closed = 1;
nodes = (
(128,381,o),
(121,395,o),
(103,395,cs),
(88,395,o),
(78,385,o),
(75,369,cs),
(15,29,ls),
(12,14,o),
(22,0,o),
(40,0,cs),
(58,0,o),
(63,14,o),
(65,24,cs),
(125,363,ls)
);
},
{
closed = 1;
nodes = (
(227,0,ls),
(243,0,o),
(252,14,o),
(252,27,cs),
(252,40,o),
(243,53,o),
(227,53,cs),
(39,53,l),
(39,0,l)
);
}
);
width = 328;
},
{
layerId = m002;
shapes = (
{
closed = 1;
nodes = (
(183,372,o),
(163,395,o),
(133,395,cs),
(109,395,o),
(88,379,o),
(83,353,cs),
(30,52,ls),
(25,24,o),
(46,0,o),
(77,0,cs),
(104,0,o),
(120,18,o),
(124,41,cs),
(177,340,ls)
);
},
{
closed = 1;
nodes = (
(243,0,ls),
(271,0,o),
(290,17,o),
(290,41,cs),
(290,64,o),
(271,77,o),
(243,77,cs),
(76,77,l),
(76,0,l)
);
}
);
width = 370;
}
);
metricLeft = L;
metricRight = L;
},
{
glyphname = m.sc;
lastChange = "2022-03-01 14:51:12 +0000";
layers = (
{
layerId = m01;
shapes = (
{
closed = 1;
nodes = (
(222,396,l),
(207,396,o),
(201,388,o),
(193,373,cs),
(18,39,ls),
(9,21,o),
(18,0,o),
(38,0,cs),
(46,0,o),
(57,5,o),
(65,21,cs),
(225,327,l)
);
},
{
closed = 1;
nodes = (
(246,374,ls),
(245,385,o),
(239,396,o),
(222,396,c),
(199,327,l),
(223,24,ls),
(224,11,o),
(230,0,o),
(247,0,c),
(271,50,l)
);
},
{
closed = 1;
nodes = (
(262,0,o),
(269,8,o),
(274,17,cs),
(436,327,l),
(433,396,l),
(420,396,o),
(411,388,o),
(406,378,cs),
(239,58,l),
(246,0,l)
);
},
{
closed = 1;
nodes = (
(457,384,o),
(447,396,o),
(433,396,c),
(411,327,l),
(436,25,ls),
(437,12,o),
(445,0,o),
(462,0,cs),
(478,0,o),
(487,13,o),
(486,28,cs),
(458,367,ls)
);
}
);
width = 562;
},
{
layerId = m002;
shapes = (
{
closed = 1;
nodes = (
(239,396,l),
(217,396,o),
(205,393,o),
(190,364,cs),
(35,67,ls),
(19,36,o),
(40,0,o),
(75,0,cs),
(91,0,o),
(110,9,o),
(121,31,cs),
(266,307,l)
);
},
{
closed = 1;
nodes = (
(284,356,ls),
(282,385,o),
(261,396,o),
(240,396,c),
(193,315,l),
(214,42,ls),
(216,11,o),
(238,0,o),
(260,0,c),
(306,63,l)
);
},
{
closed = 1;
nodes = (
(284,0,o),
(294,5,o),
(306,28,cs),
(452,307,l),
(434,396,l),
(408,396,o),
(390,389,o),
(378,366,cs),
(227,78,l),
(261,0,l)
);
},
{
closed = 1;
nodes = (
(477,389,o),
(460,396,o),
(433,396,c),
(387,315,l),
(410,43,ls),
(412,19,o),
(431,0,o),
(458,0,cs),
(487,0,o),
(507,22,o),
(505,50,cs),
(480,350,ls)
);
}
);
width = 585;
}
);
metricLeft = M;
metricRight = M;
},
{
glyphname = n.sc;
lastChange = "2022-03-01 14:51:12 +0000";
layers = (
{
layerId = m01;
shapes = (
{
closed = 1;
nodes = (
(129,376,ls),
(124,387,o),
(117,396,o),
(101,396,c),
(91,340,l),
(243,22,ls),
(248,12,o),
(256,0,o),
(270,0,c),
(284,52,l)
);
},
{
closed = 1;
nodes = (
(102,396,l),
(86,396,o),
(78,386,o),
(75,369,cs),
(15,29,ls),
(13,15,o),
(22,0,o),
(39,0,cs),
(56,0,o),
(63,13,o),
(65,26,cs),
(121,340,l)
);
},
{
closed = 1;
nodes = (
(286,0,o),
(294,12,o),
(296,22,cs),
(355,363,ls),
(358,381,o),
(350,395,o),
(333,395,cs),
(318,395,o),
(308,385,o),
(305,369,cs),
(250,52,l),
(271,0,l)
);
}
);
width = 372;
},
{
layerId = m002;
shapes = (
{
closed = 1;
nodes = (
(179,366,ls),
(168,389,o),
(149,396,o),
(129,396,c),
(96,321,l),
(234,32,ls),
(243,14,o),
(253,0,o),
(291,0,c),
(319,71,l)
);
},
{
closed = 1;
nodes = (
(128,396,l),
(105,396,o),
(90,390,o),
(83,353,cs),
(30,52,ls),
(25,25,o),
(46,0,o),
(76,0,cs),
(101,0,o),
(122,17,o),
(126,42,cs),
(176,326,l)
);
},
{
closed = 1;
nodes = (
(316,0,o),
(325,15,o),
(329,38,cs),
(381,341,ls),
(386,368,o),
(368,395,o),
(336,395,cs),
(312,395,o),
(290,379,o),
(286,353,cs),
(237,67,l),
(292,0,l)
);
}
);
width = 409;
}
);
metricLeft = N;
metricRight = N;
},
{
glyphname = o.sc;
lastChange = "2022-02-27 12:59:36 +0000";
layers = (
{
layerId = m01;
shapes = (
{
closed = 1;
nodes = (
(220,-2,o),
(332,154,o),
(340,262,cs),
(346,332,o),
(311,396,o),
(219,396,cs),
(131,396,o),
(80,337,o),
(54,249,cs),
(47,226,o),
(42,199,o),
(40,172,cs),
(33,93,o),
(52,-2,o),
(127,-2,cs)
);
},
{
closed = 1;
nodes = (
(94,51,o),
(86,114,o),
(90,165,cs),
(92,188,o),
(96,212,o),
(101,231,cs),
(122,307,o),
(154,343,o),
(216,343,cs),
(286,343,o),
(293,295,o),
(290,260,cs),
(281,171,o),
(175,51,o),
(126,51,cs)
);
}
);
width = 361;
},
{
layerId = m002;
shapes = (
{
closed = 1;
nodes = (
(259,-3,o),
(365,148,o),
(373,252,cs),
(379,325,o),
(339,396,o),
(241,396,cs),
(149,396,o),
(96,333,o),
(71,249,cs),
(65,227,o),
(59,201,o),
(58,175,cs),
(51,100,o),
(71,-3,o),
(160,-3,cs)
);
},
{
closed = 1;
nodes = (
(150,90,o),
(148,123,o),
(152,166,cs),
(154,186,o),
(157,206,o),
(161,220,cs),
(178,283,o),
(195,303,o),
(238,303,cs),
(279,303,o),
(282,282,o),
(279,254,cs),
(272,182,o),
(190,90,o),
(159,90,cs)
);
}
);
width = 414;
}
);
metricLeft = O;
metricRight = O;
},
{
glyphname = p.sc;
lastChange = "2022-03-01 14:51:12 +0000";
layers = (
{
layerId = m01;
shapes = (
{
closed = 1;
nodes = (
(169,185,o),
(292,178,o),
(292,283,cs),
(292,363,o),
(228,396,o),
(102,396,c),
(102,343,l),
(204,344,o),
(242,324,o),
(242,286,cs),
(242,231,o),
(151,238,o),
(87,238,c),
(78,185,l)
);
},
{
closed = 1;
nodes = (
(128,383,o),
(114,396,o),
(103,396,cs),
(85,396,o),
(78,384,o),
(75,369,cs),
(15,29,ls),
(13,15,o),
(22,0,o),
(39,0,cs),
(56,0,o),
(63,14,o),
(65,24,cs),
(125,365,ls)
);
}
);
width = 310;
},
{
layerId = m002;
shapes = (
{
closed = 1;
nodes = (
(150,151,o),
(301,139,o),
(325,273,cs),
(340,358,o),
(246,396,o),
(131,396,c),
(131,303,l),
(224,305,o),
(241,301,o),
(233,261,cs),
(227,232,o),
(161,222,o),
(98,222,c),
(82,151,l)
);
},
{
closed = 1;
nodes = (
(183,373,o),
(158,396,o),
(133,396,cs),
(107,396,o),
(88,381,o),
(83,353,cs),
(30,52,ls),
(25,25,o),
(46,0,o),
(76,0,cs),
(103,0,o),
(121,20,o),
(125,41,cs),
(178,342,ls)
);
}
);
width = 362;
}
);
metricLeft = P;
metricRight = P;
},
{
glyphname = q.sc;
lastChange = "2022-02-27 12:59:36 +0000";
layers = (
{
layerId = m01;
shapes = (
{
closed = 1;
nodes = (
(220,-2,o),
(329,138,o),
(338,248,cs),
(346,325,o),
(305,396,o),
(217,396,cs),
(130,396,o),
(80,341,o),
(54,249,cs),
(47,225,o),
(42,198,o),
(39,171,cs),
(33,91,o),
(52,-2,o),
(128,-2,cs)
);
},
{
closed = 1;
nodes = (
(183,120,o),
(166,123,o),
(154,113,cs),
(143,105,o),
(141,92,o),
(152,76,cs),
(212,-11,ls),
(221,-25,o),
(235,-31,o),
(247,-25,cs),
(259,-18,o),
(264,2,o),
(254,16,cs),
(193,105,ls)
);
},
{
closed = 1;
nodes = (
(91,51,o),
(85,111,o),
(89,161,cs),
(92,187,o),
(96,211,o),
(102,232,cs),
(123,306,o),
(151,343,o),
(213,343,cs),
(276,343,o),
(292,295,o),
(288,250,cs),
(279,162,o),
(185,51,o),
(128,51,cs)
);
}
);
width = 361;
},
{
layerId = m002;
shapes = (
{
closed = 1;
nodes = (
(259,-2,o),
(363,135,o),
(372,240,cs),
(380,319,o),
(335,396,o),
(240,396,cs),
(149,396,o),
(97,338,o),
(71,249,cs),
(64,226,o),
(60,200,o),
(57,176,cs),
(52,100,o),
(71,-2,o),
(161,-2,cs)
);
},
{
closed = 1;
nodes = (
(226,145,o),
(200,158,o),
(179,140,cs),
(159,125,o),
(160,102,o),
(177,77,cs),
(229,0,ls),
(245,-24,o),
(272,-30,o),
(291,-18,cs),
(314,-4,o),
(310,19,o),
(295,42,cs),
(242,121,ls)
);
},
{
closed = 1;
nodes = (
(151,88,o),
(148,121,o),
(151,163,cs),
(154,185,o),
(158,205,o),
(162,222,cs),
(180,284,o),
(194,303,o),
(236,303,cs),
(274,303,o),
(282,281,o),
(278,246,cs),
(269,162,o),
(199,88,o),
(161,88,cs)
);
}
);
width = 415;
}
);
metricLeft = Q;
metricRight = Q;
},
{
glyphname = r.sc;
lastChange = "2022-03-01 14:51:12 +0000";
layers = (
{
layerId = m01;
shapes = (
{
closed = 1;
nodes = (
(171,175,o),
(273,179,o),
(292,281,cs),
(306,362,o),
(227,396,o),
(102,396,c),
(102,343,l),
(207,344,o),
(249,325,o),
(242,288,cs),
(232,231,o),
(160,227,o),
(86,227,c),
(78,175,l)
);
},
{
closed = 1;
nodes = (
(78,188,l),
(201,15,ls),
(209,4,o),
(216,0,o),
(223,0,cs),
(247,0,o),
(255,26,o),
(243,43,cs),
(139,188,l)
);
},
{
closed = 1;
nodes = (
(128,381,o),
(122,396,o),
(103,396,cs),
(85,396,o),
(78,384,o),
(75,369,cs),
(16,33,ls),
(13,15,o),
(23,0,o),
(39,0,cs),
(58,0,o),
(65,14,o),
(67,28,cs),
(125,363,ls)
);
}
);
width = 324;
},
{
layerId = m002;
shapes = (
{
closed = 1;
nodes = (
(166,151,o),
(303,145,o),
(325,267,cs),
(342,363,o),
(247,396,o),
(132,396,c),
(132,303,l),
(241,303,o),
(234,284,o),
(231,268,cs),
(225,233,o),
(173,225,o),
(96,225,c),
(82,151,l)
);
},
{
closed = 1;
nodes = (
(93,172,l),
(200,23,ls),
(212,7,o),
(225,0,o),
(239,0,cs),
(280,0,o),
(301,43,o),
(278,74,cs),
(206,172,l)
);
},
{
closed = 1;
nodes = (
(183,374,o),
(162,396,o),
(133,396,cs),
(107,396,o),
(88,381,o),
(83,353,cs),
(31,56,ls),
(26,26,o),
(46,0,o),
(76,0,cs),
(104,0,o),
(122,18,o),
(126,44,cs),
(177,340,ls)
);
}
);
width = 367;
}
);
metricLeft = R;
metricRight = R;
},
{
glyphname = s.sc;
lastChange = "2022-02-27 12:59:36 +0000";
layers = (
{
layerId = m01;
shapes = (
{
closed = 1;
nodes = (
(164,0,o),
(272,31,o),
(272,117,cs),
(272,172,o),
(227,203,o),
(217,210,cs),
(202,220,o),
(189,229,o),
(178,237,cs),
(132,269,o),
(112,282,o),
(112,295,cs),
(112,320,o),
(165,343,o),
(207,343,cs),
(295,343,ls),
(309,343,o),
(320,356,o),
(320,370,cs),
(320,391,o),
(304,396,o),
(295,396,cs),
(208,396,ls),
(129,396,o),
(62,348,o),
(62,293,cs),
(62,253,o),
(97,229,o),
(149,194,cs),
(159,187,o),
(170,179,o),
(182,171,cs),
(197,160,o),
(222,142,o),
(222,116,cs),
(222,69,o),
(142,53,o),
(106,53,cs),
(38,53,ls),
(24,53,o),
(13,39,o),
(13,26,cs),
(13,5,o),
(30,0,o),
(38,0,cs),
(106,0,ls)
);
}
);
width = 321;
},
{
layerId = m002;
shapes = (
{
closed = 1;
nodes = (
(200,0,o),
(318,31,o),
(318,126,cs),
(318,187,o),
(263,221,o),
(255,227,cs),
(243,236,o),
(234,242,o),
(222,250,cs),
(198,266,o),
(173,280,o),
(173,285,cs),
(173,292,o),
(200,303,o),
(232,303,cs),
(312,303,ls),
(339,303,o),
(359,326,o),
(359,350,cs),
(359,382,o),
(339,396,o),
(312,396,cs),
(232,396,ls),
(151,396,o),
(77,346,o),
(77,282,cs),
(77,235,o),
(119,209,o),
(166,175,cs),
(174,169,o),
(185,162,o),
(195,155,cs),
(208,146,o),
(220,137,o),
(220,125,cs),
(220,103,o),
(171,93,o),
(142,93,cs),
(81,93,ls),
(55,93,o),
(34,69,o),
(34,46,cs),
(34,14,o),
(61,0,o),
(81,0,cs),
(142,0,ls)
);
}
);
width = 383;
}
);
metricLeft = S;
metricRight = S;
},
{
glyphname = t.sc;
lastChange = "2022-03-01 14:51:12 +0000";
layers = (
{
layerId = m01;
shapes = (
{
closed = 1;
nodes = (
(168,358,l),
(111,29,ls),
(109,15,o),
(117,0,o),
(135,0,cs),
(153,0,o),
(159,14,o),
(161,24,cs),
(219,358,l)
);
},
{
closed = 1;
nodes = (
(305,342,o),
(314,353,o),
(314,368,cs),
(314,383,o),
(305,395,o),
(289,395,cs),
(104,395,ls),
(87,395,o),
(78,383,o),
(78,368,cs),
(78,353,o),
(87,342,o),
(104,342,cs),
(289,342,ls)
);
}
);
width = 329;
},
{
layerId = m002;
shapes = (
{
closed = 1;
nodes = (
(159,313,l),
(113,52,ls),
(108,25,o),
(129,0,o),
(160,0,cs),
(187,0,o),
(205,18,o),
(209,40,cs),
(257,313,l)
);
},
{
closed = 1;
nodes = (
(323,302,o),
(343,322,o),
(343,348,cs),
(343,375,o),
(323,395,o),
(296,395,cs),
(133,395,ls),
(105,395,o),
(85,375,o),
(85,348,cs),
(85,322,o),
(105,302,o),
(133,302,cs),
(296,302,ls)
);
}
);
width = 368;
}
);
metricLeft = T;
metricRight = T;
},
{
glyphname = u.sc;
lastChange = "2022-03-01 14:51:12 +0000";
layers = (
{
layerId = m01;
shapes = (
{
closed = 1;
nodes = (
(283,305,l),
(271,254,o),
(249,227,o),
(238,209,cs),
(203,151,o),
(124,50,o),
(85,50,cs),
(71,50,o),
(74,76,o),
(81,113,cs),
(126,364,ls),
(129,379,o),
(121,394,o),
(105,395,cs),
(91,395,o),
(79,385,o),
(76,367,cs),
(31,118,ls),
(17,38,o),
(38,-2,o),
(80,-2,cs),
(134,-2,o),
(210,70,o),
(295,196,c),
(295,305,l)
);
},
{
closed = 1;
nodes = (
(348,381,o),
(338,395,o),
(320,395,cs),
(306,395,o),
(296,385,o),
(294,371,cs),
(234,29,ls),
(231,12,o),
(243,-1,o),
(258,-1,cs),
(271,-1,o),
(282,9,o),
(284,23,cs),
(345,366,ls)
);
}
);
width = 360;
},
{
layerId = m002;
shapes = (
{
closed = 1;
nodes = (
(272,316,l),
(265,264,o),
(247,232,o),
(235,213,cs),
(204,161,o),
(148,90,o),
(139,90,cs),
(134,90,o),
(138,119,o),
(143,148,cs),
(178,341,ls),
(183,368,o),
(165,394,o),
(136,396,cs),
(111,396,o),
(89,379,o),
(84,352,cs),
(44,131,ls),
(28,44,o),
(59,-2,o),
(113,-2,cs),
(175,-2,o),
(240,77,o),
(318,194,c),
(328,316,l)
);
},
{
closed = 1;
nodes = (
(377,371,o),
(356,396,o),
(325,396,cs),
(301,396,o),
(281,378,o),
(277,355,cs),
(224,52,ls),
(219,23,o),
(242,-1,o),
(270,-1,cs),
(294,-1,o),
(314,16,o),
(318,39,cs),
(372,343,ls)
);
}
);
width = 398;
}
);
metricLeft = U;
metricRight = U;
},
{
glyphname = v.sc;
lastChange = "2022-03-01 14:51:12 +0000";
layers = (
{
layerId = m01;
shapes = (
{
closed = 1;
nodes = (
(143,0,o),
(153,13,o),
(157,21,cs),
(333,358,ls),
(343,377,o),
(330,395,o),
(314,395,cs),
(298,395,o),
(291,386,o),
(284,373,cs),
(119,57,l),
(127,0,l)
);
},
{
closed = 1;
nodes = (
(126,370,ls),
(125,384,o),
(117,395,o),
(100,395,cs),
(83,395,o),
(75,381,o),
(76,367,cs),
(104,28,ls),
(105,13,o),
(115,0,o),
(128,0,c),
(152,57,l)
);
}
);
width = 351;
},
{
layerId = m002;
shapes = (
{
closed = 1;
nodes = (
(169,0,o),
(192,11,o),
(203,32,cs),
(358,329,ls),
(375,362,o),
(352,395,o),
(319,395,cs),
(296,395,o),
(279,383,o),
(269,364,cs),
(119,77,l),
(150,0,l)
);
},
{
closed = 1;
nodes = (
(178,352,ls),
(176,377,o),
(157,395,o),
(130,395,cs),
(100,395,o),
(83,372,o),
(83,347,c),
(108,46,ls),
(111,13,o),
(133,0,o),
(151,0,c),
(201,69,l)
);
}
);
width = 389;
}
);
metricLeft = V;
metricRight = V;
},
{
glyphname = w.sc;
lastChange = "2022-03-01 14:51:12 +0000";
layers = (
{
layerId = m01;
shapes = (
{
closed = 1;
nodes = (
(354,0,o),
(363,10,o),
(369,21,cs),
(545,358,ls),
(554,375,o),
(543,396,o),
(526,396,cs),
(513,396,o),
(502,386,o),
(495,373,cs),
(333,63,l),
(340,0,l)
);
},
{
closed = 1;
nodes = (
(126,369,ls),
(125,383,o),
(117,396,o),
(100,396,cs),
(83,396,o),
(75,381,o),
(76,367,cs),
(104,28,ls),
(105,14,o),
(114,0,o),
(129,0,c),
(151,63,l)
);
},
{
closed = 1;
nodes = (
(143,0,o),
(150,9,o),
(157,22,cs),
(321,337,l),
(312,396,l),
(299,396,o),
(289,383,o),
(284,374,cs),
(122,63,l),
(128,0,l)
);
},
{
closed = 1;
nodes = (
(339,370,ls),
(338,384,o),
(327,396,o),
(311,396,c),
(292,337,l),
(316,22,ls),
(317,10,o),
(327,0,o),
(341,0,c),
(364,63,l)
);
}
);
width = 563;
},
{
layerId = m002;
shapes = (
{
closed = 1;
nodes = (
(365,0,o),
(378,8,o),
(390,30,cs),
(546,329,ls),
(563,361,o),
(541,396,o),
(507,396,cs),
(486,396,o),
(467,383,o),
(457,364,cs),
(310,83,l),
(343,0,l)
);
},
{
closed = 1;
nodes = (
(179,351,ls),
(177,379,o),
(155,396,o),
(130,396,cs),
(98,396,o),
(82,370,o),
(84,346,cs),
(108,46,ls),
(110,15,o),
(119,0,o),
(143,0,c),
(201,76,l)
);
},
{
closed = 1;
nodes = (
(168,0,o),
(190,9,o),
(202,31,cs),
(351,317,l),
(318,396,l),
(298,396,o),
(284,388,o),
(271,364,cs),
(123,83,l),
(144,0,l)
);
},
{
closed = 1;
nodes = (
(366,351,l),
(365,383,o),
(343,396,o),
(319,396,c),
(275,324,l),
(296,40,ls),
(298,9,o),
(323,0,o),
(342,0,c),
(389,76,l)
);
}
);
width = 577;
}
);
metricLeft = W;
metricRight = W;
},
{
glyphname = x.sc;
lastChange = "2022-03-01 14:51:12 +0000";
layers = (
{
layerId = m01;
shapes = (
{
closed = 1;
nodes = (
(355,365,o),
(356,384,o),
(345,392,cs),
(334,399,o),
(315,396,o),
(304,383,cs),
(21,42,ls),
(11,30,o),
(13,13,o),
(23,5,cs),
(35,-3,o),
(52,-3,o),
(62,10,cs),
(345,351,l)
);
},
{
closed = 1;
nodes = (
(119,393,o),
(105,399,o),
(93,394,cs),
(79,390,o),
(72,373,o),
(80,356,cs),
(241,18,ls),
(249,1,o),
(265,-4,o),
(279,3,cs),
(290,10,o),
(295,24,o),
(289,37,cs),
(127,377,ls)
);
}
);
width = 367;
},
{
layerId = m002;
shapes = (
{
closed = 1;
nodes = (
(385,339,o),
(386,372,o),
(361,389,cs),
(342,402,o),
(308,397,o),
(291,376,cs),
(42,75,ls),
(24,53,o),
(27,26,o),
(46,10,cs),
(67,-6,o),
(101,-3,o),
(119,18,cs),
(369,320,ls)
);
},
{
closed = 1;
nodes = (
(164,392,o),
(137,402,o),
(115,392,c),
(89,384,o),
(76,356,o),
(89,328,cs),
(232,29,ls),
(245,1,o),
(280,-8,o),
(303,6,cs),
(323,20,o),
(332,42,o),
(321,65,cs),
(177,366,ls)
);
}
);
width = 406;
}
);
metricLeft = X;
metricRight = X;
},
{
glyphname = y.sc;
lastChange = "2022-03-01 14:51:12 +0000";
layers = (
{
layerId = m01;
shapes = (
{
closed = 1;
nodes = (
(348,351,ls),
(360,366,o),
(358,382,o),
(347,390,cs),
(335,400,o),
(320,396,o),
(309,382,cs),
(170,215,l),
(200,171,l)
);
},
{
closed = 1;
nodes = (
(165,208,l),
(133,29,ls),
(130,14,o),
(140,0,o),
(157,0,cs),
(176,0,o),
(182,14,o),
(184,24,cs),
(215,208,l)
);
},
{
closed = 1;
nodes = (
(208,215,l),
(128,377,ls),
(121,391,o),
(109,400,o),
(92,394,cs),
(79,389,o),
(75,372,o),
(82,357,cs),
(170,175,l)
);
}
);
width = 370;
},
{
layerId = m002;
shapes = (
{
closed = 1;
nodes = (
(370,320,l),
(386,342,o),
(387,368,o),
(365,385,cs),
(346,401,o),
(314,399,o),
(294,376,cs),
(160,214,l),
(217,134,l)
);
},
{
closed = 1;
nodes = (
(167,230,l),
(135,52,ls),
(130,24,o),
(151,0,o),
(181,0,cs),
(209,0,o),
(225,19,o),
(230,40,c),
(261,230,l)
);
},
{
closed = 1;
nodes = (
(256,209,l),
(178,366,ls),
(165,392,o),
(138,402,o),
(114,392,cs),
(87,382,o),
(80,352,o),
(91,329,cs),
(185,136,l)
);
}
);
width = 406;
}
);
metricLeft = Y;
metricRight = Y;
},
{
glyphname = z.sc;
lastChange = "2022-03-01 14:51:12 +0000";
layers = (
{
layerId = m01;
shapes = (
{
closed = 1;
nodes = (
(352,360,o),
(353,373,o),
(348,383,cs),
(344,389,o),
(335,395,o),
(323,395,cs),
(316,395,o),
(309,387,o),
(305,383,cs),
(21,40,ls),
(16,33,o),
(11,23,o),
(16,13,cs),
(20,5,o),
(29,0,o),
(44,0,cs),
(52,0,o),
(58,6,o),
(62,10,cs),
(344,351,ls)
);
},
{
closed = 1;
nodes = (
(264,0,ls),
(281,0,o),
(290,11,o),
(290,26,cs),
(290,41,o),
(281,53,o),
(264,53,cs),
(89,53,l),
(43,0,l)
);
},
{
closed = 1;
nodes = (
(325,395,l),
(101,395,ls),
(84,395,o),
(75,381,o),
(75,368,cs),
(75,355,o),
(84,342,o),
(101,342,cs),
(280,342,l)
);
}
);
width = 366;
},
{
layerId = m002;
shapes = (
{
closed = 1;
nodes = (
(382,333,o),
(382,354,o),
(374,372,cs),
(366,386,o),
(348,395,o),
(329,395,cs),
(319,395,o),
(300,386,o),
(293,380,c),
(41,75,ls),
(31,62,o),
(26,44,o),
(34,26,cs),
(41,10,o),
(59,0,o),
(82,0,cs),
(98,0,o),
(112,8,o),
(120,17,cs),
(369,318,ls)
);
},
{
closed = 1;
nodes = (
(277,0,ls),
(305,0,o),
(325,20,o),
(325,46,cs),
(325,72,o),
(305,93,o),
(277,93,cs),
(161,93,l),
(80,0,l)
);
},
{
closed = 1;
nodes = (
(331,395,l),
(132,395,ls),
(103,395,o),
(84,372,o),
(84,348,cs),
(84,324,o),
(104,302,o),
(132,302,cs),
(252,302,l)
);
}
);
width = 406;
}
);
metricLeft = Z;
metricRight = Z;
},
{
glyphname = zero;
lastChange = "2022-02-28 10:41:34 +0000";
layers = (
{
layerId = m01;
shapes = (
{
closed = 1;
nodes = (
(273,-3,o),
(442,228,o),
(442,402,cs),
(442,477,o),
(413,568,o),
(307,568,cs),
(118,568,o),
(41,280,o),
(41,160,cs),
(41,81,o),
(75,-4,o),
(150,-4,cs)
);
},
{
closed = 1;
nodes = (
(118,47,o),
(93,84,o),
(93,155,cs),
(93,279,o),
(172,517,o),
(309,517,cs),
(374,517,o),
(390,463,o),
(390,405,cs),
(390,212,o),
(214,47,o),
(149,47,cs)
);
}
);
width = 445;
},
{
layerId = m002;
shapes = (
{
closed = 1;
nodes = (
(315,-3,o),
(480,223,o),
(480,395,cs),
(480,471,o),
(448,568,o),
(328,568,cs),
(128,568,o),
(53,290,o),
(53,172,cs),
(53,91,o),
(90,-4,o),
(180,-4,cs)
);
},
{
closed = 1;
nodes = (
(164,88,o),
(152,107,o),
(152,168,cs),
(152,281,o),
(220,476,o),
(330,476,cs),
(372,476,o),
(381,449,o),
(381,398,cs),
(381,225,o),
(230,88,o),
(180,88,cs)
);
}
);
width = 495;
}
);
unicode = 48;
},
{
glyphname = one;
lastChange = "2022-02-28 10:41:51 +0000";
layers = (
{
layerId = m01;
shapes = (
{
closed = 1;
nodes = (
(315,560,o),
(304,568,o),
(291,568,cs),
(278,568,o),
(264,561,o),
(261,543,cs),
(170,28,ls),
(167,9,o),
(179,0,o),
(192,0,cs),
(204,0,o),
(217,6,o),
(220,23,cs),
(312,543,ls)
);
}
);
width = 445;
},
{
layerId = m002;
shapes = (
{
closed = 1;
nodes = (
(364,548,o),
(340,568,o),
(313,568,cs),
(290,568,o),
(264,554,o),
(259,526,cs),
(175,51,ls),
(169,18,o),
(195,0,o),
(222,0,cs),
(244,0,o),
(269,12,o),
(274,39,cs),
(359,518,ls)
);
}
);
width = 495;
}
);
unicode = 49;
},
{
glyphname = two;
lastChange = "2022-02-28 10:42:06 +0000";
layers = (
{
layerId = m01;
shapes = (
{
closed = 1;
nodes = (
(126,49,l),
(183,115,o),
(311,263,o),
(324,278,cs),
(449,431,o),
(460,501,o),
(381,549,cs),
(312,591,o),
(193,558,o),
(130,505,cs),
(106,485,o),
(110,472,o),
(118,463,cs),
(126,454,o),
(142,451,o),
(167,471,cs),
(219,513,o),
(315,531,o),
(358,505,cs),
(408,475,o),
(355,393,o),
(303,332,cs),
(277,301,o),
(174,185,o),
(39,35,cs),
(22,16,o),
(33,0,o),
(55,0,c),
(76,0,l)
);
},
{
closed = 1;
nodes = (
(327,0,ls),
(347,0,o),
(353,13,o),
(353,25,cs),
(353,37,o),
(347,50,o),
(327,50,cs),
(72,50,l),
(72,0,l)
);
}
);
width = 445;
},
{
layerId = m002;
shapes = (
{
closed = 1;
nodes = (
(181,49,l),
(236,112,o),
(356,251,o),
(367,264,cs),
(492,417,o),
(506,491,o),
(415,547,cs),
(340,593,o),
(212,558,o),
(148,504,cs),
(114,476,o),
(120,454,o),
(137,434,cs),
(149,421,o),
(179,413,o),
(217,443,cs),
(262,479,o),
(335,493,o),
(367,473,cs),
(394,457,o),
(357,398,o),
(310,343,cs),
(284,313,o),
(187,205,o),
(62,65,cs),
(31,29,o),
(56,0,o),
(96,0,cs),
(139,0,l)
);
},
{
closed = 1;
nodes = (
(351,0,ls),
(381,0,o),
(401,14,o),
(401,41,cs),
(401,65,o),
(383,86,o),
(351,86,cs),
(95,86,l),
(95,0,l)
);
}
);
width = 495;
}
);
unicode = 50;
},
{
glyphname = three;
lastChange = "2022-02-28 10:42:20 +0000";
layers = (
{
layerId = m01;
shapes = (
{
closed = 1;
nodes = (
(196,296,o),
(233,305,o),
(261,305,cs),
(320,305,o),
(340,266,o),
(340,225,cs),
(340,125,o),
(222,47,o),
(134,47,cs),
(110,47,o),
(88,53,o),
(71,66,cs),
(47,84,o),
(33,72,o),
(28,65,cs),
(23,58,o),
(18,45,o),
(43,25,cs),
(67,5,o),
(99,-4,o),
(133,-4,cs),
(247,-4,o),
(390,98,o),
(390,226,cs),
(390,303,o),
(339,354,o),
(256,354,cs),
(220,354,o),
(178,345,o),
(132,324,c),
(148,275,l)
);
},
{
closed = 1;
nodes = (
(269,355,o),
(387,437,o),
(387,499,cs),
(387,542,o),
(347,568,o),
(288,568,cs),
(240,568,o),
(179,551,o),
(119,511,cs),
(94,495,o),
(99,478,o),
(104,470,cs),
(110,460,o),
(126,455,o),
(139,464,cs),
(200,505,o),
(257,522,o),
(294,522,cs),
(321,522,o),
(337,513,o),
(337,499,cs),
(337,466,o),
(202,368,o),
(118,316,cs),
(101,305,o),
(104,288,o),
(108,280,cs),
(113,270,o),
(131,263,o),
(146,273,cs)
);
}
);
width = 445;
},
{
layerId = m002;
shapes = (
{
closed = 1;
nodes = (
(254,279,o),
(273,282,o),
(301,282,cs),
(340,282,o),
(356,262,o),
(350,228,cs),
(335,145,o),
(245,86,o),
(170,86,cs),
(152,86,o),
(139,90,o),
(126,100,cs),
(95,124,o),
(60,113,o),
(49,93,cs),
(38,76,o),
(36,54,o),
(69,28,cs),
(95,7,o),
(132,-4,o),
(169,-4,cs),
(289,-4,o),
(424,96,o),
(447,229,cs),
(462,313,o),
(404,379,o),
(312,379,cs),
(269,379,o),
(218,366,o),
(165,339,c),
(197,250,l)
);
},
{
closed = 1;
nodes = (
(320,334,o),
(431,410,o),
(444,481,cs),
(454,535,o),
(394,568,o),
(326,568,cs),
(272,568,o),
(211,550,o),
(151,510,cs),
(118,489,o),
(119,463,o),
(131,445,cs),
(143,423,o),
(172,424,o),
(195,439,cs),
(250,476,o),
(300,488,o),
(331,488,cs),
(338,488,o),
(348,487,o),
(347,481,cs),
(344,465,o),
(230,381,o),
(153,333,cs),
(126,316,o),
(125,290,o),
(135,270,cs),
(146,249,o),
(180,237,o),
(207,256,cs)
);
}
);
width = 495;
}
);
unicode = 51;
},
{
glyphname = four;
lastChange = "2022-02-28 10:42:34 +0000";
layers = (
{
layerId = m01;
shapes = (
{
closed = 1;
nodes = (
(189,558,o),
(177,568,o),
(165,568,cs),
(153,568,o),
(139,562,o),
(136,544,cs),
(67,159,ls),
(65,147,o),
(74,135,o),
(92,135,cs),
(109,135,o),
(116,148,o),
(118,160,cs),
(186,540,ls)
);
},
{
closed = 1;
nodes = (
(301,299,o),
(290,309,o),
(278,311,cs),
(265,313,o),
(251,306,o),
(248,289,cs),
(201,31,ls),
(197,11,o),
(208,1,o),
(221,0,cs),
(233,-1,o),
(247,6,o),
(251,26,cs),
(298,282,ls)
);
},
{
closed = 1;
nodes = (
(392,135,ls),
(408,135,o),
(418,146,o),
(418,158,cs),
(418,170,o),
(408,180,o),
(392,180,cs),
(93,180,l),
(93,135,l)
);
}
);
width = 445;
},
{
layerId = m002;
shapes = (
{
closed = 1;
nodes = (
(248,551,o),
(222,568,o),
(196,568,cs),
(173,568,o),
(147,555,o),
(142,527,cs),
(79,170,ls),
(75,145,o),
(96,122,o),
(128,122,cs),
(154,122,o),
(175,140,o),
(179,164,cs),
(242,519,ls)
);
},
{
closed = 1;
nodes = (
(342,308,o),
(331,326,o),
(307,331,cs),
(283,335,o),
(263,320,o),
(258,292,cs),
(216,59,ls),
(210,26,o),
(220,0,o),
(246,0,cs),
(274,0,o),
(290,16,o),
(295,44,cs),
(337,279,ls)
);
},
{
closed = 1;
nodes = (
(410,122,ls),
(438,122,o),
(459,143,o),
(459,168,cs),
(459,192,o),
(438,212,o),
(410,212,cs),
(127,212,l),
(127,122,l)
);
}
);
width = 495;
}
);
unicode = 52;
},
{
glyphname = five;
lastChange = "2022-02-28 10:42:49 +0000";
layers = (
{
layerId = m01;
shapes = (
{
closed = 1;
nodes = (
(160,299,o),
(188,304,o),
(213,304,cs),
(292,304,o),
(326,252,o),
(326,211,cs),
(326,149,o),
(250,47,o),
(153,47,cs),
(128,47,o),
(106,54,o),
(92,67,cs),
(85,74,o),
(78,76,o),
(71,76,cs),
(58,76,o),
(47,67,o),
(47,54,cs),
(47,46,o),
(51,37,o),
(60,28,cs),
(81,8,o),
(114,-3,o),
(153,-3,cs),
(284,-3,o),
(376,125,o),
(376,212,cs),
(376,287,o),
(312,354,o),
(210,354,cs),
(182,354,o),
(154,349,o),
(119,337,c),
(123,288,l)
);
},
{
closed = 1;
nodes = (
(166,568,l),
(156,568,o),
(148,566,o),
(143,562,cs),
(138,558,o),
(134,551,o),
(132,541,cs),
(91,310,ls),
(88,295,o),
(101,286,o),
(114,286,cs),
(126,286,o),
(139,294,o),
(142,310,cs),
(183,541,l)
);
},
{
closed = 1;
nodes = (
(409,523,ls),
(429,523,o),
(435,533,o),
(435,545,cs),
(435,557,o),
(429,568,o),
(409,568,cs),
(165,568,l),
(165,523,l)
);
}
);
width = 445;
},
{
layerId = m002;
shapes = (
{
closed = 1;
nodes = (
(209,281,o),
(213,281,o),
(240,281,cs),
(300,281,o),
(318,248,o),
(318,215,cs),
(318,164,o),
(261,83,o),
(183,83,cs),
(165,83,o),
(150,86,o),
(140,93,cs),
(128,101,o),
(119,110,o),
(106,110,cs),
(81,110,o),
(58,97,o),
(58,72,cs),
(58,58,o),
(64,45,o),
(78,31,cs),
(102,8,o),
(141,-3,o),
(182,-3,cs),
(322,-3,o),
(418,125,o),
(418,216,cs),
(418,298,o),
(348,372,o),
(237,372,cs),
(203,372,o),
(166,364,o),
(125,348,c),
(157,265,l)
);
},
{
closed = 1;
nodes = (
(212,571,l),
(190,571,o),
(169,571,o),
(158,562,cs),
(148,554,o),
(142,543,o),
(139,528,cs),
(100,312,ls),
(94,281,o),
(123,264,o),
(147,264,cs),
(169,264,o),
(197,281,o),
(201,304,cs),
(240,529,l)
);
},
{
closed = 1;
nodes = (
(426,487,ls),
(458,487,o),
(475,505,o),
(475,529,cs),
(475,556,o),
(456,571,o),
(426,571,cs),
(210,571,l),
(195,487,l)
);
}
);
width = 495;
}
);
unicode = 53;
},
{
glyphname = six;
lastChange = "2022-02-28 10:43:02 +0000";
layers = (
{
layerId = m01;
shapes = (
{
closed = 1;
nodes = (
(127,209,o),
(161,288,o),
(231,387,cs),
(258,425,o),
(304,471,o),
(379,523,cs),
(390,530,o),
(394,540,o),
(394,548,cs),
(393,559,o),
(385,568,o),
(372,568,cs),
(366,568,o),
(359,566,o),
(351,562,cs),
(304,535,o),
(221,460,o),
(187,412,cs),
(119,316,o),
(78,213,o),
(78,113,c),
(127,113,l)
);
},
{
closed = 1;
nodes = (
(78,53,o),
(126,0,o),
(194,0,cs),
(296,0,o),
(404,149,o),
(404,257,cs),
(404,321,o),
(366,353,o),
(294,353,cs),
(207,353,o),
(146,306,o),
(111,244,c),
(78,114,l)
);
},
{
closed = 1;
nodes = (
(159,50,o),
(128,78,o),
(128,135,cs),
(128,215,o),
(189,303,o),
(292,303,cs),
(333,303,o),
(354,289,o),
(354,251,cs),
(354,173,o),
(262,50,o),
(192,50,cs)
);
}
);
width = 445;
},
{
layerId = m002;
shapes = (
{
closed = 1;
nodes = (
(174,195,o),
(223,274,o),
(291,371,cs),
(317,407,o),
(358,447,o),
(425,494,cs),
(442,506,o),
(450,521,o),
(450,537,cs),
(449,559,o),
(429,576,o),
(404,576,cs),
(394,576,o),
(383,573,o),
(372,568,c),
(324,540,o),
(243,467,o),
(210,421,cs),
(138,319,o),
(107,279,o),
(93,118,c),
(188,114,l)
);
},
{
closed = 1;
nodes = (
(83,84,o),
(140,-1,o),
(221,-1,cs),
(328,-1,o),
(430,143,o),
(430,247,cs),
(430,316,o),
(385,354,o),
(309,354,cs),
(218,354,o),
(141,308,o),
(124,243,cs),
(94,126,ls)
);
},
{
closed = 1;
nodes = (
(201,87,o),
(188,99,o),
(188,140,cs),
(188,204,o),
(230,266,o),
(307,266,cs),
(330,266,o),
(336,260,o),
(336,242,cs),
(336,180,o),
(267,87,o),
(219,87,cs)
);
}
);
width = 495;
}
);
unicode = 54;
},
{
glyphname = seven;
lastChange = "2022-02-28 10:43:17 +0000";
layers = (
{
layerId = m01;
shapes = (
{
closed = 1;
nodes = (
(391,556,o),
(385,568,o),
(365,568,cs),
(354,568,o),
(342,560,o),
(340,549,cs),
(247,26,ls),
(244,8,o),
(255,0,o),
(268,0,cs),
(280,0,o),
(294,8,o),
(297,26,cs),
(389,544,ls)
);
},
{
closed = 1;
nodes = (
(366,568,l),
(119,568,ls),
(101,568,o),
(92,557,o),
(92,546,cs),
(92,534,o),
(101,523,o),
(119,523,cs),
(366,523,l)
);
}
);
width = 445;
},
{
layerId = m002;
shapes = (
{
closed = 1;
nodes = (
(434,551,o),
(425,568,o),
(382,568,cs),
(360,568,o),
(337,558,o),
(333,537,cs),
(247,50,ls),
(242,20,o),
(264,0,o),
(291,0,cs),
(314,0,o),
(339,15,o),
(344,42,cs),
(429,524,ls)
);
},
{
closed = 1;
nodes = (
(383,568,l),
(150,568,ls),
(120,568,o),
(100,551,o),
(100,527,cs),
(100,503,o),
(120,488,o),
(150,488,cs),
(383,488,l)
);
}
);
width = 495;
}
);
unicode = 55;
},
{
glyphname = eight;
lastChange = "2022-02-28 10:43:31 +0000";
layers = (
{
layerId = m01;
shapes = (
{
closed = 1;
nodes = (
(183,325,l),
(93,259,o),
(68,185,o),
(68,132,cs),
(68,74,o),
(97,-4,o),
(194,-4,cs),
(298,-4,o),
(354,84,o),
(354,149,cs),
(354,208,o),
(308,266,o),
(264,307,cs),
(249,321,l)
);
},
{
closed = 1;
nodes = (
(262,238,o),
(303,190,o),
(303,149,cs),
(303,105,o),
(257,45,o),
(200,45,cs),
(150,45,o),
(117,90,o),
(117,139,cs),
(117,178,o),
(138,231,o),
(215,285,c),
(227,273,ls)
);
},
{
closed = 1;
nodes = (
(332,368,o),
(413,431,o),
(413,488,cs),
(413,542,o),
(339,568,o),
(280,568,cs),
(207,568,o),
(120,529,o),
(120,442,cs),
(120,386,o),
(157,350,o),
(183,323,c),
(226,349,l),
(203,371,o),
(171,405,o),
(171,447,cs),
(171,504,o),
(229,518,o),
(270,518,cs),
(306,518,o),
(366,507,o),
(366,488,cs),
(366,462,o),
(257,369,o),
(182,322,c),
(251,312,l)
);
}
);
width = 445;
},
{
layerId = m002;
shapes = (
{
closed = 1;
nodes = (
(204,344,l),
(106,275,o),
(78,197,o),
(78,141,cs),
(78,80,o),
(112,-4,o),
(223,-4,cs),
(338,-4,o),
(398,87,o),
(398,157,cs),
(398,219,o),
(352,280,o),
(307,321,cs),
(285,341,l)
);
},
{
closed = 1;
nodes = (
(258,236,o),
(300,191,o),
(300,148,cs),
(300,114,o),
(269,81,o),
(228,81,cs),
(195,81,o),
(175,108,o),
(175,148,cs),
(175,177,o),
(188,213,o),
(240,254,c),
(245,249,ls)
);
},
{
closed = 1;
nodes = (
(365,343,o),
(454,405,o),
(454,472,cs),
(454,539,o),
(366,569,o),
(304,569,cs),
(227,569,o),
(128,526,o),
(128,428,cs),
(128,355,o),
(186,312,o),
(207,292,c),
(291,341,l),
(272,362,o),
(226,390,o),
(226,433,cs),
(226,470,o),
(253,488,o),
(288,488,cs),
(320,488,o),
(359,486,o),
(359,471,cs),
(359,456,o),
(277,391,o),
(218,355,c),
(283,287,l)
);
}
);
width = 495;
}
);
unicode = 56;
},
{
glyphname = nine;
lastChange = "2022-02-28 10:43:45 +0000";
layers = (
{
layerId = m01;
shapes = (
{
closed = 1;
nodes = (
(350,519,l),
(322,472,o),
(289,423,o),
(248,371,cs),
(187,295,o),
(150,265,o),
(131,265,cs),
(117,265,o),
(117,280,o),
(117,296,cs),
(117,334,o),
(135,424,o),
(161,463,cs),
(191,508,o),
(242,518,o),
(276,518,cs),
(283,518,o),
(351,518,o),
(359,518,c),
(370,518,l),
(370,520,o),
(370,565,o),
(370,568,c),
(358,568,o),
(296,568,o),
(276,568,cs),
(219,568,o),
(160,551,o),
(122,494,cs),
(90,446,o),
(67,349,o),
(67,291,cs),
(67,240,o),
(87,214,o),
(120,214,cs),
(178,214,o),
(230,268,o),
(271,319,cs),
(320,381,o),
(368,458,o),
(391,510,cs),
(395,519,l)
);
},
{
closed = 1;
nodes = (
(416,558,o),
(410,568,o),
(398,568,c),
(350,568,l),
(350,479,l),
(272,24,ls),
(270,8,o),
(281,0,o),
(293,0,cs),
(306,0,o),
(319,8,o),
(322,24,cs),
(414,546,ls)
);
}
);
width = 445;
},
{
layerId = m002;
shapes = (
{
closed = 1;
nodes = (
(350,527,l),
(322,479,o),
(297,431,o),
(257,380,cs),
(200,309,o),
(186,302,o),
(182,302,cs),
(177,302,o),
(176,315,o),
(176,320,cs),
(176,343,o),
(187,408,o),
(209,440,cs),
(232,476,o),
(267,481,o),
(296,481,cs),
(302,481,o),
(366,481,o),
(374,481,cs),
(409,481,l),
(409,506,o),
(409,546,o),
(409,568,c),
(386,568,o),
(317,568,o),
(296,568,cs),
(237,568,o),
(171,554,o),
(130,493,cs),
(97,443,o),
(74,348,o),
(74,291,cs),
(74,226,o),
(107,196,o),
(149,196,cs),
(217,196,o),
(272,255,o),
(311,303,cs),
(358,363,o),
(405,439,o),
(427,487,cs),
(445,527,l)
);
},
{
closed = 1;
nodes = (
(459,555,o),
(444,568,o),
(411,568,cs),
(340,568,l),
(342,469,l),
(267,43,ls),
(261,11,o),
(290,-5,o),
(312,-5,cs),
(335,-5,o),
(362,10,o),
(367,36,cs),
(454,529,ls)
);
}
);
width = 495;
}
);
unicode = 57;
},
{
glyphname = zero.c2sc;
lastChange = "2022-02-28 10:48:13 +0000";
layers = (
{
layerId = m01;
shapes = (
{
closed = 1;
nodes = (
(195,0,o),
(309,157,o),
(309,276,cs),
(309,328,o),
(289,396,o),
(211,396,cs),
(79,396,o),
(27,196,o),
(27,115,cs),
(27,61,o),
(50,-1,o),
(107,-1,cs)
);
},
{
closed = 1;
nodes = (
(91,47,o),
(77,67,o),
(77,111,cs),
(77,193,o),
(128,348,o),
(213,348,cs),
(250,348,o),
(259,315,o),
(259,278,cs),
(259,152,o),
(147,47,o),
(107,47,cs)
);
}
);
width = 336;
},
{
layerId = m002;
shapes = (
{
closed = 1;
nodes = (
(230,0,o),
(338,152,o),
(338,267,cs),
(338,319,o),
(315,396,o),
(226,396,cs),
(88,396,o),
(39,201,o),
(39,125,cs),
(39,71,o),
(64,-1,o),
(134,-1,cs)
);
},
{
closed = 1;
nodes = (
(131,87,o),
(128,94,o),
(128,121,cs),
(128,191,o),
(167,308,o),
(228,308,cs),
(242,308,o),
(247,296,o),
(247,269,cs),
(247,166,o),
(160,87,o),
(139,87,c)
);
}
);
width = 378;
}
);
metricLeft = zero;
metricRight = zero;
},
{
glyphname = one.c2sc;
lastChange = "2022-02-28 10:48:13 +0000";
layers = (
{
layerId = m01;
shapes = (
{
closed = 1;
nodes = (
(281,387,o),
(268,396,o),
(256,396,cs),
(244,396,o),
(230,389,o),
(227,373,cs),
(166,26,ls),
(163,8,o),
(176,0,o),
(189,0,cs),
(199,0,o),
(213,5,o),
(216,21,cs),
(278,371,ls)
);
}
);
width = 445;
},
{
layerId = m002;
shapes = (
{
closed = 1;
nodes = (
(326,387,o),
(295,396,o),
(279,396,cs),
(263,396,o),
(231,389,o),
(225,355,cs),
(170,43,ls),
(164,8,o),
(195,0,o),
(212,0,cs),
(226,0,o),
(258,5,o),
(264,38,cs),
(320,353,ls)
);
}
);
width = 489;
}
);
metricLeft = one;
metricRight = one;
},
{
glyphname = two.c2sc;
lastChange = "2022-02-28 10:48:13 +0000";
layers = (
{
layerId = m01;
shapes = (
{
closed = 1;
nodes = (
(104,34,l),
(142,79,o),
(229,179,o),
(238,190,cs),
(326,295,o),
(334,347,o),
(275,382,cs),
(225,413,o),
(139,389,o),
(96,352,cs),
(76,335,o),
(79,323,o),
(87,313,cs),
(94,305,o),
(111,302,o),
(131,319,cs),
(165,347,o),
(224,358,o),
(251,341,cs),
(278,325,o),
(246,275,o),
(212,234,cs),
(195,213,o),
(124,135,o),
(34,34,cs),
(17,15,o),
(30,0,o),
(51,0,cs),
(68,0,l)
);
},
{
closed = 1;
nodes = (
(234,0,ls),
(254,0,o),
(260,14,o),
(260,24,cs),
(260,34,o),
(254,48,o),
(234,48,cs),
(63,48,l),
(63,0,l)
);
}
);
width = 356;
},
{
layerId = m002;
shapes = (
{
closed = 1;
nodes = (
(158,38,l),
(191,78,o),
(269,167,o),
(276,176,cs),
(361,278,o),
(372,339,o),
(303,381,cs),
(248,414,o),
(159,389,o),
(115,351,cs),
(87,327,o),
(88,305,o),
(104,285,cs),
(118,269,o),
(152,264,o),
(179,288,cs),
(205,309,o),
(240,315,o),
(251,308,cs),
(259,303,o),
(243,279,o),
(215,244,cs),
(199,225,o),
(137,157,o),
(58,68,cs),
(29,35,o),
(53,0,o),
(92,0,cs),
(117,0,l)
);
},
{
closed = 1;
nodes = (
(254,0,ls),
(284,0,o),
(302,22,o),
(302,44,cs),
(302,66,o),
(284,88,o),
(254,88,cs),
(108,88,l),
(108,0,l)
);
}
);
width = 400;
}
);
metricLeft = two;
metricRight = two;
},
{
glyphname = three.c2sc;
lastChange = "2022-02-28 10:48:13 +0000";
layers = (
{
layerId = m01;
shapes = (
{
closed = 1;
nodes = (
(140,196,o),
(165,203,o),
(184,203,cs),
(219,203,o),
(229,183,o),
(229,157,cs),
(229,93,o),
(156,45,o),
(99,45,cs),
(84,45,o),
(73,48,o),
(62,57,cs),
(42,71,o),
(26,59,o),
(23,54,cs),
(17,47,o),
(12,36,o),
(34,18,cs),
(51,4,o),
(75,-3,o),
(99,-3,cs),
(179,-3,o),
(279,68,o),
(279,157,cs),
(279,213,o),
(242,250,o),
(181,250,cs),
(154,250,o),
(122,243,o),
(89,226,c),
(104,180,l)
);
},
{
closed = 1;
nodes = (
(195,239,o),
(277,297,o),
(277,342,cs),
(277,375,o),
(244,396,o),
(202,396,cs),
(169,396,o),
(125,383,o),
(85,357,cs),
(65,344,o),
(68,328,o),
(73,321,c),
(77,311,o),
(94,304,o),
(107,313,cs),
(148,341,o),
(183,351,o),
(206,351,cs),
(222,351,o),
(227,348,o),
(227,342,cs),
(227,324,o),
(140,258,o),
(84,223,cs),
(69,213,o),
(72,198,o),
(74,191,cs),
(78,182,o),
(97,173,o),
(112,183,cs)
);
}
);
width = 349;
},
{
layerId = m002;
shapes = (
{
closed = 1;
nodes = (
(169,174,o),
(189,181,o),
(204,181,cs),
(217,181,o),
(223,176,o),
(223,159,cs),
(223,119,o),
(176,86,o),
(140,86,cs),
(124,86,o),
(119,90,o),
(112,95,cs),
(88,112,o),
(55,99,o),
(45,84,cs),
(33,66,o),
(28,43,o),
(57,19,cs),
(76,4,o),
(105,-4,o),
(133,-4,cs),
(216,-4,o),
(317,71,o),
(317,163,cs),
(317,225,o),
(274,264,o),
(206,264,cs),
(174,264,o),
(139,253,o),
(108,239,c),
(162,169,l)
);
},
{
closed = 1;
nodes = (
(234,218,o),
(316,271,o),
(316,325,cs),
(316,364,o),
(280,396,o),
(224,396,cs),
(190,396,o),
(145,382,o),
(107,357,cs),
(79,339,o),
(78,314,o),
(87,296,cs),
(97,274,o),
(127,269,o),
(149,285,cs),
(183,308,o),
(208,322,o),
(220,325,cs),
(227,327,o),
(229,325,o),
(224,318,cs),
(217,307,o),
(159,265,o),
(107,239,cs),
(85,228,o),
(81,204,o),
(88,186,cs),
(96,164,o),
(134,150,o),
(160,168,cs)
);
}
);
width = 383;
}
);
metricLeft = three;
metricRight = three;
},
{
glyphname = four.c2sc;
lastChange = "2022-02-28 10:48:13 +0000";
layers = (
{
layerId = m01;
shapes = (
{
closed = 1;
nodes = (
(156,387,o),
(143,396,o),
(130,396,cs),
(120,396,o),
(106,390,o),
(103,374,cs),
(56,116,l),
(55,103,o),
(64,91,o),
(81,91,cs),
(97,91,o),
(105,103,o),
(106,114,c),
(153,369,ls)
);
},
{
closed = 1;
nodes = (
(230,211,o),
(219,221,o),
(209,224,cs),
(196,226,o),
(181,219,o),
(178,202,cs),
(146,29,ls),
(143,11,o),
(154,0,o),
(168,0,cs),
(178,0,o),
(193,6,o),
(196,23,cs),
(227,195,ls)
);
},
{
closed = 1;
nodes = (
(283,91,ls),
(299,91,o),
(309,103,o),
(309,114,cs),
(309,125,o),
(299,135,o),
(283,135,cs),
(74,135,l),
(74,91,l)
);
}
);
width = 348;
},
{
layerId = m002;
shapes = (
{
closed = 1;
nodes = (
(210,376,o),
(185,396,o),
(159,396,cs),
(138,396,o),
(115,383,o),
(110,358,cs),
(68,129,ls),
(63,103,o),
(86,80,o),
(115,80,cs),
(141,80,o),
(158,99,o),
(162,122,cs),
(204,345,ls)
);
},
{
closed = 1;
nodes = (
(299,218,o),
(280,241,o),
(260,243,cs),
(235,246,o),
(205,235,o),
(200,206,cs),
(172,53,ls),
(167,23,o),
(188,0,o),
(214,0,cs),
(235,0,o),
(261,12,o),
(266,39,cs),
(294,191,ls)
);
},
{
closed = 1;
nodes = (
(314,80,ls),
(341,80,o),
(362,101,o),
(362,124,cs),
(362,147,o),
(341,165,o),
(314,165,cs),
(112,165,l),
(112,80,l)
);
}
);
width = 410;
}
);
metricLeft = four;
metricRight = four;
},
{
glyphname = five.c2sc;
lastChange = "2022-02-28 10:48:13 +0000";
layers = (
{
layerId = m01;
shapes = (
{
closed = 1;
nodes = (
(123,200,o),
(142,204,o),
(161,204,cs),
(209,204,o),
(228,174,o),
(228,149,cs),
(228,109,o),
(181,44,o),
(121,44,cs),
(105,44,o),
(93,50,o),
(85,57,cs),
(79,63,o),
(71,65,o),
(65,65,cs),
(53,65,o),
(41,56,o),
(41,44,cs),
(41,38,o),
(45,29,o),
(52,21,c),
(68,7,o),
(92,-4,o),
(121,-4,cs),
(213,-4,o),
(278,89,o),
(278,150,cs),
(278,203,o),
(232,252,o),
(158,252,cs),
(137,252,o),
(116,248,o),
(89,239,c),
(93,192,l)
);
},
{
closed = 1;
nodes = (
(133,395,l),
(127,398,o),
(114,394,o),
(109,389,c),
(103,386,o),
(100,379,o),
(98,372,c),
(70,216,ls),
(67,202,o),
(79,193,o),
(94,193,cs),
(105,193,o),
(119,200,o),
(121,214,cs),
(148,371,l)
);
},
{
closed = 1;
nodes = (
(292,352,ls),
(310,352,o),
(317,362,o),
(317,373,cs),
(317,383,o),
(311,396,o),
(292,396,cs),
(120,396,l),
(120,352,l)
);
}
);
width = 361;
},
{
layerId = m002;
shapes = (
{
closed = 1;
nodes = (
(154,177,o),
(167,183,o),
(190,180,cs),
(211,177,o),
(220,171,o),
(220,151,cs),
(220,126,o),
(190,85,o),
(160,85,cs),
(141,85,o),
(136,89,o),
(130,93,cs),
(123,98,o),
(111,103,o),
(93,103,cs),
(77,103,o),
(54,85,o),
(54,67,cs),
(54,52,o),
(58,37,o),
(70,26,cs),
(87,10,o),
(116,-4,o),
(150,-4,cs),
(247,-4,o),
(314,92,o),
(314,156,cs),
(314,215,o),
(262,269,o),
(183,269,cs),
(156,269,o),
(126,261,o),
(120,259,c),
(135,172,l)
);
},
{
closed = 1;
nodes = (
(179,390,l),
(158,401,o),
(134,396,o),
(122,385,cs),
(113,378,o),
(107,367,o),
(105,356,cs),
(80,218,ls),
(75,191,o),
(98,171,o),
(126,171,cs),
(147,171,o),
(171,185,o),
(175,208,cs),
(200,355,l)
);
},
{
closed = 1;
nodes = (
(301,311,ls),
(330,311,o),
(348,330,o),
(348,353,cs),
(348,375,o),
(331,396,o),
(301,396,cs),
(155,396,l),
(155,311,l)
);
}
);
width = 405;
}
);
metricLeft = five;
metricRight = five;
},
{
glyphname = six.c2sc;
lastChange = "2022-02-28 10:48:13 +0000";
layers = (
{
layerId = m01;
shapes = (
{
closed = 1;
nodes = (
(113,138,o),
(136,191,o),
(183,259,cs),
(201,285,o),
(231,319,o),
(281,353,cs),
(290,358,o),
(294,367,o),
(294,376,cs),
(294,387,o),
(285,396,o),
(271,396,cs),
(266,396,o),
(260,395,o),
(253,391,cs),
(220,372,o),
(164,316,o),
(140,284,cs),
(93,216,o),
(64,142,o),
(66,72,c),
(115,72,l)
);
},
{
closed = 1;
nodes = (
(66,36,o),
(101,-4,o),
(152,-4,cs),
(225,-4,o),
(300,100,o),
(300,175,cs),
(300,223,o),
(271,247,o),
(219,247,cs),
(157,247,o),
(112,212,o),
(88,169,c),
(66,81,l)
);
},
{
closed = 1;
nodes = (
(131,44,o),
(115,58,o),
(115,94,cs),
(115,145,o),
(153,199,o),
(218,199,cs),
(242,199,o),
(251,193,o),
(251,172,cs),
(251,121,o),
(193,44,o),
(151,44,cs)
);
}
);
width = 359;
},
{
layerId = m002;
shapes = (
{
closed = 1;
nodes = (
(166,133,o),
(189,175,o),
(235,242,cs),
(250,264,o),
(273,286,o),
(314,314,cs),
(328,323,o),
(337,338,o),
(337,354,cs),
(337,376,o),
(317,396,o),
(292,396,cs),
(283,396,o),
(272,393,o),
(262,386,cs),
(228,366,o),
(178,320,o),
(156,290,cs),
(106,219,o),
(84,158,o),
(85,92,c),
(174,92,l)
);
},
{
closed = 1;
nodes = (
(84,47,o),
(125,-4,o),
(186,-4,cs),
(268,-4,o),
(342,105,o),
(342,180,cs),
(342,236,o),
(305,267,o),
(245,267,cs),
(178,267,o),
(129,226,o),
(106,183,c),
(85,97,l)
);
},
{
closed = 1;
nodes = (
(183,84,o),
(178,94,o),
(178,113,cs),
(178,147,o),
(201,179,o),
(235,179,cs),
(247,179,o),
(249,175,o),
(249,163,cs),
(249,133,o),
(213,84,o),
(193,84,cs)
);
}
);
width = 422;
}
);
metricLeft = six;
metricRight = six;
},
{
glyphname = seven.c2sc;
lastChange = "2022-02-28 10:48:13 +0000";
layers = (
{
layerId = m01;
shapes = (
{
closed = 1;
nodes = (
(275,383,o),
(268,396,o),
(248,396,cs),
(239,396,o),
(226,389,o),
(224,377,cs),
(162,26,ls),
(159,8,o),
(170,0,o),
(183,0,cs),
(194,0,o),
(208,7,o),
(211,24,cs),
(272,372,l)
);
},
{
closed = 1;
nodes = (
(257,396,l),
(83,396,ls),
(66,396,o),
(57,384,o),
(57,374,cs),
(57,363,o),
(66,351,o),
(83,351,cs),
(257,351,l)
);
}
);
width = 363;
},
{
layerId = m002;
shapes = (
{
closed = 1;
nodes = (
(309,372,o),
(292,396,o),
(259,396,cs),
(239,396,o),
(217,382,o),
(213,359,cs),
(158,50,ls),
(152,19,o),
(175,0,o),
(201,0,cs),
(222,0,o),
(246,14,o),
(251,40,cs),
(305,348,ls)
);
},
{
closed = 1;
nodes = (
(260,396,l),
(113,396,ls),
(85,396,o),
(65,376,o),
(65,354,cs),
(65,331,o),
(85,310,o),
(113,310,cs),
(260,310,l)
);
}
);
width = 407;
}
);
metricLeft = seven;
metricRight = seven;
},
{
glyphname = eight.c2sc;
lastChange = "2022-02-28 10:48:13 +0000";
layers = (
{
layerId = m01;
shapes = (
{
closed = 1;
nodes = (
(138,231,l),
(74,184,o),
(56,132,o),
(56,94,cs),
(56,53,o),
(78,-4,o),
(148,-4,cs),
(223,-4,o),
(264,59,o),
(264,106,cs),
(264,147,o),
(231,187,o),
(201,217,cs),
(189,229,l)
);
},
{
closed = 1;
nodes = (
(188,161,o),
(214,131,o),
(214,106,cs),
(214,79,o),
(186,44,o),
(152,44,cs),
(123,44,o),
(105,68,o),
(105,99,cs),
(105,124,o),
(117,154,o),
(162,187,c),
(165,184,ls)
);
},
{
closed = 1;
nodes = (
(245,246,o),
(303,291,o),
(303,333,cs),
(303,374,o),
(248,396,o),
(206,396,cs),
(154,396,o),
(91,366,o),
(91,302,cs),
(91,259,o),
(123,230,o),
(140,214,c),
(182,239,l),
(166,254,o),
(141,275,o),
(141,306,cs),
(141,339,o),
(173,348,o),
(199,348,cs),
(223,348,o),
(256,340,o),
(256,333,cs),
(256,317,o),
(177,252,o),
(130,227,c),
(188,208,l)
);
}
);
width = 367;
},
{
layerId = m002;
shapes = (
{
closed = 1;
nodes = (
(160,245,l),
(91,197,o),
(68,145,o),
(68,106,cs),
(68,64,o),
(92,-3,o),
(172,-3,cs),
(253,-3,o),
(296,66,o),
(296,117,cs),
(296,160,o),
(258,197,o),
(230,225,cs),
(213,242,l)
);
},
{
closed = 1;
nodes = (
(177,166,o),
(216,137,o),
(216,117,cs),
(216,99,o),
(194,78,o),
(175,78,cs),
(161,78,o),
(148,89,o),
(148,110,cs),
(148,129,o),
(163,147,o),
(182,161,c),
(181,162,ls)
);
},
{
closed = 1;
nodes = (
(261,223,o),
(331,267,o),
(331,317,cs),
(331,369,o),
(268,396,o),
(223,396,cs),
(169,396,o),
(99,361,o),
(99,290,cs),
(99,243,o),
(134,212,o),
(161,186,c),
(230,225,l),
(217,248,o),
(179,266,o),
(179,294,cs),
(179,308,o),
(197,325,o),
(217,325,cs),
(232,325,o),
(250,322,o),
(250,316,cs),
(250,309,o),
(220,290,o),
(134,225,c),
(207,187,l)
);
}
);
width = 404;
}
);
metricLeft = eight;
metricRight = eight;
},
{
glyphname = nine.c2sc;
lastChange = "2022-02-28 10:48:13 +0000";
layers = (
{
layerId = m01;
shapes = (
{
closed = 1;
nodes = (
(240,363,l),
(219,330,o),
(198,295,o),
(170,260,cs),
(129,210,o),
(107,191,o),
(97,191,cs),
(95,191,o),
(95,195,o),
(95,205,cs),
(95,229,o),
(108,289,o),
(124,314,cs),
(143,342,o),
(173,348,o),
(195,348,cs),
(200,348,o),
(245,348,o),
(251,348,cs),
(266,348,l),
(266,356,o),
(266,389,o),
(266,396,c),
(259,396,o),
(211,396,o),
(195,396,cs),
(154,396,o),
(112,383,o),
(84,343,cs),
(62,308,o),
(46,242,o),
(46,202,cs),
(46,164,o),
(63,143,o),
(89,143,cs),
(133,143,o),
(169,182,o),
(198,217,cs),
(231,259,o),
(266,310,o),
(280,347,cs),
(286,363,l)
);
},
{
closed = 1;
nodes = (
(298,387,o),
(289,396,o),
(277,396,cs),
(237,396,l),
(237,330,l),
(184,23,ls),
(181,7,o),
(194,0,o),
(207,0,cs),
(218,0,o),
(230,6,o),
(233,21,cs),
(295,372,ls)
);
}
);
width = 360;
},
{
layerId = m002;
shapes = (
{
closed = 1;
nodes = (
(241,349,l),
(238,329,o),
(211,300,o),
(197,281,cs),
(177,255,o),
(164,244,o),
(159,239,cs),
(153,233,o),
(146,227,o),
(136,227,cs),
(128,227,o),
(143,279,o),
(160,304,cs),
(171,320,o),
(199,318,o),
(215,318,cs),
(220,318,o),
(259,318,o),
(265,318,cs),
(290,318,l),
(290,352,o),
(290,374,o),
(290,396,c),
(266,396,o),
(230,396,o),
(215,396,cs),
(174,396,o),
(121,386,o),
(90,343,cs),
(67,307,o),
(55,240,o),
(52,202,cs),
(49,157,o),
(84,135,o),
(121,135,cs),
(164,135,o),
(205,184,o),
(231,216,cs),
(262,255,o),
(308,303,o),
(313,321,cs),
(321,349,l)
);
},
{
closed = 1;
nodes = (
(334,376,o),
(313,396,o),
(288,396,cs),
(227,396,l),
(231,317,l),
(183,46,ls),
(178,15,o),
(203,0,o),
(226,0,cs),
(246,0,o),
(270,13,o),
(274,37,cs),
(329,348,ls)
);
}
);
width = 406;
}
);
metricLeft = nine;
metricRight = nine;
},
{
glyphname = .notdef;
lastChange = "2022-03-01 15:07:17 +0000";
layers = (
{
layerId = m01;
shapes = (
{
closed = 1;
nodes = (
(450,0,o),
(461,12,o),
(464,27,cs),
(578,673,ls),
(581,689,o),
(574,700,o),
(560,700,cs),
(164,700,ls),
(147,700,o),
(136,689,o),
(133,673,cs),
(19,27,ls),
(16,12,o),
(24,0,o),
(43,0,cs),
(439,0,ls)
);
},
{
closed = 1;
nodes = (
(181,655,l),
(524,655,l),
(417,45,l),
(73,45,l)
);
}
);
width = 535;
},
{
layerId = m002;
shapes = (
{
closed = 1;
nodes = (
(488,0,o),
(511,26,o),
(515,49,cs),
(622,659,ls),
(627,687,o),
(612,700,o),
(575,700,c),
(195,700,l),
(167,700,o),
(146,687,o),
(141,659,cs),
(34,49,ls),
(29,21,o),
(43,0,o),
(82,0,cs),
(463,0,ls)
);
},
{
closed = 1;
nodes = (
(234,605,l),
(511,605,l),
(421,95,l),
(144,95,l)
);
}
);
width = 589;
}
);
metricLeft = N;
metricRight = N;
},
{
glyphname = period;
lastChange = "2022-03-01 15:07:17 +0000";
layers = (
{
layerId = m01;
shapes = (
{
closed = 1;
nodes = (
(73,-30,o),
(91,-12,o),
(91,9,cs),
(91,29,o),
(73,46,o),
(53,46,cs),
(32,46,o),
(16,29,o),
(16,9,cs),
(16,-11,o),
(32,-30,o),
(53,-30,cs)
);
}
);
width = 165;
},
{
layerId = m002;
shapes = (
{
closed = 1;
nodes = (
(113,-30,o),
(139,-4,o),
(139,26,cs),
(139,55,o),
(113,80,o),
(84,80,cs),
(53,80,o),
(29,55,o),
(29,26,cs),
(29,-3,o),
(53,-30,o),
(84,-30,cs)
);
}
);
width = 220;
}
);
metricLeft = n;
metricRight = n;
unicode = 46;
},
{
glyphname = comma;
lastChange = "2022-03-01 15:07:17 +0000";
layers = (
{
layerId = m01;
shapes = (
{
closed = 1;
nodes = (
(72,39,o),
(61,49,o),
(48,50,cs),
(35,52,o),
(22,45,o),
(19,28,cs),
(2,-71,ls),
(-1,-89,o),
(9,-99,o),
(21,-101,cs),
(33,-103,o),
(48,-96,o),
(51,-78,cs),
(69,21,ls)
);
}
);
width = 140;
},
{
layerId = m002;
shapes = (
{
closed = 1;
nodes = (
(138,71,o),
(117,91,o),
(90,94,cs),
(65,97,o),
(38,83,o),
(33,54,cs),
(16,-45,ls),
(11,-76,o),
(31,-97,o),
(56,-101,cs),
(80,-105,o),
(110,-90,o),
(115,-60,cs),
(133,39,ls)
);
}
);
width = 211;
}
);
metricLeft = n;
metricRight = n;
unicode = 44;
},
{
glyphname = colon;
lastChange = "2022-03-01 15:07:17 +0000";
layers = (
{
layerId = m01;
shapes = (
{
closed = 1;
nodes = (
(74,-30,o),
(92,-12,o),
(92,9,cs),
(92,29,o),
(74,46,o),
(53,46,cs),
(32,46,o),
(16,29,o),
(16,9,cs),
(16,-11,o),
(32,-30,o),
(53,-30,cs)
);
},
{
closed = 1;
nodes = (
(109,175,o),
(127,194,o),
(127,214,cs),
(127,235,o),
(109,251,o),
(89,251,cs),
(68,251,o),
(52,234,o),
(52,214,cs),
(52,195,o),
(68,175,o),
(89,175,cs)
);
}
);
width = 166;
},
{
layerId = m002;
shapes = (
{
closed = 1;
nodes = (
(149,175,o),
(175,202,o),
(175,232,cs),
(175,261,o),
(149,285,o),
(120,285,cs),
(89,285,o),
(65,259,o),
(65,231,cs),
(65,203,o),
(89,175,o),
(119,175,cs)
);
},
{
closed = 1;
nodes = (
(113,-30,o),
(139,-4,o),
(139,26,cs),
(139,56,o),
(113,80,o),
(83,80,cs),
(52,80,o),
(29,55,o),
(29,26,cs),
(29,-3,o),
(52,-30,o),
(83,-30,cs)
);
}
);
width = 220;
}
);
metricLeft = n;
metricRight = n;
unicode = 58;
},
{
glyphname = semicolon;
lastChange = "2022-03-01 15:07:17 +0000";
layers = (
{
layerId = m01;
shapes = (
{
closed = 1;
nodes = (
(85,39,o),
(74,49,o),
(61,50,cs),
(48,52,o),
(35,45,o),
(32,28,cs),
(15,-71,ls),
(12,-90,o),
(24,-101,o),
(37,-102,cs),
(48,-103,o),
(61,-95,o),
(64,-78,cs),
(82,21,ls)
);
},
{
closed = 1;
nodes = (
(109,175,o),
(127,194,o),
(127,214,cs),
(127,235,o),
(109,251,o),
(89,251,cs),
(68,251,o),
(52,234,o),
(52,214,cs),
(52,195,o),
(68,175,o),
(89,175,cs)
);
}
);
width = 165;
},
{
layerId = m002;
shapes = (
{
closed = 1;
nodes = (
(142,71,o),
(120,91,o),
(93,94,cs),
(68,97,o),
(41,83,o),
(36,54,cs),
(19,-45,ls),
(13,-78,o),
(37,-100,o),
(64,-102,cs),
(87,-104,o),
(113,-89,o),
(118,-60,cs),
(136,39,ls)
);
},
{
closed = 1;
nodes = (
(148,175,o),
(174,203,o),
(174,231,cs),
(174,262,o),
(148,285,o),
(119,285,cs),
(88,285,o),
(65,260,o),
(65,231,cs),
(65,204,o),
(88,175,o),
(119,175,cs)
);
}
);
width = 219;
}
);
metricLeft = n;
metricRight = n;
unicode = 59;
},
{
glyphname = ellipsis;
lastChange = "2022-03-01 15:07:17 +0000";
layers = (
{
layerId = m01;
shapes = (
{
closed = 1;
nodes = (
(293,-30,o),
(311,-12,o),
(311,9,cs),
(311,29,o),
(293,46,o),
(273,46,cs),
(252,46,o),
(236,29,o),
(236,9,cs),
(236,-11,o),
(252,-30,o),
(273,-30,cs)
);
},
{
closed = 1;
nodes = (
(73,-30,o),
(91,-12,o),
(91,9,cs),
(91,29,o),
(73,46,o),
(53,46,cs),
(32,46,o),
(16,29,o),
(16,9,cs),
(16,-11,o),
(32,-30,o),
(53,-30,cs)
);
},
{
closed = 1;
nodes = (
(183,-30,o),
(201,-12,o),
(201,9,cs),
(201,29,o),
(183,46,o),
(163,46,cs),
(142,46,o),
(126,29,o),
(126,9,cs),
(126,-11,o),
(142,-30,o),
(163,-30,cs)
);
}
);
width = 385;
},
{
layerId = m002;
shapes = (
{
closed = 1;
nodes = (
(401,-31,o),
(428,-6,o),
(428,25,cs),
(428,56,o),
(401,79,o),
(372,79,cs),
(344,79,o),
(318,57,o),
(318,25,cs),
(318,-6,o),
(344,-31,o),
(373,-31,cs)
);
},
{
closed = 1;
nodes = (
(111,-31,o),
(138,-6,o),
(138,25,cs),
(138,56,o),
(111,79,o),
(82,79,cs),
(54,79,o),
(28,57,o),
(28,25,cs),
(28,-6,o),
(54,-31,o),
(83,-31,cs)
);
},
{
closed = 1;
nodes = (
(256,-30,o),
(283,-6,o),
(283,25,cs),
(283,56,o),
(256,79,o),
(228,79,cs),
(199,79,o),
(173,56,o),
(173,25,cs),
(173,-6,o),
(199,-30,o),
(228,-30,cs)
);
}
);
width = 509;
}
);
metricLeft = n;
metricRight = n;
unicode = 8230;
},
{
glyphname = exclam;
lastChange = "2022-03-01 15:07:17 +0000";
layers = (
{
layerId = m01;
shapes = (
{
closed = 1;
nodes = (
(184,643,o),
(174,650,o),
(162,650,cs),
(149,650,o),
(134,643,o),
(131,629,cs),
(55,202,ls),
(52,185,o),
(64,176,o),
(76,175,cs),
(88,174,o),
(103,183,o),
(106,202,cs),
(182,629,ls)
);
},
{
closed = 1;
nodes = (
(65,-24,o),
(81,-8,o),
(81,9,cs),
(81,26,o),
(65,41,o),
(47,41,cs),
(29,41,o),
(16,25,o),
(16,9,cs),
(16,-7,o),
(29,-24,o),
(47,-24,cs)
);
}
);
width = 156;
},
{
layerId = m002;
shapes = (
{
closed = 1;
nodes = (
(244,632,o),
(217,650,o),
(193,650,cs),
(171,650,o),
(142,635,o),
(138,611,cs),
(69,226,ls),
(64,197,o),
(88,177,o),
(113,175,cs),
(136,173,o),
(165,191,o),
(170,220,cs),
(239,605,ls)
);
},
{
closed = 1;
nodes = (
(113,-24,o),
(141,2,o),
(141,31,cs),
(141,60,o),
(113,86,o),
(83,86,cs),
(52,86,o),
(31,58,o),
(31,31,cs),
(31,4,o),
(52,-24,o),
(83,-24,cs)
);
}
);
width = 219;
}
);
metricLeft = N;
metricRight = N;
unicode = 33;
},
{
glyphname = exclamdown;
lastChange = "2022-03-01 15:07:17 +0000";
layers = (
{
layerId = m01;
shapes = (
{
closed = 1;
nodes = (
(149,441,o),
(137,450,o),
(125,451,cs),
(113,452,o),
(98,443,o),
(95,424,cs),
(21,21,ls),
(18,6,o),
(30,-1,o),
(43,0,cs),
(55,0,o),
(69,7,o),
(72,21,cs),
(146,424,ls)
);
},
{
closed = 1;
nodes = (
(175,585,o),
(188,601,o),
(188,617,cs),
(188,633,o),
(175,650,o),
(157,650,cs),
(139,650,o),
(123,634,o),
(123,617,cs),
(123,600,o),
(139,585,o),
(157,585,cs)
);
}
);
width = 156;
},
{
layerId = m002;
shapes = (
{
closed = 1;
nodes = (
(209,433,o),
(183,450,o),
(160,452,cs),
(136,454,o),
(108,437,o),
(103,407,cs),
(39,47,ls),
(34,17,o),
(59,-2,o),
(87,0,cs),
(109,0,o),
(135,14,o),
(139,39,cs),
(203,399,ls)
);
},
{
closed = 1;
nodes = (
(219,540,o),
(241,566,o),
(241,594,cs),
(241,623,o),
(219,650,o),
(188,650,cs),
(158,650,o),
(131,623,o),
(131,594,cs),
(131,566,o),
(158,540,o),
(188,540,cs)
);
}
);
width = 220;
}
);
metricLeft = N;
metricRight = N;
unicode = 161;
},
{
glyphname = question;
lastChange = "2022-02-27 13:00:00 +0000";
layers = (
{
layerId = m01;
shapes = (
{
closed = 1;
nodes = (
(347,272,o),
(415,364,o),
(440,503,cs),
(454,582,o),
(386,654,o),
(295,654,cs),
(180,654,o),
(116,590,o),
(99,495,cs),
(95,473,o),
(100,460,o),
(111,457,cs),
(124,454,o),
(144,463,o),
(148,485,cs),
(158,542,o),
(196,604,o),
(281,604,cs),
(347,604,o),
(401,568,o),
(390,507,cs),
(382,461,o),
(358,322,o),
(196,322,c),
(191,272,l)
);
},
{
closed = 1;
nodes = (
(159,-24,o),
(175,-9,o),
(175,7,cs),
(175,26,o),
(160,41,o),
(141,41,cs),
(124,41,o),
(110,25,o),
(110,7,cs),
(110,-8,o),
(124,-24,o),
(141,-24,cs)
);
},
{
closed = 1;
nodes = (
(221,310,o),
(214,322,o),
(194,322,cs),
(183,322,o),
(171,314,o),
(169,303,cs),
(151,202,ls),
(149,188,o),
(159,178,o),
(171,175,cs),
(184,173,o),
(198,180,o),
(202,202,cs),
(220,303,ls)
);
}
);
width = 413;
},
{
layerId = m002;
shapes = (
{
closed = 1;
nodes = (
(372,256,o),
(447,353,o),
(473,492,cs),
(488,577,o),
(414,654,o),
(317,654,cs),
(200,654,o),
(133,586,o),
(116,493,cs),
(109,458,o),
(124,439,o),
(145,434,cs),
(170,427,o),
(205,443,o),
(210,476,cs),
(218,524,o),
(243,565,o),
(305,565,cs),
(356,565,o),
(386,545,o),
(378,504,cs),
(371,459,o),
(350,345,o),
(218,356,c),
(197,267,l)
);
},
{
closed = 1;
nodes = (
(193,-24,o),
(221,2,o),
(221,32,cs),
(221,61,o),
(195,86,o),
(165,86,cs),
(134,86,o),
(111,60,o),
(111,32,cs),
(111,4,o),
(134,-24,o),
(164,-24,cs)
);
},
{
closed = 1;
nodes = (
(272,338,o),
(248,356,o),
(219,356,cs),
(198,356,o),
(176,342,o),
(172,321,cs),
(156,233,ls),
(151,207,o),
(166,182,o),
(195,176,cs),
(221,171,o),
(245,193,o),
(251,225,cs),
(267,313,ls)
);
}
);
width = 467;
}
);
metricLeft = O;
metricRight = O;
unicode = 63;
},
{
glyphname = questiondown;
lastChange = "2022-02-27 13:00:00 +0000";
layers = (
{
layerId = m01;
shapes = (
{
closed = 1;
nodes = (
(132,382,o),
(64,290,o),
(39,151,cs),
(25,72,o),
(93,0,o),
(184,0,cs),
(299,0,o),
(363,64,o),
(380,159,cs),
(384,181,o),
(379,194,o),
(368,197,cs),
(355,200,o),
(335,191,o),
(331,169,cs),
(321,112,o),
(283,50,o),
(198,50,cs),
(132,50,o),
(78,86,o),
(89,147,cs),
(97,193,o),
(121,332,o),
(283,332,c),
(288,382,l)
);
},
{
closed = 1;
nodes = (
(330,466,o),
(320,476,o),
(308,479,cs),
(295,481,o),
(281,474,o),
(277,452,cs),
(259,351,ls),
(258,344,o),
(265,332,o),
(285,332,cs),
(296,332,o),
(308,340,o),
(310,351,cs),
(328,452,ls)
);
},
{
closed = 1;
nodes = (
(350,585,o),
(364,601,o),
(364,619,cs),
(364,634,o),
(350,650,o),
(333,650,cs),
(315,650,o),
(299,635,o),
(299,619,cs),
(299,600,o),
(314,585,o),
(333,585,cs)
);
}
);
width = 414;
},
{
layerId = m002;
shapes = (
{
closed = 1;
nodes = (
(163,398,o),
(82,296,o),
(57,160,cs),
(43,76,o),
(114,1,o),
(209,1,cs),
(324,1,o),
(396,67,o),
(413,159,cs),
(418,194,o),
(405,212,o),
(384,217,cs),
(360,224,o),
(325,208,o),
(319,175,cs),
(312,128,o),
(287,89,o),
(227,89,cs),
(177,89,o),
(149,108,o),
(156,148,cs),
(163,192,o),
(187,300,o),
(308,289,c),
(337,386,l)
);
},
{
closed = 1;
nodes = (
(380,454,o),
(361,473,o),
(337,479,cs),
(311,484,o),
(281,470,o),
(275,435,cs),
(257,333,ls),
(253,310,o),
(277,289,o),
(308,289,cs),
(330,289,o),
(353,304,o),
(357,326,cs),
(375,428,ls)
);
},
{
closed = 1;
nodes = (
(385,540,o),
(407,568,o),
(407,597,cs),
(407,625,o),
(383,650,o),
(353,650,cs),
(322,650,o),
(297,625,o),
(297,598,cs),
(297,568,o),
(322,540,o),
(354,540,cs)
);
}
);
width = 466;
}
);
metricLeft = O;
metricRight = O;
unicode = 191;
},
{
glyphname = periodcentered;
lastChange = "2022-03-01 15:07:17 +0000";
layers = (
{
layerId = m01;
shapes = (
{
closed = 1;
nodes = (
(103,138,o),
(121,157,o),
(121,177,cs),
(121,198,o),
(103,214,o),
(83,214,cs),
(62,214,o),
(46,197,o),
(46,177,cs),
(46,158,o),
(62,138,o),
(83,138,cs)
);
}
);
width = 165;
},
{
layerId = m002;
shapes = (
{
closed = 1;
nodes = (
(138,121,o),
(165,149,o),
(165,178,cs),
(165,209,o),
(138,231,o),
(109,231,cs),
(78,231,o),
(55,207,o),
(55,178,cs),
(55,151,o),
(78,121,o),
(109,121,cs)
);
}
);
width = 219;
}
);
metricLeft = n;
metricRight = n;
unicode = 183;
},
{
glyphname = bullet;
lastChange = "2022-03-01 15:07:17 +0000";
layers = (
{
layerId = m01;
shapes = (
{
closed = 1;
nodes = (
(191,278,o),
(228,314,o),
(228,355,cs),
(228,396,o),
(192,430,o),
(152,430,cs),
(110,430,o),
(78,395,o),
(78,355,cs),
(78,316,o),
(109,278,o),
(151,278,cs)
);
}
);
width = 241;
},
{
layerId = m002;
shapes = (
{
closed = 1;
nodes = (
(238,254,o),
(287,301,o),
(287,355,cs),
(287,409,o),
(239,454,o),
(185,454,cs),
(130,454,o),
(87,408,o),
(87,355,cs),
(87,304,o),
(128,254,o),
(184,254,cs)
);
}
);
width = 311;
}
);
metricLeft = n;
metricRight = n;
unicode = 8226;
},
{
glyphname = asterisk;
lastChange = "2022-03-01 15:07:17 +0000";
layers = (
{
layerId = m01;
shapes = (
{
closed = 1;
nodes = (
(291,584,o),
(294,598,o),
(288,607,cs),
(283,614,o),
(271,617,o),
(256,608,cs),
(120,524,ls),
(103,513,o),
(99,499,o),
(105,491,cs),
(110,483,o),
(122,481,o),
(138,490,cs),
(274,574,ls)
);
},
{
closed = 1;
nodes = (
(251,482,o),
(264,484,o),
(271,492,cs),
(276,499,o),
(276,511,o),
(263,521,cs),
(155,606,ls),
(143,616,o),
(131,614,o),
(125,606,cs),
(118,599,o),
(118,586,o),
(131,576,cs),
(238,492,ls)
);
},
{
closed = 1;
nodes = (
(232,641,o),
(224,650,o),
(215,650,cs),
(205,650,o),
(193,641,o),
(190,623,cs),
(164,475,ls),
(161,458,o),
(168,450,o),
(177,448,cs),
(187,447,o),
(200,456,o),
(203,475,cs),
(229,623,ls)
);
}
);
width = 262;
},
{
layerId = m002;
shapes = (
{
closed = 1;
nodes = (
(342,570,o),
(352,594,o),
(337,617,cs),
(326,633,o),
(298,639,o),
(273,625,cs),
(140,543,l),
(118,527,o),
(106,504,o),
(119,483,cs),
(129,464,o),
(160,458,o),
(187,474,cs),
(316,554,ls)
);
},
{
closed = 1;
nodes = (
(277,460,o),
(306,464,o),
(320,481,cs),
(333,499,o),
(331,521,o),
(309,538,cs),
(204,621,ls),
(182,638,o),
(153,634,o),
(140,617,cs),
(125,599,o),
(127,576,o),
(151,558,cs),
(252,477,l)
);
},
{
closed = 1;
nodes = (
(290,648,o),
(270,668,o),
(246,668,cs),
(225,668,o),
(202,651,o),
(197,624,cs),
(172,482,ls),
(167,453,o),
(183,436,o),
(204,431,cs),
(226,426,o),
(254,443,o),
(260,474,cs),
(285,616,ls)
);
}
);
width = 323;
}
);
metricLeft = N;
metricRight = N;
unicode = 42;
},
{
glyphname = numbersign;
lastChange = "2022-03-01 15:07:17 +0000";
layers = (
{
layerId = m01;
shapes = (
{
closed = 1;
nodes = (
(310,559,o),
(299,568,o),
(286,568,cs),
(273,568,o),
(259,560,o),
(256,543,cs),
(165,28,ls),
(162,10,o),
(172,0,o),
(184,0,cs),
(197,-1,o),
(212,8,o),
(216,28,cs),
(307,543,ls)
);
},
{
closed = 1;
nodes = (
(633,147,o),
(642,159,o),
(642,170,cs),
(642,181,o),
(634,192,o),
(616,192,cs),
(71,192,ls),
(53,192,o),
(45,181,o),
(45,170,cs),
(45,159,o),
(54,147,o),
(71,147,cs),
(616,147,ls)
);
},
{
closed = 1;
nodes = (
(566,559,o),
(555,567,o),
(543,568,cs),
(530,568,o),
(515,560,o),
(512,543,cs),
(421,28,ls),
(418,9,o),
(429,-1,o),
(442,0,cs),
(455,0,o),
(469,9,o),
(472,28,cs),
(563,543,ls)
);
},
{
closed = 1;
nodes = (
(675,384,o),
(684,395,o),
(684,406,cs),
(684,417,o),
(675,429,o),
(657,429,cs),
(113,429,ls),
(95,429,o),
(86,417,o),
(86,406,cs),
(86,395,o),
(95,384,o),
(113,384,cs),
(657,384,ls)
);
}
);
width = 689;
},
{
layerId = m002;
shapes = (
{
closed = 1;
nodes = (
(600,555,o),
(576,568,o),
(553,568,cs),
(529,568,o),
(501,558,o),
(496,531,cs),
(411,47,ls),
(405,13,o),
(431,0,o),
(458,0,cs),
(482,0,o),
(504,11,o),
(509,39,cs),
(594,523,ls)
);
},
{
closed = 1;
nodes = (
(648,133,o),
(668,153,o),
(668,177,cs),
(668,200,o),
(649,218,o),
(619,218,cs),
(107,218,ls),
(77,218,o),
(57,200,o),
(57,177,cs),
(57,153,o),
(78,133,o),
(107,133,cs),
(619,133,ls)
);
},
{
closed = 1;
nodes = (
(358,552,o),
(334,568,o),
(307,568,cs),
(282,568,o),
(261,557,o),
(256,530,cs),
(170,47,ls),
(164,16,o),
(184,0,o),
(210,0,cs),
(234,0,o),
(263,10,o),
(268,39,cs),
(353,523,ls)
);
},
{
closed = 1;
nodes = (
(687,357,o),
(708,375,o),
(708,399,cs),
(708,422,o),
(687,442,o),
(657,442,cs),
(146,442,ls),
(116,442,o),
(96,422,o),
(96,399,cs),
(96,375,o),
(116,357,o),
(146,357,cs),
(657,357,ls)
);
}
);
width = 721;
}
);
metricLeft = N;
metricRight = N;
unicode = 35;
},
{
glyphname = slash;
lastChange = "2022-03-01 15:07:17 +0000";
layers = (
{
layerId = m01;
shapes = (
{
closed = 1;
nodes = (
(336,637,o),
(321,650,o),
(306,650,cs),
(295,650,o),
(284,644,o),
(277,627,cs),
(20,31,ls),
(12,12,o),
(26,0,o),
(42,0,cs),
(53,0,o),
(64,6,o),
(70,20,cs),
(327,616,ls)
);
}
);
width = 295;
},
{
layerId = m002;
shapes = (
{
closed = 1;
nodes = (
(391,624,o),
(360,650,o),
(330,650,cs),
(310,650,o),
(288,639,o),
(277,614,cs),
(37,60,ls),
(22,25,o),
(51,0,o),
(83,0,cs),
(102,0,o),
(124,10,o),
(134,32,cs),
(375,588,ls)
);
}
);
width = 356;
}
);
metricLeft = N;
metricRight = N;
unicode = 47;
},
{
glyphname = backslash;
lastChange = "2022-03-01 15:07:17 +0000";
layers = (
{
layerId = m01;
shapes = (
{
closed = 1;
nodes = (
(171,644,o),
(160,650,o),
(149,650,cs),
(134,650,o),
(119,637,o),
(128,616,cs),
(385,20,ls),
(391,5,o),
(403,0,o),
(414,0,cs),
(429,0,o),
(443,13,o),
(435,31,cs),
(178,627,ls)
);
}
);
width = 510;
},
{
layerId = m002;
shapes = (
{
closed = 1;
nodes = (
(215,648,o),
(184,655,o),
(159,646,cs),
(137,638,o),
(123,608,o),
(138,574,cs),
(373,32,ls),
(386,1,o),
(420,-6,o),
(445,4,cs),
(466,13,o),
(478,41,o),
(466,69,cs),
(230,614,ls)
);
}
);
width = 546;
}
);
metricLeft = N;
metricRight = N;
unicode = 92;
},
{
glyphname = exclam.c2sc;
lastChange = "2022-03-01 15:07:17 +0000";
layers = (
{
layerId = m01;
shapes = (
{
closed = 1;
nodes = (
(61,-24,o),
(77,-8,o),
(77,9,cs),
(77,26,o),
(61,41,o),
(43,41,cs),
(25,41,o),
(12,25,o),
(12,9,cs),
(12,-7,o),
(25,-24,o),
(43,-24,cs)
);
},
{
closed = 1;
nodes = (
(136,382,o),
(127,396,o),
(113,396,cs),
(95,396,o),
(86,386,o),
(83,372,cs),
(53,205,ls),
(50,188,o),
(62,175,o),
(75,175,cs),
(90,175,o),
(100,185,o),
(103,199,cs),
(133,367,ls)
);
}
);
width = 156;
},
{
layerId = m002;
shapes = (
{
closed = 1;
nodes = (
(106,-47,o),
(133,-20,o),
(133,9,cs),
(133,38,o),
(106,64,o),
(76,64,cs),
(45,64,o),
(23,36,o),
(23,9,cs),
(23,-18,o),
(45,-47,o),
(76,-47,cs)
);
},
{
closed = 1;
nodes = (
(193,370,o),
(173,396,o),
(143,396,cs),
(117,396,o),
(93,381,o),
(88,353,cs),
(58,186,ls),
(52,154,o),
(77,129,o),
(105,129,cs),
(131,129,o),
(151,146,o),
(157,172,cs),
(187,340,ls)
);
}
);
width = 219;
}
);
metricLeft = N;
metricRight = N;
},
{
glyphname = exclamdown.c2sc;
lastChange = "2022-03-01 15:07:17 +0000";
layers = (
{
layerId = m01;
shapes = (
{
closed = 1;
nodes = (
(95,420,o),
(79,404,o),
(79,387,cs),
(79,370,o),
(95,355,o),
(113,355,cs),
(131,355,o),
(144,371,o),
(144,387,cs),
(144,403,o),
(131,420,o),
(113,420,cs)
);
},
{
closed = 1;
nodes = (
(20,14,o),
(29,0,o),
(43,0,cs),
(61,0,o),
(70,10,o),
(73,24,cs),
(103,191,ls),
(106,208,o),
(94,221,o),
(81,221,cs),
(66,221,o),
(56,211,o),
(53,197,cs),
(23,29,ls)
);
}
);
width = 156;
},
{
layerId = m002;
shapes = (
{
closed = 1;
nodes = (
(117,443,o),
(90,416,o),
(90,387,cs),
(90,358,o),
(117,332,o),
(147,332,cs),
(178,332,o),
(200,360,o),
(200,387,cs),
(200,414,o),
(178,443,o),
(147,443,cs)
);
},
{
closed = 1;
nodes = (
(30,26,o),
(50,0,o),
(80,0,cs),
(106,0,o),
(130,15,o),
(135,43,cs),
(165,210,ls),
(171,242,o),
(146,267,o),
(118,267,cs),
(92,267,o),
(72,250,o),
(66,224,cs),
(36,56,ls)
);
}
);
width = 219;
}
);
metricLeft = N;
metricRight = N;
},
{
glyphname = question.c2sc;
lastChange = "2022-02-27 13:00:00 +0000";
layers = (
{
layerId = m01;
shapes = (
{
closed = 1;
nodes = (
(229,139,o),
(299,167,o),
(307,275,cs),
(313,345,o),
(278,395,o),
(193,395,cs),
(131,395,o),
(88,366,o),
(63,308,cs),
(56,292,o),
(64,277,o),
(72,274,cs),
(80,271,o),
(102,271,o),
(108,286,cs),
(123,324,o),
(146,345,o),
(190,345,cs),
(260,345,o),
(260,308,o),
(257,273,cs),
(248,184,o),
(184,189,o),
(135,189,cs),
(132,189,o),
(131,187,o),
(129,185,c),
(143,139,l)
);
},
{
closed = 1;
nodes = (
(121,-24,o),
(137,-9,o),
(137,7,cs),
(137,26,o),
(122,41,o),
(103,41,cs),
(86,41,o),
(72,25,o),
(72,7,cs),
(72,-8,o),
(86,-24,o),
(103,-24,cs)
);
},
{
closed = 1;
nodes = (
(132,87,o),
(146,94,o),
(150,116,cs),
(160,170,ls),
(161,177,o),
(154,189,o),
(134,189,cs),
(123,189,o),
(111,181,o),
(109,170,cs),
(99,116,ls),
(96,102,o),
(107,92,o),
(119,89,cs)
);
}
);
width = 326;
},
{
layerId = m002;
shapes = (
{
closed = 1;
nodes = (
(266,120,o),
(364,157,o),
(374,273,cs),
(381,356,o),
(335,418,o),
(235,418,cs),
(163,418,o),
(110,383,o),
(82,317,cs),
(71,291,o),
(81,262,o),
(105,252,cs),
(125,245,o),
(162,251,o),
(173,278,cs),
(187,311,o),
(201,322,o),
(232,322,cs),
(264,322,o),
(279,307,o),
(274,275,cs),
(265,218,o),
(221,222,o),
(174,222,cs),
(176,222,o),
(169,217,o),
(141,198,c),
(163,127,l)
);
},
{
closed = 1;
nodes = (
(172,-70,o),
(200,-44,o),
(200,-17,cs),
(200,15,o),
(174,41,o),
(142,41,cs),
(113,41,o),
(90,13,o),
(90,-17,cs),
(90,-42,o),
(113,-70,o),
(142,-70,cs)
);
},
{
closed = 1;
nodes = (
(181,72,o),
(209,86,o),
(216,122,cs),
(226,176,ls),
(231,201,o),
(207,222,o),
(175,222,cs),
(153,222,o),
(129,206,o),
(125,184,cs),
(115,131,ls),
(110,104,o),
(129,83,o),
(154,77,cs)
);
}
);
width = 412;
}
);
metricLeft = O;
metricRight = O;
},
{
glyphname = questiondown.c2sc;
lastChange = "2022-02-27 13:00:00 +0000";
layers = (
{
layerId = m01;
shapes = (
{
closed = 1;
nodes = (
(108,256,o),
(38,228,o),
(30,120,cs),
(24,50,o),
(59,0,o),
(144,0,cs),
(206,0,o),
(249,29,o),
(274,87,cs),
(281,103,o),
(273,118,o),
(265,121,cs),
(257,124,o),
(235,124,o),
(229,109,cs),
(214,71,o),
(191,50,o),
(147,50,cs),
(77,50,o),
(77,87,o),
(80,122,cs),
(89,211,o),
(153,206,o),
(202,206,cs),
(205,206,o),
(206,208,o),
(208,210,c),
(194,256,l)
);
},
{
closed = 1;
nodes = (
(216,419,o),
(200,404,o),
(200,388,cs),
(200,369,o),
(215,354,o),
(234,354,cs),
(251,354,o),
(265,370,o),
(265,388,cs),
(265,403,o),
(251,419,o),
(234,419,cs)
);
},
{
closed = 1;
nodes = (
(205,308,o),
(191,301,o),
(187,279,cs),
(177,225,ls),
(176,218,o),
(183,206,o),
(203,206,cs),
(214,206,o),
(226,214,o),
(228,225,cs),
(238,279,ls),
(241,293,o),
(230,303,o),
(218,306,cs)
);
}
);
width = 326;
},
{
layerId = m002;
shapes = (
{
closed = 1;
nodes = (
(159,298,o),
(61,261,o),
(51,145,cs),
(44,62,o),
(90,0,o),
(190,0,cs),
(262,0,o),
(315,35,o),
(343,101,cs),
(354,127,o),
(344,156,o),
(320,166,cs),
(300,173,o),
(263,167,o),
(252,140,cs),
(238,107,o),
(224,96,o),
(193,96,cs),
(161,96,o),
(146,111,o),
(151,143,cs),
(160,200,o),
(204,196,o),
(251,196,cs),
(249,196,o),
(256,201,o),
(284,220,c),
(262,291,l)
);
},
{
closed = 1;
nodes = (
(253,488,o),
(225,462,o),
(225,435,cs),
(225,403,o),
(251,377,o),
(283,377,cs),
(312,377,o),
(335,405,o),
(335,435,cs),
(335,460,o),
(312,488,o),
(283,488,cs)
);
},
{
closed = 1;
nodes = (
(244,346,o),
(216,332,o),
(209,296,cs),
(199,242,ls),
(194,217,o),
(218,196,o),
(250,196,cs),
(272,196,o),
(296,212,o),
(300,234,cs),
(310,287,ls),
(315,314,o),
(296,335,o),
(271,341,cs)
);
}
);
width = 412;
}
);
metricLeft = O;
metricRight = O;
},
{
glyphname = hyphen;
lastChange = "2022-03-01 15:07:17 +0000";
layers = (
{
layerId = m01;
shapes = (
{
closed = 1;
nodes = (
(242,175,o),
(251,186,o),
(251,198,cs),
(251,209,o),
(242,220,o),
(224,220,cs),
(76,220,ls),
(57,220,o),
(48,208,o),
(49,196,cs),
(50,185,o),
(59,175,o),
(76,175,cs),
(224,175,ls)
);
}
);
width = 291;
},
{
layerId = m002;
shapes = (
{
closed = 1;
nodes = (
(290,153,o),
(311,173,o),
(311,198,cs),
(311,222,o),
(290,242,o),
(259,242,cs),
(111,242,ls),
(78,242,o),
(57,220,o),
(59,194,cs),
(61,171,o),
(82,153,o),
(111,153,cs),
(259,153,ls)
);
}
);
width = 362;
}
);
metricLeft = n;
metricRight = n;
unicode = 45;
},
{
glyphname = endash;
lastChange = "2022-03-01 15:07:17 +0000";
layers = (
{
layerId = m01;
shapes = (
{
closed = 1;
nodes = (
(322,175,o),
(331,187,o),
(331,199,cs),
(331,210,o),
(322,220,o),
(304,220,cs),
(77,220,ls),
(59,220,o),
(50,210,o),
(50,199,cs),
(50,187,o),
(59,175,o),
(77,175,cs),
(304,175,ls)
);
}
);
width = 371;
},
{
layerId = m002;
shapes = (
{
closed = 1;
nodes = (
(369,153,o),
(390,174,o),
(390,199,cs),
(390,223,o),
(369,242,o),
(338,242,cs),
(111,242,ls),
(80,242,o),
(59,223,o),
(59,199,cs),
(59,174,o),
(80,153,o),
(111,153,cs),
(338,153,ls)
);
}
);
width = 440;
}
);
metricLeft = n;
metricRight = n;
unicode = 8211;
},
{
glyphname = emdash;
lastChange = "2022-03-01 15:07:17 +0000";
layers = (
{
layerId = m01;
shapes = (
{
closed = 1;
nodes = (
(422,175,o),
(433,187,o),
(433,199,cs),
(433,209,o),
(423,220,o),
(402,220,cs),
(79,220,ls),
(59,220,o),
(49,209,o),
(49,199,cs),
(49,187,o),
(60,175,o),
(79,175,cs),
(402,175,ls)
);
}
);
width = 473;
},
{
layerId = m002;
shapes = (
{
closed = 1;
nodes = (
(470,153,o),
(493,174,o),
(493,199,cs),
(493,222,o),
(471,242,o),
(437,242,cs),
(114,242,ls),
(81,242,o),
(59,222,o),
(59,199,cs),
(59,174,o),
(82,153,o),
(114,153,cs),
(437,153,ls)
);
}
);
width = 543;
}
);
metricLeft = n;
metricRight = n;
unicode = 8212;
},
{
glyphname = underscore;
lastChange = "2022-03-01 15:07:17 +0000";
layers = (
{
layerId = m01;
shapes = (
{
closed = 1;
nodes = (
(339,-77,o),
(348,-66,o),
(348,-54,cs),
(348,-43,o),
(339,-32,o),
(321,-32,cs),
(32,-32,ls),
(13,-32,o),
(5,-43,o),
(5,-55,cs),
(5,-66,o),
(15,-77,o),
(32,-77,cs),
(321,-77,ls)
);
}
);
width = 433;
},
{
layerId = m002;
shapes = (
{
closed = 1;
nodes = (
(386,-99,o),
(407,-79,o),
(407,-54,cs),
(407,-30,o),
(386,-10,o),
(355,-10,cs),
(66,-10,ls),
(34,-10,o),
(14,-30,o),
(14,-55,cs),
(14,-79,o),
(36,-99,o),
(66,-99,cs),
(355,-99,ls)
);
}
);
width = 502;
}
);
metricLeft = n;
metricRight = n;
unicode = 95;
},
{
glyphname = parenleft;
lastChange = "2022-03-01 15:07:17 +0000";
layers = (
{
layerId = m01;
shapes = (
{
closed = 1;
nodes = (
(188,-292,o),
(189,-278,o),
(181,-261,cs),
(95,-81,o),
(82,77,o),
(107,219,cs),
(130,347,o),
(206,480,o),
(332,607,cs),
(350,625,o),
(352,639,o),
(345,646,cs),
(337,654,o),
(319,651,o),
(299,633,cs),
(167,506,o),
(70,329,o),
(51,219,cs),
(29,94,o),
(55,-101,o),
(145,-283,cs),
(153,-299,o),
(169,-303,o),
(180,-297,cs)
);
}
);
width = 313;
},
{
layerId = m002;
shapes = (
{
closed = 1;
nodes = (
(248,-283,o),
(253,-264,o),
(241,-235,c),
(160,-66,o),
(148,80,o),
(172,213,cs),
(193,333,o),
(263,456,o),
(381,574,cs),
(412,605,o),
(407,628,o),
(393,643,cs),
(378,658,o),
(345,659,o),
(314,631,cs),
(182,505,o),
(87,330,o),
(68,221,cs),
(47,96,o),
(72,-95,o),
(161,-275,cs),
(176,-303,o),
(212,-310,o),
(233,-295,cs)
);
}
);
width = 379;
}
);
metricLeft = O;
metricRight = N;
unicode = 40;
},
{
glyphname = parenright;
lastChange = "2022-03-01 15:07:17 +0000";
layers = (
{
layerId = m01;
shapes = (
{
closed = 1;
nodes = (
(-21,-284,o),
(-4,-285,o),
(9,-273,cs),
(155,-133,o),
(246,42,o),
(269,167,cs),
(288,276,o),
(258,476,o),
(177,640,cs),
(164,664,o),
(149,673,o),
(138,668,cs),
(129,664,o),
(126,650,o),
(137,627,cs),
(212,465,o),
(238,314,o),
(216,186,cs),
(191,44,o),
(125,-100,o),
(-18,-240,cs),
(-31,-253,o),
(-35,-267,o),
(-29,-274,cs)
);
}
);
width = 301;
},
{
layerId = m002;
shapes = (
{
closed = 1;
nodes = (
(209,-132,o),
(298,41,o),
(321,164,cs),
(339,274,o),
(311,469,o),
(231,631,cs),
(210,669,o),
(181,679,o),
(159,669,cs),
(141,660,o),
(129,640,o),
(146,601,cs),
(217,448,o),
(241,309,o),
(220,190,cs),
(197,56,o),
(136,-76,o),
(4,-207,cs),
(-16,-225,o),
(-26,-249,o),
(-11,-267,cs),
(5,-289,o),
(42,-291,o),
(63,-270,cs)
);
}
);
width = 373;
}
);
metricLeft = N;
metricRight = O;
unicode = 41;
},
{
glyphname = braceleft;
lastChange = "2022-03-01 15:07:17 +0000";
layers = (
{
layerId = m01;
shapes = (
{
closed = 1;
nodes = (
(136,237,o),
(149,268,o),
(157,312,cs),
(166,365,o),
(151,476,o),
(171,535,cs),
(190,585,o),
(235,606,o),
(267,617,cs),
(280,622,o),
(284,631,o),
(280,642,cs),
(275,655,o),
(258,649,o),
(245,644,cs),
(216,630,o),
(158,603,o),
(139,551,cs),
(117,489,o),
(130,376,o),
(120,318,cs),
(113,290,o),
(101,265,o),
(76,241,cs),
(63,229,o),
(53,222,o),
(51,206,c),
(95,198,l)
);
},
{
closed = 1;
nodes = (
(51,188,o),
(58,179,o),
(66,163,cs),
(82,130,o),
(87,101,o),
(84,72,cs),
(77,15,o),
(32,-93,o),
(35,-159,cs),
(38,-216,o),
(73,-266,o),
(98,-293,cs),
(109,-305,o),
(121,-309,o),
(129,-299,cs),
(137,-290,o),
(129,-281,o),
(119,-271,cs),
(92,-244,o),
(73,-211,o),
(71,-157,cs),
(69,-94,o),
(115,10,o),
(121,64,cs),
(126,108,o),
(122,145,o),
(95,198,c),
(51,206,l)
);
}
);
width = 260;
},
{
layerId = m002;
shapes = (
{
closed = 1;
nodes = (
(186,219,o),
(201,255,o),
(210,302,cs),
(219,357,o),
(205,459,o),
(223,511,cs),
(239,552,o),
(273,567,o),
(302,576,cs),
(325,585,o),
(337,605,o),
(327,628,cs),
(317,656,o),
(284,652,o),
(261,642,cs),
(232,629,o),
(166,599,o),
(145,540,cs),
(123,475,o),
(134,369,o),
(125,316,cs),
(119,291,o),
(109,273,o),
(90,254,cs),
(69,235,o),
(58,225,o),
(64,187,c),
(134,173,l)
);
},
{
closed = 1;
nodes = (
(54,182,o),
(66,172,o),
(76,153,cs),
(89,126,o),
(93,103,o),
(90,79,cs),
(83,26,o),
(38,-75,o),
(41,-143,cs),
(44,-203,o),
(81,-256,o),
(108,-285,cs),
(131,-311,o),
(162,-308,o),
(176,-289,cs),
(193,-268,o),
(181,-252,o),
(166,-235,cs),
(142,-211,o),
(127,-187,o),
(125,-139,cs),
(124,-83,o),
(170,12,o),
(175,66,cs),
(181,114,o),
(175,155,o),
(144,216,c),
(66,224,l)
);
}
);
width = 315;
}
);
metricLeft = N;
metricRight = N;
unicode = 123;
},
{
glyphname = braceright;
lastChange = "2022-03-01 15:07:17 +0000";
layers = (
{
layerId = m01;
shapes = (
{
closed = 1;
nodes = (
(119,125,o),
(103,91,o),
(94,48,cs),
(82,-5,o),
(91,-119,o),
(69,-178,cs),
(49,-228,o),
(21,-253,o),
(-14,-270,cs),
(-26,-276,o),
(-37,-282,o),
(-32,-293,cs),
(-28,-305,o),
(-15,-305,o),
(-1,-297,cs),
(31,-280,o),
(81,-244,o),
(102,-191,cs),
(127,-130,o),
(119,-13,o),
(131,43,cs),
(138,72,o),
(152,97,o),
(178,123,cs),
(191,136,o),
(200,142,o),
(206,159,c),
(162,166,l)
);
},
{
closed = 1;
nodes = (
(209,175,o),
(202,185,o),
(194,200,cs),
(178,231,o),
(175,259,o),
(177,288,cs),
(187,346,o),
(236,448,o),
(235,514,cs),
(234,569,o),
(188,614,o),
(165,636,cs),
(154,645,o),
(140,657,o),
(131,646,cs),
(124,637,o),
(125,627,o),
(136,618,cs),
(162,597,o),
(198,563,o),
(200,509,cs),
(199,447,o),
(149,347,o),
(140,294,cs),
(133,250,o),
(136,216,o),
(162,166,c),
(206,159,l)
);
}
);
width = 254;
},
{
layerId = m002;
shapes = (
{
closed = 1;
nodes = (
(133,139,o),
(115,101,o),
(105,55,cs),
(93,0,o),
(98,-99,o),
(79,-151,cs),
(61,-195,o),
(41,-213,o),
(12,-227,cs),
(-13,-240,o),
(-26,-254,o),
(-19,-275,cs),
(-12,-300,o),
(21,-309,o),
(49,-291,c),
(83,-273,o),
(135,-235,o),
(157,-179,cs),
(183,-116,o),
(178,-10,o),
(189,40,cs),
(196,66,o),
(206,85,o),
(228,107,cs),
(242,122,o),
(258,130,o),
(261,175,c),
(186,187,l)
);
},
{
closed = 1;
nodes = (
(269,171,o),
(261,182,o),
(248,205,cs),
(235,231,o),
(232,253,o),
(234,278,c),
(244,332,o),
(291,430,o),
(290,497,cs),
(289,558,o),
(240,607,o),
(215,630,cs),
(194,648,o),
(163,662,o),
(145,637,cs),
(130,618,o),
(132,598,o),
(154,580,cs),
(177,562,o),
(204,536,o),
(206,493,cs),
(205,437,o),
(158,343,o),
(148,289,cs),
(141,241,o),
(145,202,o),
(178,143,c),
(250,132,l)
);
}
);
width = 315;
}
);
metricLeft = N;
metricRight = N;
unicode = 125;
},
{
glyphname = bracketleft;
lastChange = "2022-03-01 15:07:17 +0000";
layers = (
{
layerId = m01;
shapes = (
{
closed = 1;
nodes = (
(177,636,o),
(177,650,o),
(156,650,cs),
(135,650,o),
(127,639,o),
(124,623,cs),
(-34,-273,ls),
(-37,-288,o),
(-29,-300,o),
(-9,-300,cs),
(13,-300,o),
(15,-283,o),
(17,-273,cs),
(174,618,ls)
);
},
{
closed = 1;
nodes = (
(133,-300,ls),
(150,-300,o),
(159,-288,o),
(159,-277,cs),
(159,-266,o),
(151,-255,o),
(133,-255,cs),
(-6,-255,l),
(-12,-300,l)
);
},
{
closed = 1;
nodes = (
(292,605,ls),
(309,605,o),
(318,616,o),
(319,627,cs),
(320,638,o),
(311,650,o),
(292,650,cs),
(154,650,l),
(149,605,l)
);
}
);
width = 284;
},
{
layerId = m002;
shapes = (
{
closed = 1;
nodes = (
(240,640,o),
(215,650,o),
(188,650,cs),
(158,650,o),
(138,637,o),
(133,609,cs),
(-19,-251,ls),
(-24,-279,o),
(-4,-300,o),
(30,-300,cs),
(63,-300,o),
(78,-278,o),
(82,-255,cs),
(233,600,ls)
);
},
{
closed = 1;
nodes = (
(166,-300,ls),
(196,-300,o),
(213,-284,o),
(218,-258,cs),
(223,-230,o),
(197,-215,o),
(166,-215,cs),
(40,-215,l),
(28,-300,l)
);
},
{
closed = 1;
nodes = (
(319,565,ls),
(347,565,o),
(366,582,o),
(370,605,cs),
(375,633,o),
(348,650,o),
(319,650,cs),
(186,650,l),
(176,565,l)
);
}
);
width = 346;
}
);
metricLeft = N;
metricRight = N;
unicode = 91;
},
{
glyphname = bracketright;
lastChange = "2022-03-01 15:07:17 +0000";
layers = (
{
layerId = m01;
shapes = (
{
closed = 1;
nodes = (
(321,638,o),
(313,650,o),
(293,650,cs),
(271,650,o),
(269,634,o),
(267,624,cs),
(110,-268,ls),
(107,-286,o),
(107,-300,o),
(128,-300,c),
(150,-300,o),
(157,-289,o),
(160,-273,cs),
(318,623,ls)
);
},
{
closed = 1;
nodes = (
(138,-255,l),
(-7,-255,ls),
(-24,-255,o),
(-34,-266,o),
(-34,-277,cs),
(-34,-289,o),
(-26,-300,o),
(-7,-300,cs),
(131,-300,l)
);
},
{
closed = 1;
nodes = (
(297,650,l),
(152,650,ls),
(134,650,o),
(125,638,o),
(125,627,cs),
(125,616,o),
(134,605,o),
(152,605,cs),
(289,605,l)
);
}
);
width = 284;
},
{
layerId = m002;
shapes = (
{
closed = 1;
nodes = (
(373,629,o),
(353,650,o),
(319,650,cs),
(285,650,o),
(272,632,o),
(268,610,cs),
(117,-246,ls),
(109,-291,o),
(134,-300,o),
(161,-300,cs),
(192,-300,o),
(211,-287,o),
(216,-259,cs),
(368,601,ls)
);
},
{
closed = 1;
nodes = (
(176,-215,l),
(31,-215,ls),
(5,-215,o),
(-16,-233,o),
(-20,-257,cs),
(-24,-281,o),
(-3,-300,o),
(31,-300,cs),
(162,-300,l)
);
},
{
closed = 1;
nodes = (
(320,650,l),
(184,650,ls),
(153,650,o),
(137,634,o),
(132,607,cs),
(128,583,o),
(153,565,o),
(184,565,cs),
(304,565,l)
);
}
);
width = 345;
}
);
metricLeft = N;
metricRight = N;
unicode = 93;
},
{
glyphname = quotedbl;
lastChange = "2022-03-01 15:07:17 +0000";
layers = (
{
layerId = m01;
shapes = (
{
closed = 1;
nodes = (
(179,640,o),
(166,650,o),
(153,650,cs),
(141,650,o),
(127,641,o),
(124,624,cs),
(107,528,ls),
(104,510,o),
(116,500,o),
(129,500,cs),
(141,500,o),
(155,508,o),
(158,524,cs),
(175,620,ls)
);
},
{
closed = 1;
nodes = (
(286,640,o),
(274,650,o),
(260,650,cs),
(248,650,o),
(236,642,o),
(233,628,cs),
(215,528,ls),
(212,509,o),
(224,500,o),
(238,500,cs),
(250,500,o),
(264,507,o),
(266,521,cs),
(283,620,ls)
);
}
);
width = 250;
},
{
layerId = m002;
shapes = (
{
closed = 1;
nodes = (
(397,629,o),
(371,650,o),
(343,650,cs),
(320,650,o),
(296,635,o),
(291,610,cs),
(273,510,ls),
(266,472,o),
(297,456,o),
(321,456,cs),
(343,456,o),
(370,470,o),
(374,496,cs),
(391,595,ls)
);
},
{
closed = 1;
nodes = (
(238,628,o),
(214,650,o),
(186,650,cs),
(163,650,o),
(137,634,o),
(132,606,cs),
(115,510,ls),
(109,477,o),
(134,456,o),
(162,456,cs),
(185,456,o),
(210,471,o),
(215,498,cs),
(232,594,ls)
);
}
);
width = 369;
}
);
metricLeft = N;
metricRight = N;
unicode = 34;
},
{
glyphname = quotesingle;
lastChange = "2022-03-01 15:07:17 +0000";
layers = (
{
layerId = m01;
shapes = (
{
closed = 1;
nodes = (
(178,640,o),
(166,650,o),
(152,650,cs),
(140,650,o),
(128,642,o),
(125,628,cs),
(107,528,ls),
(104,509,o),
(116,500,o),
(130,500,cs),
(142,500,o),
(156,507,o),
(158,521,cs),
(175,620,ls)
);
}
);
width = 142;
},
{
layerId = m002;
shapes = (
{
closed = 1;
nodes = (
(238,629,o),
(213,650,o),
(185,650,cs),
(162,650,o),
(139,635,o),
(133,610,cs),
(115,510,ls),
(109,472,o),
(139,456,o),
(163,456,cs),
(185,456,o),
(212,470,o),
(216,496,cs),
(233,595,ls)
);
}
);
width = 211;
}
);
metricLeft = N;
metricRight = N;
unicode = 39;
},
{
glyphname = at;
lastChange = "2022-02-27 13:00:00 +0000";
layers = (
{
layerId = m01;
shapes = (
{
closed = 1;
nodes = (
(622,153,o),
(637,204,o),
(641,238,cs),
(663,403,o),
(580,476,o),
(423,476,cs),
(333,476,o),
(233,458,o),
(176,418,cs),
(88,356,o),
(45,228,o),
(32,124,cs),
(13,-20,o),
(66,-118,o),
(213,-118,cs),
(267,-118,o),
(309,-105,o),
(342,-84,cs),
(380,-60,o),
(388,-36,o),
(377,-22,cs),
(369,-11,o),
(356,-15,o),
(335,-29,cs),
(291,-60,o),
(246,-68,o),
(209,-68,cs),
(98,-68,o),
(64,4,o),
(83,123,cs),
(94,192,o),
(123,317,o),
(202,375,cs),
(248,409,o),
(337,426,o),
(421,426,cs),
(543,426,o),
(608,379,o),
(594,256,cs),
(589,214,o),
(572,166,o),
(543,125,c),
(584,98,l)
);
},
{
closed = 1;
nodes = (
(438,300,l),
(410,253,o),
(377,204,o),
(336,152,cs),
(275,76,o),
(238,46,o),
(219,46,cs),
(205,46,o),
(205,61,o),
(205,77,cs),
(205,115,o),
(223,205,o),
(249,244,cs),
(279,289,o),
(330,299,o),
(364,299,cs),
(371,299,o),
(439,299,o),
(447,299,c),
(458,299,l),
(458,301,o),
(458,346,o),
(458,349,c),
(446,349,o),
(384,349,o),
(364,349,cs),
(307,349,o),
(248,332,o),
(210,275,cs),
(178,227,o),
(155,130,o),
(155,72,cs),
(155,21,o),
(178,0,o),
(211,0,cs),
(269,0,o),
(318,49,o),
(360,101,cs),
(408,162,o),
(456,239,o),
(479,291,cs),
(483,300,l)
);
},
{
closed = 1;
nodes = (
(521,92,o),
(477,48,o),
(461,48,cs),
(450,48,o),
(453,66,o),
(453,78,cs),
(453,93,o),
(458,124,o),
(459,132,cs),
(494,327,ls),
(497,343,o),
(491,349,o),
(476,349,cs),
(446,349,l),
(410,146,ls),
(406,122,o),
(403,95,o),
(403,75,cs),
(403,26,o),
(420,0,o),
(456,0,cs),
(509,0,o),
(553,54,o),
(589,105,c),
(550,135,l)
);
}
);
width = 667;
},
{
layerId = m002;
shapes = (
{
closed = 1;
nodes = (
(646,131,o),
(662,193,o),
(668,228,cs),
(697,391,o),
(618,487,o),
(436,487,cs),
(353,487,o),
(249,473,o),
(181,423,cs),
(87,353,o),
(53,227,o),
(37,134,cs),
(13,-4,o),
(54,-128,o),
(233,-128,cs),
(285,-128,o),
(330,-116,o),
(361,-96,cs),
(411,-65,o),
(409,-43,o),
(393,-19,cs),
(383,-4,o),
(359,9,o),
(327,-12,cs),
(292,-36,o),
(259,-40,o),
(229,-40,cs),
(149,-40,o),
(114,28,o),
(131,127,cs),
(141,186,o),
(162,295,o),
(233,349,cs),
(285,389,o),
(363,397,o),
(434,397,cs),
(562,397,o),
(593,348,o),
(576,249,cs),
(569,208,o),
(549,160,o),
(515,118,c),
(592,69,l)
);
},
{
closed = 1;
nodes = (
(445,303,l),
(418,258,o),
(389,211,o),
(351,163,cs),
(298,97,o),
(276,86,o),
(271,86,cs),
(266,86,o),
(266,105,o),
(266,110,cs),
(266,133,o),
(280,195,o),
(299,225,cs),
(321,258,o),
(354,265,o),
(378,265,cs),
(384,265,o),
(444,265,o),
(451,265,cs),
(485,265,l),
(485,289,o),
(485,328,o),
(485,350,c),
(462,350,o),
(397,350,o),
(378,350,cs),
(323,350,o),
(260,335,o),
(222,276,cs),
(192,229,o),
(172,139,o),
(172,85,cs),
(172,25,o),
(189,-2,o),
(230,-2,cs),
(293,-2,o),
(355,52,o),
(393,97,cs),
(436,153,o),
(487,223,o),
(502,269,cs),
(514,307,l)
);
},
{
closed = 1;
nodes = (
(520,116,o),
(494,111,o),
(490,111,cs),
(483,111,o),
(483,121,o),
(485,131,cs),
(487,143,o),
(492,169,o),
(493,175,cs),
(517,305,ls),
(522,333,o),
(504,350,o),
(476,350,cs),
(429,350,l),
(393,153,ls),
(389,132,o),
(387,106,o),
(387,87,cs),
(387,27,o),
(423,-1,o),
(466,-1,cs),
(534,-1,o),
(594,60,o),
(622,113,c),
(547,166,l)
);
}
);
width = 695;
}
);
metricLeft = o;
metricRight = "=o-5";
unicode = 64;
},
{
glyphname = ampersand;
lastChange = "2022-02-27 13:00:00 +0000";
layers = (
{
layerId = m01;
shapes = (
{
closed = 1;
nodes = (
(379,4,o),
(397,-7,o),
(412,4,cs),
(425,14,o),
(422,29,o),
(414,41,cs),
(224,317,l),
(155,324,l),
(94,279,o),
(53,227,o),
(44,178,cs),
(30,103,o),
(84,-4,o),
(204,-4,cs),
(294,-4,o),
(333,56,o),
(401,169,c),
(409,181,o),
(405,195,o),
(393,201,cs),
(381,208,o),
(365,203,o),
(356,190,c),
(295,96,o),
(273,46,o),
(204,46,cs),
(130,46,o),
(81,103,o),
(92,164,cs),
(100,205,o),
(135,249,o),
(186,285,c),
(372,14,ls)
);
},
{
closed = 1;
nodes = (
(189,363,o),
(144,424,o),
(144,455,cs),
(144,487,o),
(190,518,o),
(247,518,cs),
(291,518,o),
(308,500,o),
(312,486,cs),
(321,449,o),
(249,383,o),
(148,319,c),
(224,309,l),
(311,371,o),
(378,432,o),
(358,500,cs),
(345,547,o),
(300,568,o),
(247,568,cs),
(159,568,o),
(94,510,o),
(94,453,cs),
(94,403,o),
(143,342,o),
(165,309,c),
(208,335,l)
);
}
);
width = 479;
},
{
layerId = m002;
shapes = (
{
closed = 1;
nodes = (
(382,3,o),
(418,-9,o),
(442,8,cs),
(467,27,o),
(462,52,o),
(448,73,cs),
(269,335,l),
(182,344,l),
(118,297,o),
(73,243,o),
(63,190,cs),
(48,108,o),
(108,-4,o),
(235,-4,cs),
(334,-4,o),
(376,63,o),
(438,168,cs),
(452,190,o),
(444,213,o),
(423,225,cs),
(401,238,o),
(369,231,o),
(354,209,cs),
(296,120,o),
(282,86,o),
(235,86,cs),
(179,86,o),
(148,123,o),
(157,169,cs),
(162,197,o),
(182,225,o),
(213,251,c),
(369,23,ls)
);
},
{
closed = 1;
nodes = (
(242,369,o),
(205,419,o),
(205,441,cs),
(205,460,o),
(230,478,o),
(275,478,cs),
(302,478,o),
(309,473,o),
(311,465,cs),
(317,438,o),
(252,386,o),
(158,333,c),
(261,284,l),
(347,344,o),
(424,409,o),
(401,489,cs),
(386,543,o),
(332,568,o),
(275,568,cs),
(180,568,o),
(109,504,o),
(109,439,cs),
(109,386,o),
(158,325,o),
(191,276,c),
(273,325,l)
);
}
);
width = 534;
}
);
metricLeft = O;
metricRight = O;
unicode = 38;
},
{
glyphname = degree;
lastChange = "2022-02-27 13:00:00 +0000";
layers = (
{
layerId = m01;
shapes = (
{
closed = 1;
nodes = (
(211,433,o),
(277,532,o),
(277,595,cs),
(277,634,o),
(254,655,o),
(209,655,cs),
(172,655,o),
(146,630,o),
(131,604,cs),
(120,583,o),
(103,543,o),
(103,496,cs),
(103,449,o),
(120,433,o),
(147,433,cs)
);
},
{
closed = 1;
nodes = (
(142,472,o),
(142,486,o),
(142,503,cs),
(142,530,o),
(154,559,o),
(168,588,c),
(180,608,o),
(190,615,o),
(207,615,cs),
(229,615,o),
(237,609,o),
(237,588,cs),
(237,550,o),
(185,472,o),
(154,472,cs)
);
}
);
width = 236;
},
{
layerId = m002;
shapes = (
{
closed = 1;
nodes = (
(260,398,o),
(331,508,o),
(331,577,cs),
(331,625,o),
(299,654,o),
(243,654,cs),
(194,654,o),
(162,621,o),
(146,593,cs),
(134,573,o),
(117,528,o),
(117,478,cs),
(117,410,o),
(153,398,o),
(181,398,cs)
);
},
{
closed = 1;
nodes = (
(194,476,o),
(192,492,o),
(193,504,cs),
(196,524,o),
(202,543,o),
(212,562,cs),
(220,577,o),
(230,580,o),
(240,580,cs),
(251,580,o),
(251,571,o),
(250,555,cs),
(248,523,o),
(216,476,o),
(198,476,cs)
);
}
);
width = 312;
}
);
metricLeft = O;
metricRight = O;
unicode = 176;
},
{
glyphname = bar;
lastChange = "2022-03-01 15:07:17 +0000";
layers = (
{
layerId = m01;
shapes = (
{
closed = 1;
nodes = (
(187,690,o),
(176,700,o),
(163,700,cs),
(151,700,o),
(136,690,o),
(133,672,cs),
(-34,-273,ls),
(-37,-288,o),
(-28,-300,o),
(-10,-300,cs),
(12,-300,o),
(15,-285,o),
(17,-275,cs),
(183,668,ls)
);
}
);
width = 141;
},
{
layerId = m002;
shapes = (
{
closed = 1;
nodes = (
(246,681,o),
(223,702,o),
(195,702,cs),
(173,702,o),
(147,685,o),
(142,657,cs),
(-19,-250,ls),
(-25,-278,o),
(-3,-302,o),
(29,-302,cs),
(63,-302,o),
(75,-281,o),
(80,-260,c),
(240,645,ls)
);
}
);
width = 209;
}
);
metricLeft = N;
metricRight = N;
unicode = 124;
},
{
glyphname = brokenbar;
lastChange = "2022-03-01 15:07:17 +0000";
layers = (
{
layerId = m01;
shapes = (
{
closed = 1;
nodes = (
(92,152,o),
(81,162,o),
(69,162,cs),
(56,162,o),
(41,152,o),
(38,135,cs),
(-34,-273,ls),
(-37,-288,o),
(-28,-300,o),
(-10,-300,cs),
(12,-300,o),
(15,-285,o),
(17,-275,cs),
(89,135,ls)
);
},
{
closed = 1;
nodes = (
(187,690,o),
(176,700,o),
(163,700,cs),
(151,700,o),
(136,690,o),
(133,672,cs),
(61,266,ls),
(58,249,o),
(69,238,o),
(82,239,cs),
(95,239,o),
(109,249,o),
(112,266,cs),
(183,668,ls)
);
}
);
width = 141;
},
{
layerId = m002;
shapes = (
{
closed = 1;
nodes = (
(150,141,o),
(128,163,o),
(101,163,cs),
(78,163,o),
(51,146,o),
(46,119,cs),
(-19,-248,ls),
(-24,-276,o),
(-3,-300,o),
(29,-300,cs),
(63,-300,o),
(76,-279,o),
(80,-258,cs),
(145,111,ls)
);
},
{
closed = 1;
nodes = (
(245,679,o),
(222,700,o),
(194,700,cs),
(172,700,o),
(146,683,o),
(141,655,cs),
(76,290,ls),
(70,259,o),
(94,236,o),
(122,238,cs),
(145,239,o),
(170,256,o),
(175,282,cs),
(239,643,ls)
);
}
);
width = 208;
}
);
metricLeft = N;
metricRight = N;
unicode = 166;
},
{
glyphname = dollar;
lastChange = "2022-02-27 13:00:00 +0000";
layers = (
{
layerId = m01;
shapes = (
{
closed = 1;
nodes = (
(245,0,o),
(419,17,o),
(419,153,cs),
(419,236,o),
(355,262,o),
(269,312,cs),
(203,350,o),
(138,381,o),
(138,425,cs),
(138,482,o),
(247,519,o),
(324,519,cs),
(467,519,ls),
(482,519,o),
(490,532,o),
(490,545,cs),
(490,557,o),
(482,569,o),
(463,569,cs),
(325,569,ls),
(193,569,o),
(88,503,o),
(88,420,cs),
(88,349,o),
(165,315,o),
(243,269,cs),
(319,225,o),
(369,206,o),
(369,152,cs),
(369,57,o),
(212,50,o),
(147,50,cs),
(44,50,ls),
(28,50,o),
(17,37,o),
(17,24,cs),
(17,12,o),
(25,0,o),
(44,0,cs),
(147,0,ls)
);
},
{
closed = 1;
nodes = (
(346,639,o),
(336,650,o),
(324,650,cs),
(313,650,o),
(300,641,o),
(297,622,cs),
(178,-52,ls),
(175,-71,o),
(185,-80,o),
(196,-80,cs),
(207,-80,o),
(220,-71,o),
(223,-54,cs),
(342,618,ls)
);
}
);
width = 456;
},
{
layerId = m002;
shapes = (
{
closed = 1;
nodes = (
(279,-4,o),
(465,13,o),
(465,161,cs),
(465,253,o),
(392,282,o),
(312,329,cs),
(250,365,o),
(201,388,o),
(201,417,cs),
(201,455,o),
(283,477,o),
(351,477,cs),
(485,477,ls),
(512,477,o),
(532,498,o),
(532,523,cs),
(532,548,o),
(512,568,o),
(481,568,cs),
(352,568,ls),
(217,568,o),
(104,504,o),
(104,412,cs),
(104,331,o),
(189,294,o),
(262,251,cs),
(335,209,o),
(368,197,o),
(368,160,cs),
(368,92,o),
(244,87,o),
(184,87,cs),
(88,87,ls),
(60,87,o),
(37,66,o),
(37,41,cs),
(37,16,o),
(57,-4,o),
(88,-4,cs),
(184,-4,ls)
);
},
{
closed = 1;
nodes = (
(400,629,o),
(377,650,o),
(351,650,cs),
(329,650,o),
(304,635,o),
(299,606,cs),
(188,-28,ls),
(182,-61,o),
(205,-80,o),
(230,-80,cs),
(252,-80,o),
(277,-65,o),
(282,-38,cs),
(394,594,ls)
);
}
);
width = 521;
}
);
metricLeft = O;
metricRight = O;
unicode = 36;
},
{
glyphname = plus;
lastChange = "2022-03-01 15:07:17 +0000";
layers = (
{
layerId = m01;
shapes = (
{
closed = 1;
nodes = (
(234,323,o),
(222,334,o),
(210,334,cs),
(200,334,o),
(190,327,o),
(187,311,cs),
(148,87,ls),
(145,68,o),
(157,57,o),
(169,57,cs),
(179,57,o),
(189,64,o),
(192,80,cs),
(231,304,ls)
);
},
{
closed = 1;
nodes = (
(321,175,o),
(330,187,o),
(330,198,cs),
(330,209,o),
(321,220,o),
(303,220,cs),
(76,220,ls),
(58,220,o),
(49,209,o),
(49,198,cs),
(49,187,o),
(58,175,o),
(76,175,cs),
(303,175,ls)
);
}
);
width = 370;
},
{
layerId = m002;
shapes = (
{
closed = 1;
nodes = (
(288,329,o),
(265,350,o),
(238,350,cs),
(218,350,o),
(196,337,o),
(191,310,cs),
(154,95,ls),
(149,62,o),
(172,41,o),
(199,41,cs),
(219,41,o),
(241,54,o),
(246,81,cs),
(283,296,ls)
);
},
{
closed = 1;
nodes = (
(358,154,o),
(378,174,o),
(378,198,cs),
(378,221,o),
(358,241,o),
(327,241,cs),
(110,241,ls),
(79,241,o),
(59,221,o),
(59,198,cs),
(59,174,o),
(79,154,o),
(110,154,cs),
(327,154,ls)
);
}
);
width = 429;
}
);
metricLeft = n;
metricRight = n;
unicode = 43;
},
{
glyphname = minus;
lastChange = "2022-03-01 15:07:17 +0000";
layers = (
{
layerId = m01;
shapes = (
{
closed = 1;
nodes = (
(321,175,o),
(330,187,o),
(330,198,cs),
(330,209,o),
(321,220,o),
(303,220,cs),
(76,220,ls),
(58,220,o),
(49,209,o),
(49,198,cs),
(49,186,o),
(58,175,o),
(76,175,cs),
(303,175,ls)
);
}
);
width = 370;
},
{
layerId = m002;
shapes = (
{
closed = 1;
nodes = (
(358,154,o),
(378,174,o),
(378,198,cs),
(378,222,o),
(358,241,o),
(327,241,cs),
(110,241,ls),
(79,241,o),
(59,222,o),
(59,198,cs),
(59,173,o),
(79,154,o),
(110,154,cs),
(327,154,ls)
);
}
);
width = 429;
}
);
metricLeft = n;
metricRight = n;
unicode = 8722;
},
{
glyphname = multiply;
lastChange = "2022-03-01 15:07:17 +0000";
layers = (
{
layerId = m01;
shapes = (
{
closed = 1;
nodes = (
(354,302,o),
(352,317,o),
(343,325,cs),
(334,334,o),
(318,337,o),
(304,325,cs),
(38,101,ls),
(26,91,o),
(28,76,o),
(36,67,cs),
(45,58,o),
(60,54,o),
(76,67,cs),
(340,290,ls)
);
},
{
closed = 1;
nodes = (
(103,336,o),
(88,335,o),
(79,327,cs),
(70,318,o),
(66,303,o),
(76,291,cs),
(265,69,ls),
(276,56,o),
(291,58,o),
(300,66,cs),
(310,74,o),
(314,89,o),
(303,102,cs),
(116,321,ls)
);
}
);
width = 371;
},
{
layerId = m002;
shapes = (
{
closed = 1;
nodes = (
(403,292,o),
(402,319,o),
(382,336,cs),
(365,351,o),
(334,355,o),
(311,337,cs),
(56,122,ls),
(34,102,o),
(34,78,o),
(50,59,cs),
(68,40,o),
(100,36,o),
(126,56,cs),
(380,270,l)
);
},
{
closed = 1;
nodes = (
(143,355,o),
(108,353,o),
(91,335,cs),
(76,317,o),
(72,294,o),
(90,273,cs),
(271,59,l),
(291,38,o),
(324,40,o),
(341,55,cs),
(360,72,o),
(365,97,o),
(345,120,cs),
(166,331,l)
);
}
);
width = 429;
}
);
metricLeft = n;
metricRight = n;
unicode = 215;
},
{
glyphname = divide;
lastChange = "2022-03-01 15:07:17 +0000";
layers = (
{
layerId = m01;
shapes = (
{
closed = 1;
nodes = (
(338,175,o),
(340,220,o),
(303,220,cs),
(76,220,ls),
(39,220,o),
(41,175,o),
(76,175,cs),
(303,175,ls)
);
},
{
closed = 1;
nodes = (
(187,57,o),
(203,73,o),
(203,90,cs),
(203,108,o),
(186,122,o),
(169,122,cs),
(150,122,o),
(138,106,o),
(138,90,cs),
(138,73,o),
(151,57,o),
(169,57,cs)
);
},
{
closed = 1;
nodes = (
(225,273,o),
(241,289,o),
(241,306,cs),
(241,323,o),
(225,338,o),
(208,338,cs),
(190,338,o),
(176,322,o),
(176,306,cs),
(176,290,o),
(190,273,o),
(208,273,cs)
);
}
);
width = 370;
},
{
layerId = m002;
shapes = (
{
closed = 1;
nodes = (
(392,154,o),
(395,241,o),
(326,241,cs),
(109,241,ls),
(40,241,o),
(43,154,o),
(109,154,cs),
(326,154,ls)
);
},
{
closed = 1;
nodes = (
(225,16,o),
(252,40,o),
(252,69,cs),
(252,100,o),
(224,122,o),
(195,122,cs),
(164,122,o),
(140,98,o),
(140,69,cs),
(140,40,o),
(165,16,o),
(195,16,cs)
);
},
{
closed = 1;
nodes = (
(271,273,o),
(298,297,o),
(298,327,cs),
(298,356,o),
(271,379,o),
(241,379,cs),
(211,379,o),
(186,355,o),
(186,327,cs),
(186,298,o),
(211,273,o),
(241,273,cs)
);
}
);
width = 427;
}
);
metricLeft = n;
metricRight = n;
unicode = 247;
},
{
glyphname = equal;
lastChange = "2022-03-01 15:07:17 +0000";
layers = (
{
layerId = m01;
shapes = (
{
closed = 1;
nodes = (
(334,248,o),
(343,260,o),
(343,271,cs),
(343,282,o),
(334,293,o),
(316,293,cs),
(89,293,ls),
(71,293,o),
(62,282,o),
(62,271,cs),
(62,260,o),
(71,248,o),
(89,248,cs),
(316,248,ls)
);
},
{
closed = 1;
nodes = (
(308,97,o),
(317,108,o),
(317,120,cs),
(317,131,o),
(308,142,o),
(290,142,cs),
(63,142,ls),
(45,142,o),
(36,131,o),
(36,120,cs),
(36,109,o),
(45,97,o),
(63,97,cs),
(290,97,ls)
);
}
);
width = 371;
},
{
layerId = m002;
shapes = (
{
closed = 1;
nodes = (
(374,248,o),
(395,266,o),
(395,290,cs),
(395,314,o),
(374,333,o),
(344,333,cs),
(126,333,ls),
(96,333,o),
(75,314,o),
(75,290,cs),
(75,266,o),
(96,248,o),
(126,248,cs),
(344,248,ls)
);
},
{
closed = 1;
nodes = (
(348,97,o),
(369,116,o),
(369,141,cs),
(369,165,o),
(348,182,o),
(318,182,cs),
(100,182,ls),
(70,182,o),
(49,165,o),
(49,141,cs),
(49,117,o),
(70,97,o),
(100,97,cs),
(318,97,ls)
);
}
);
width = 430;
}
);
metricLeft = n;
metricRight = n;
unicode = 61;
},
{
glyphname = notequal;
lastChange = "2022-03-01 15:07:17 +0000";
layers = (
{
layerId = m01;
shapes = (
{
closed = 1;
nodes = (
(281,337,o),
(269,350,o),
(255,350,cs),
(245,350,o),
(235,345,o),
(229,333,cs),
(108,72,ls),
(100,54,o),
(108,42,o),
(119,38,cs),
(129,35,o),
(142,38,o),
(148,51,cs),
(269,312,ls)
);
},
{
closed = 1;
nodes = (
(308,97,o),
(317,108,o),
(317,120,cs),
(317,131,o),
(308,142,o),
(290,142,cs),
(63,142,ls),
(45,142,o),
(36,131,o),
(36,120,cs),
(36,109,o),
(45,97,o),
(63,97,cs),
(290,97,ls)
);
},
{
closed = 1;
nodes = (
(334,248,o),
(343,260,o),
(343,271,cs),
(343,282,o),
(334,293,o),
(316,293,cs),
(89,293,ls),
(71,293,o),
(62,282,o),
(62,271,cs),
(62,260,o),
(71,248,o),
(89,248,cs),
(316,248,ls)
);
}
);
width = 371;
},
{
layerId = m002;
shapes = (
{
closed = 1;
nodes = (
(356,376,o),
(328,401,o),
(299,401,cs),
(282,401,o),
(260,391,o),
(251,372,cs),
(106,60,ls),
(92,30,o),
(107,8,o),
(132,-1,cs),
(152,-7,o),
(180,-1,o),
(191,22,cs),
(336,333,ls)
);
},
{
closed = 1;
nodes = (
(348,97,o),
(369,116,o),
(369,141,cs),
(369,165,o),
(348,182,o),
(318,182,cs),
(100,182,ls),
(70,182,o),
(49,165,o),
(49,141,cs),
(49,117,o),
(70,97,o),
(100,97,cs),
(318,97,ls)
);
},
{
closed = 1;
nodes = (
(374,248,o),
(395,266,o),
(395,290,cs),
(395,314,o),
(374,333,o),
(344,333,cs),
(126,333,ls),
(96,333,o),
(75,314,o),
(75,290,cs),
(75,266,o),
(96,248,o),
(126,248,cs),
(344,248,ls)
);
}
);
width = 430;
}
);
metricLeft = n;
metricRight = n;
unicode = 8800;
},
{
glyphname = greater;
lastChange = "2022-03-01 15:07:17 +0000";
layers = (
{
layerId = m01;
shapes = (
{
closed = 1;
nodes = (
(264,216,l),
(49,103,ls),
(29,93,o),
(26,81,o),
(30,70,cs),
(34,60,o),
(45,50,o),
(64,60,cs),
(290,179,l)
);
},
{
closed = 1;
nodes = (
(278,171,o),
(289,176,o),
(296,186,cs),
(304,197,o),
(304,207,o),
(289,217,cs),
(112,330,ls),
(96,340,o),
(83,339,o),
(75,329,cs),
(67,318,o),
(70,304,o),
(85,294,cs),
(263,181,ls)
);
}
);
width = 341;
},
{
layerId = m002;
shapes = (
{
closed = 1;
nodes = (
(297,245,l),
(72,127,ls),
(42,112,o),
(34,92,o),
(40,70,cs),
(47,46,o),
(77,30,o),
(108,45,cs),
(349,173,l)
);
},
{
closed = 1;
nodes = (
(297,147,o),
(328,154,o),
(342,176,cs),
(355,198,o),
(352,218,o),
(327,235,cs),
(156,344,ls),
(131,359,o),
(102,355,o),
(88,337,cs),
(72,315,o),
(77,291,o),
(102,272,c),
(273,164,l)
);
}
);
width = 403;
}
);
metricLeft = n;
metricRight = n;
unicode = 62;
},
{
glyphname = less;
lastChange = "2022-03-01 15:07:17 +0000";
layers = (
{
layerId = m01;
shapes = (
{
closed = 1;
nodes = (
(301,290,ls),
(321,300,o),
(324,312,o),
(320,323,cs),
(316,333,o),
(305,343,o),
(286,333,cs),
(60,214,l),
(86,177,l)
);
},
{
closed = 1;
nodes = (
(254,53,o),
(267,54,o),
(275,64,cs),
(283,75,o),
(280,89,o),
(265,99,cs),
(87,212,ls),
(72,222,o),
(61,217,o),
(54,207,cs),
(46,196,o),
(46,186,o),
(61,176,cs),
(238,63,ls)
);
}
);
width = 341;
},
{
layerId = m002;
shapes = (
{
closed = 1;
nodes = (
(339,266,ls),
(369,281,o),
(377,301,o),
(371,323,cs),
(364,347,o),
(334,363,o),
(303,348,cs),
(62,220,l),
(114,148,l)
);
},
{
closed = 1;
nodes = (
(280,34,o),
(309,38,o),
(323,56,cs),
(339,78,o),
(334,102,o),
(309,121,c),
(138,229,l),
(114,246,o),
(83,239,o),
(69,217,cs),
(56,195,o),
(59,175,o),
(84,158,cs),
(255,49,ls)
);
}
);
width = 404;
}
);
metricLeft = n;
metricRight = n;
unicode = 60;
},
{
glyphname = greaterequal;
lastChange = "2022-03-01 15:07:17 +0000";
layers = (
{
layerId = m01;
shapes = (
{
closed = 1;
nodes = (
(289,198,o),
(300,202,o),
(307,212,cs),
(315,223,o),
(315,233,o),
(300,243,cs),
(117,360,ls),
(101,370,o),
(88,369,o),
(80,359,cs),
(72,348,o),
(75,334,o),
(90,324,cs),
(274,207,ls)
);
},
{
closed = 1;
nodes = (
(287,97,o),
(296,108,o),
(296,120,cs),
(296,131,o),
(287,142,o),
(269,142,cs),
(65,142,ls),
(47,142,o),
(38,131,o),
(38,120,cs),
(38,109,o),
(47,97,o),
(65,97,cs),
(269,97,ls)
);
},
{
closed = 1;
nodes = (
(292,248,l),
(86,248,ls),
(64,248,o),
(56,239,o),
(54,227,cs),
(53,216,o),
(58,202,o),
(80,202,cs),
(293,202,l)
);
}
);
width = 350;
},
{
layerId = m002;
shapes = (
{
closed = 1;
nodes = (
(316,197,o),
(343,200,o),
(356,219,cs),
(371,241,o),
(369,261,o),
(344,279,c),
(166,393,ls),
(138,411,o),
(110,403,o),
(98,386,cs),
(82,364,o),
(89,344,o),
(114,325,c),
(293,212,ls)
);
},
{
closed = 1;
nodes = (
(319,57,o),
(339,75,o),
(339,99,cs),
(339,123,o),
(319,142,o),
(288,142,cs),
(92,142,ls),
(62,142,o),
(41,122,o),
(41,98,cs),
(41,75,o),
(62,57,o),
(92,57,cs),
(288,57,ls)
);
},
{
closed = 1;
nodes = (
(322,287,l),
(123,287,ls),
(89,287,o),
(70,271,o),
(67,247,cs),
(65,223,o),
(82,202,o),
(117,202,cs),
(324,202,l)
);
}
);
width = 408;
}
);
metricLeft = n;
metricRight = n;
unicode = 8805;
},
{
glyphname = lessequal;
lastChange = "2022-03-01 15:07:17 +0000";
layers = (
{
layerId = m01;
shapes = (
{
closed = 1;
nodes = (
(336,332,o),
(338,348,o),
(330,359,cs),
(322,369,o),
(310,369,o),
(293,360,cs),
(67,243,ls),
(52,235,o),
(52,223,o),
(60,212,cs),
(67,202,o),
(78,199,o),
(93,207,cs),
(320,324,ls)
);
},
{
closed = 1;
nodes = (
(286,97,o),
(295,109,o),
(295,120,cs),
(295,131,o),
(286,142,o),
(268,142,cs),
(64,142,ls),
(46,142,o),
(37,131,o),
(37,120,cs),
(37,108,o),
(46,97,o),
(64,97,cs),
(268,97,ls)
);
},
{
closed = 1;
nodes = (
(287,202,ls),
(303,202,o),
(313,213,o),
(313,225,cs),
(314,236,o),
(304,248,o),
(281,248,cs),
(75,248,l),
(74,202,l)
);
}
);
width = 349;
},
{
layerId = m002;
shapes = (
{
closed = 1;
nodes = (
(387,337,o),
(395,362,o),
(378,386,cs),
(366,403,o),
(340,408,o),
(311,393,cs),
(94,281,ls),
(66,266,o),
(62,242,o),
(78,221,cs),
(91,201,o),
(116,197,o),
(141,210,cs),
(359,322,ls)
);
},
{
closed = 1;
nodes = (
(318,57,o),
(339,75,o),
(339,98,cs),
(339,122,o),
(318,142,o),
(288,142,cs),
(92,142,ls),
(62,142,o),
(41,122,o),
(41,98,cs),
(41,74,o),
(62,57,o),
(92,57,cs),
(288,57,ls)
);
},
{
closed = 1;
nodes = (
(316,202,ls),
(344,202,o),
(366,222,o),
(366,245,cs),
(368,272,o),
(342,287,o),
(310,287,cs),
(117,287,l),
(115,202,l)
);
}
);
width = 409;
}
);
metricLeft = n;
metricRight = n;
unicode = 8804;
},
{
glyphname = plusminus;
lastChange = "2022-03-01 15:07:17 +0000";
layers = (
{
layerId = m01;
shapes = (
{
closed = 1;
nodes = (
(228,364,o),
(216,375,o),
(204,375,cs),
(194,375,o),
(184,368,o),
(181,352,cs),
(153,196,ls),
(150,177,o),
(162,166,o),
(174,166,cs),
(184,166,o),
(194,173,o),
(197,189,cs),
(225,345,ls)
);
},
{
closed = 1;
nodes = (
(278,97,o),
(287,108,o),
(287,120,cs),
(287,131,o),
(278,142,o),
(260,142,cs),
(63,142,ls),
(45,142,o),
(36,131,o),
(36,120,cs),
(36,109,o),
(45,97,o),
(63,97,cs),
(260,97,ls)
);
},
{
closed = 1;
nodes = (
(304,248,o),
(313,260,o),
(313,271,cs),
(313,282,o),
(304,293,o),
(286,293,cs),
(89,293,ls),
(71,293,o),
(62,282,o),
(62,271,cs),
(62,260,o),
(71,248,o),
(89,248,cs),
(286,248,ls)
);
}
);
width = 341;
},
{
layerId = m002;
shapes = (
{
closed = 1;
nodes = (
(287,390,o),
(262,411,o),
(236,411,cs),
(215,411,o),
(194,398,o),
(189,371,cs),
(162,222,ls),
(156,188,o),
(181,167,o),
(207,167,cs),
(228,167,o),
(249,181,o),
(254,207,cs),
(281,357,ls)
);
},
{
closed = 1;
nodes = (
(314,57,o),
(335,74,o),
(335,99,cs),
(335,122,o),
(314,142,o),
(284,142,cs),
(94,142,ls),
(64,142,o),
(44,122,o),
(44,99,cs),
(44,75,o),
(64,57,o),
(94,57,cs),
(284,57,ls)
);
},
{
closed = 1;
nodes = (
(345,248,o),
(365,266,o),
(365,290,cs),
(365,313,o),
(345,333,o),
(315,333,cs),
(125,333,ls),
(95,333,o),
(75,313,o),
(75,290,cs),
(75,266,o),
(95,248,o),
(125,248,cs),
(315,248,ls)
);
}
);
width = 403;
}
);
metricLeft = n;
metricRight = n;
unicode = 177;
},
{
glyphname = approxequal;
lastChange = "2022-03-01 15:07:17 +0000";
layers = (
{
layerId = m01;
shapes = (
{
closed = 1;
nodes = (
(276,227,o),
(296,237,o),
(317,246,cs),
(335,254,o),
(343,260,o),
(343,271,cs),
(343,282,o),
(331,302,o),
(314,294,cs),
(295,285,o),
(282,272,o),
(252,272,cs),
(224,272,o),
(181,310,o),
(150,310,cs),
(124,310,o),
(107,301,o),
(89,294,cs),
(71,287,o),
(62,282,o),
(62,271,cs),
(62,259,o),
(72,238,o),
(90,246,cs),
(105,253,o),
(119,265,o),
(142,265,cs),
(173,265,o),
(216,227,o),
(244,227,cs)
);
},
{
closed = 1;
nodes = (
(250,76,o),
(270,86,o),
(291,95,cs),
(309,103,o),
(317,109,o),
(317,120,cs),
(317,131,o),
(305,151,o),
(288,143,cs),
(269,134,o),
(256,121,o),
(226,121,cs),
(198,121,o),
(155,159,o),
(124,159,cs),
(98,159,o),
(81,150,o),
(63,143,cs),
(45,136,o),
(36,131,o),
(36,120,cs),
(36,108,o),
(46,87,o),
(64,95,cs),
(79,102,o),
(93,114,o),
(116,114,cs),
(147,114,o),
(190,76,o),
(218,76,cs)
);
}
);
width = 371;
},
{
layerId = m002;
shapes = (
{
closed = 1;
nodes = (
(312,229,o),
(337,241,o),
(355,249,cs),
(383,262,o),
(395,273,o),
(395,293,cs),
(395,321,o),
(363,351,o),
(331,335,cs),
(307,323,o),
(302,316,o),
(283,316,cs),
(266,316,o),
(224,352,o),
(185,352,cs),
(154,352,o),
(132,342,o),
(116,335,cs),
(89,324,o),
(75,313,o),
(75,293,cs),
(75,261,o),
(107,234,o),
(138,249,cs),
(156,258,o),
(164,265,o),
(177,265,cs),
(197,265,o),
(238,229,o),
(275,229,cs)
);
},
{
closed = 1;
nodes = (
(278,35,o),
(303,47,o),
(321,55,cs),
(349,68,o),
(361,79,o),
(361,99,cs),
(361,127,o),
(329,157,o),
(297,141,cs),
(273,129,o),
(268,122,o),
(249,122,cs),
(232,122,o),
(190,158,o),
(151,158,cs),
(120,158,o),
(98,148,o),
(82,141,cs),
(55,130,o),
(41,119,o),
(41,99,cs),
(41,67,o),
(73,40,o),
(104,55,cs),
(122,64,o),
(130,71,o),
(143,71,cs),
(163,71,o),
(204,35,o),
(241,35,cs)
);
}
);
width = 429;
}
);
metricLeft = n;
metricRight = n;
unicode = 8776;
},
{
glyphname = asciicircum;
lastChange = "2022-03-01 15:07:17 +0000";
layers = (
{
layerId = m01;
shapes = (
{
closed = 1;
nodes = (
(297,619,o),
(295,634,o),
(286,642,cs),
(277,651,o),
(261,654,o),
(247,642,cs),
(114,531,ls),
(102,521,o),
(104,506,o),
(112,497,cs),
(121,488,o),
(136,484,o),
(152,497,cs),
(283,607,ls)
);
},
{
closed = 1;
nodes = (
(248,609,l),
(341,499,ls),
(352,486,o),
(367,488,o),
(376,496,cs),
(386,504,o),
(389,520,o),
(379,532,cs),
(287,641,l)
);
}
);
width = 371;
},
{
layerId = m002;
shapes = (
{
closed = 1;
nodes = (
(357,590,o),
(355,617,o),
(337,635,cs),
(320,653,o),
(286,657,o),
(263,638,cs),
(130,527,ls),
(106,507,o),
(110,481,o),
(123,464,cs),
(141,442,o),
(176,439,o),
(200,459,cs),
(331,569,ls)
);
},
{
closed = 1;
nodes = (
(262,573,l),
(354,464,ls),
(373,441,o),
(408,443,o),
(426,460,cs),
(445,477,o),
(449,502,o),
(430,525,cs),
(337,635,l)
);
}
);
width = 439;
}
);
metricLeft = N;
metricRight = N;
unicode = 94;
},
